<svg width="99" height="99" viewBox="0 0 99 99" fill="none" xmlns="http://www.w3.org/2000/svg">
<path fill-rule="evenodd" clip-rule="evenodd" d="M0 19C0 8.50659 8.50659 0 19 0H80C90.4934 0 99 8.50659 99 19V80C99 90.4934 90.4934 99 80 99H19C8.50659 99 0 90.4934 0 80V19ZM40.9338 25.3669C41.6961 22.1369 44.4659 19.5935 47.782 19.0594C48.7731 18.9068 50.4629 19.0594 51.5047 19.39C54.211 20.2421 56.4344 22.6074 57.057 25.3034C57.273 26.2063 57.3238 28.0121 57.1459 28.7623L57.0316 29.2329L61.3514 31.5982L65.6712 33.9508L66.3319 33.3404C67.7295 32.0687 69.5591 31.4074 71.6555 31.4074C74.0695 31.4074 75.7593 32.1069 77.4619 33.8237C79.2025 35.5659 79.9267 37.2826 79.9267 39.6734C79.9267 42.026 79.1644 43.8573 77.4746 45.5232C76.4835 46.5024 75.5179 47.1 74.1966 47.5706C73.1547 47.9394 70.9567 48.0411 69.7878 47.7613C65.9254 46.8457 63.1429 43.1578 63.4097 39.2919C63.4478 38.6942 63.5113 38.0965 63.5494 37.9566C63.613 37.7404 63.1175 37.4352 59.6616 35.5404C57.489 34.345 55.545 33.3023 55.3417 33.2005C54.9987 33.0225 54.9606 33.0479 54.3253 33.6202C53.0294 34.7901 50.844 35.604 49.0018 35.604C47.1595 35.604 44.9741 34.7901 43.6782 33.6202C43.1573 33.1497 42.9667 33.0479 42.7888 33.1369C42.6904 33.1817 41.6974 33.7218 40.3374 34.4614L40.3238 34.4687L40.1206 34.5792L39.6705 34.824C39.2869 35.0326 38.8833 35.2519 38.469 35.4768L34.3905 37.7023L34.4922 38.1474C34.6573 38.974 34.5811 41.085 34.3397 41.8989C33.0311 46.2735 28.6604 48.8041 24.3024 47.685C22.7905 47.3035 21.647 46.6422 20.4781 45.4596C18.8264 43.8191 18.0895 42.0133 18.0895 39.6734C18.0895 37.2954 18.8264 35.5277 20.5289 33.8237C21.7487 32.6156 22.8921 31.9543 24.3533 31.6109C25.4205 31.3566 27.3899 31.3566 28.3555 31.5982C29.4354 31.878 30.7695 32.5647 31.6589 33.3023L32.4212 33.9381L32.8024 33.7092C32.9766 33.6002 34.4204 32.8091 36.1736 31.8485L37.0714 31.3566L40.9719 29.2329L40.8576 28.7623C40.6924 28.0375 40.7305 26.219 40.9338 25.3669ZM22.5867 52.2122C20.3378 52.8099 18.4955 54.8828 18.1271 57.2227C18.0508 57.7186 18 61.4319 18 66.5695C18 75.9292 18.0127 76.0945 18.7623 77.5823C19.6136 79.2483 21.4432 80.5708 23.3363 80.876C24.4035 81.0413 28.3676 81.0413 29.4222 80.876C31.7981 80.4818 33.8309 78.6124 34.4535 76.2344C34.6187 75.5858 34.6441 74.1615 34.6314 66.4424C34.6314 58.329 34.606 57.3244 34.4154 56.5741C33.8691 54.5013 32.2428 52.8608 30.0828 52.2122C29.1299 51.9325 23.6285 51.9325 22.5867 52.2122ZM41.4282 42.9544C42.343 41.1867 44.1091 39.9405 46.0784 39.6734C47.1076 39.5335 50.8302 39.5335 51.9102 39.6734C54.2988 39.9913 56.3698 41.7717 57.0559 44.1116C57.2338 44.7347 57.2592 46.5024 57.2592 60.2874C57.2592 75.4332 57.2592 75.7766 57.0051 76.5904C56.7001 77.5696 55.9251 78.7905 55.1882 79.4136C54.4386 80.0621 53.0156 80.7234 52.05 80.876C50.9827 81.0413 47.0186 81.0413 45.9514 80.876C44.198 80.5962 42.4193 79.3627 41.5299 77.7985C41.4954 77.7385 41.4624 77.6824 41.4308 77.6287C41.363 77.5133 41.3019 77.4093 41.2467 77.3022C40.7406 76.3189 40.7407 75.0749 40.742 62.4121L40.7421 60.2747L40.7421 58.6165C40.7414 45.5821 40.7413 44.3819 41.2016 43.3968C41.2337 43.3282 41.268 43.2605 41.3048 43.19L41.3148 43.1707L41.3563 43.0917C41.3794 43.0479 41.4034 43.0023 41.4282 42.9544ZM67.806 52.2504C66.6752 52.6192 66.0145 53.0134 65.1887 53.84C64.3501 54.692 63.7403 55.8111 63.4989 56.9429C63.4099 57.4007 63.3591 60.4909 63.3591 66.4806C63.3591 73.8563 63.3972 75.4841 63.5497 76.1454C64.0325 78.2055 65.5317 79.8587 67.6281 80.6471C68.3269 80.9142 68.5937 80.9269 71.6176 80.9396C74.6923 80.9396 74.8956 80.9269 75.6706 80.6471C77.9449 79.8332 79.5458 77.9003 79.8761 75.5985C80.0413 74.4286 80.0413 58.4689 79.8761 57.2863C79.5331 54.8955 77.6781 52.8099 75.3657 52.1995C74.2095 51.907 68.7716 51.9325 67.806 52.2504Z" fill="white"/>
</svg>
