<svg width="99" height="99" viewBox="0 0 99 99" fill="none" xmlns="http://www.w3.org/2000/svg">
<path fill-rule="evenodd" clip-rule="evenodd" d="M19 0C8.50659 0 0 8.50659 0 19V80C0 90.4934 8.50659 99 19 99H80C90.4934 99 99 90.4934 99 80V19C99 8.50659 90.4934 0 80 0H19ZM46.5077 20.4603C46.7943 19.9053 47.3804 19.3636 47.9665 19.1126C48.1489 19.0333 48.6829 18.9804 49.1648 19.0069C49.8942 19.0333 50.1286 19.1126 50.5975 19.4429C51.4963 20.0771 51.7698 20.7377 51.874 22.4157C51.9652 24.0408 52.0303 24.1598 53.2677 25.0054C54.4399 25.7981 54.9218 27.3175 54.4139 28.5859C54.1534 29.1937 53.8017 29.5769 52.9811 30.1318C52.8752 30.2038 52.7793 30.2542 52.6925 30.2998C52.6104 30.3429 52.5365 30.3817 52.4699 30.4305C51.8646 30.8744 51.8653 32.1446 51.8723 44.9577L51.8723 44.9757C51.8731 46.4881 51.874 48.1655 51.874 50.0166C51.874 51.8658 51.8731 53.5421 51.8723 55.0532L51.8723 55.0756C51.8653 67.8886 51.8646 69.1589 52.4699 69.6028C52.5365 69.6516 52.6104 69.6904 52.6925 69.7335C52.7793 69.7791 52.8752 69.8295 52.9811 69.9015C54.1664 70.6942 54.6092 71.4341 54.6092 72.5704C54.5962 73.6274 54.0752 74.5259 53.0723 75.1733C52.0694 75.8207 51.9652 76.0321 51.874 77.6176C51.7698 79.2956 51.4963 79.9562 50.5975 80.6036C50.0765 80.9604 49.9333 81 49.0085 81C48.0837 81 47.9405 80.9604 47.4195 80.6036C46.5207 79.9562 46.2342 79.2824 46.156 77.6176C46.0649 76.0321 45.9346 75.7546 45.114 75.5168C44.8275 75.4375 41.975 75.3847 37.8722 75.3847C30.3698 75.3847 30.2005 75.3582 28.5854 74.5391C26.8791 73.667 25.6157 72.3854 24.8082 70.6942C24.7641 70.6043 24.7225 70.522 24.6832 70.4443L24.6642 70.4068C24.6065 70.2927 24.5538 70.1873 24.5057 70.0799C23.9978 68.9471 23.998 67.5864 24.0003 53.2693L24.0003 53.2504C24.0004 52.2386 24.0006 51.1622 24.0006 50.0166L24.0006 49.2965L24.0003 46.9413L24.0003 46.7831L24.0003 46.7641L24 44.2157C24 43.4237 24.0001 42.6787 24.0005 41.9776C24.0059 32.1102 24.0613 30.9446 24.5057 29.9534C24.559 29.8344 24.6179 29.7179 24.6831 29.5893L24.6935 29.5686C24.7235 29.5094 24.7592 29.4386 24.7917 29.3725L24.7965 29.3627L24.8082 29.3391C25.6027 27.6611 26.9703 26.2738 28.6245 25.4678C30.2526 24.6618 30.3438 24.6486 37.8201 24.6486C41.975 24.6486 44.8275 24.5958 45.114 24.5165C45.9346 24.2787 46.0649 24.0012 46.156 22.4157C46.2081 21.3455 46.2993 20.8831 46.5077 20.4603ZM61.7068 24.8336C60.0005 25.6 59.5446 28.0707 60.8341 29.4448C61.5244 30.1847 61.7849 30.2508 64.1815 30.3301C66.3046 30.3961 66.4218 30.4093 67.0079 30.7661C67.4117 31.0039 67.7503 31.3474 67.9848 31.757C68.3365 32.3516 68.3495 32.4705 68.4146 34.6241C68.4928 37.0552 68.5579 37.3195 69.2873 38.0197C70.4986 39.1824 72.6217 38.971 73.5725 37.5705L73.9502 37.0288L73.9893 34.4259C74.0414 31.4795 73.9242 30.7925 73.1687 29.2731C72.0746 27.0534 70.1469 25.4678 67.8024 24.8601C66.7605 24.5826 62.3059 24.5694 61.7068 24.8336ZM69.1705 45.2072C69.3659 44.9958 69.7566 44.7184 70.0432 44.5863C71.2285 44.0313 72.8435 44.4673 73.5729 45.5508L73.9507 46.0925V53.9407L73.5729 54.4824C72.5961 55.9226 70.3558 56.0944 69.1705 54.826C68.4672 54.0596 68.4151 53.769 68.4151 50.0166C68.4151 46.2642 68.4672 45.9736 69.1705 45.2072ZM70.108 61.4586C69.8606 61.5644 69.4828 61.8154 69.2875 62.0136C68.5581 62.7138 68.493 62.9781 68.4148 65.4092C68.3497 67.5628 68.3367 67.6817 67.985 68.2763C67.7505 68.6859 67.4119 69.0294 67.0081 69.2672C66.422 69.624 66.3048 69.6372 64.1817 69.7033C61.7851 69.7825 61.5246 69.8486 60.8343 70.5885C59.6881 71.8173 59.8965 73.9709 61.2771 74.9354L61.8112 75.3186L64.3119 75.3582C67.2556 75.4111 68.0371 75.2657 69.6391 74.4333C71.0589 73.6802 72.3353 72.3986 73.0647 70.9585C73.9244 69.2673 74.0416 68.633 73.9895 65.6074L73.9504 63.0045L73.5727 62.4628C72.8563 61.419 71.2673 60.9566 70.108 61.4586Z" fill="white"/>
</svg>
