<svg width="74" height="126" viewBox="0 0 74 126" fill="none" xmlns="http://www.w3.org/2000/svg">
<path d="M63.9419 0.162476C63.5936 0.285545 57.9956 2.77155 54.3631 4.42067L52.6215 5.20832L54.1392 5.74982C55.4827 6.2421 56.9755 7.02974 58.2693 7.91584C58.5927 8.16198 59.0406 8.03891 60.6578 7.32511L62.6482 6.43901L63.2204 7.71893C63.5439 8.40812 64.4644 9.58958 65.2357 10.3772C67.6242 12.7402 70.2117 13.1094 71.7543 11.3126C73.9438 8.7281 71.605 2.47618 67.7237 0.50707C66.7285 0.0147928 64.8376 -0.157504 63.9419 0.162476Z" fill="white"/>
<path d="M48.0685 8.13737C45.1078 8.62964 41.9729 10.968 40.704 13.6016C39.261 16.6538 39.2858 19.9274 40.8284 22.9303C43.9633 29.0838 52.6216 30.2652 57.4483 25.2194C63.1459 19.2628 59.7871 9.4419 51.6015 8.11275C49.9594 7.842 49.8848 7.842 48.0685 8.13737Z" fill="white"/>
<path d="M11.9425 12.174C10.375 12.8878 9.20565 14.3154 9.20565 15.5461C9.20565 16.0384 9.40469 16.1861 10.3501 16.4322C10.997 16.6045 12.2659 17.2445 13.2114 17.8352C14.1817 18.4506 15.0276 18.9428 15.152 18.9428C15.2515 18.9428 16.3214 18.4998 17.5156 17.9583C19.0084 17.2691 19.6304 16.8753 19.506 16.6538C18.4362 14.8569 16.819 12.814 16.197 12.4694C15.1022 11.8294 13.0372 11.7064 11.9425 12.174Z" fill="white"/>
<path d="M27.9906 16.2599C22.6663 18.6721 18.1878 20.6904 18.0386 20.7397C17.7649 20.8381 22.6165 24.1118 23.0395 24.1118C23.1887 24.1118 26.2739 22.7826 29.8815 21.1581C35.181 18.7952 36.4747 18.106 36.624 17.6629C36.6987 17.3429 36.9226 16.383 37.0719 15.4969C37.2211 14.6354 37.5695 13.4786 37.8431 12.9371C38.0919 12.3956 38.3159 11.9279 38.3159 11.8787C38.3159 11.6079 36.6987 12.2971 27.9906 16.2599Z" fill="white"/>
<path d="M6.59361 19.5582C5.27497 20.0012 4.08072 21.4042 3.78216 22.8072C3.4836 24.1364 3.88168 26.0316 4.62808 26.8685C4.87688 27.1393 9.95243 30.5852 15.8739 34.4988C24.3331 40.0861 26.8958 41.6614 27.8164 41.8337C28.4632 41.9568 32.6182 42.3014 37.0718 42.5968C41.5253 42.8921 45.1827 43.1383 45.2076 43.1629C45.2573 43.2121 42.3961 43.5321 38.8631 43.9013C35.355 44.2951 32.0957 44.6643 31.623 44.7628L30.7771 44.9105L28.1896 57.7097L25.6269 70.5089L25.7513 122.001L26.4977 123.183C26.9207 123.847 27.7417 124.733 28.3388 125.152C29.2594 125.792 29.6575 125.89 31.3493 125.964C33.1158 126.062 33.4393 125.989 34.5589 125.373C35.2555 125.004 36.1263 124.315 36.4747 123.847C37.8431 122.075 37.8182 122.715 37.8182 96.9442V73.0933L38.6392 73.2656C39.0622 73.3395 39.933 73.5364 40.555 73.6841L41.6746 73.9548L52.174 98.5441C57.9462 112.082 62.8725 123.429 63.1462 123.773C63.395 124.118 64.0916 124.733 64.6638 125.152C65.5347 125.742 66.0074 125.89 67.4504 125.964C69.5155 126.087 70.9336 125.644 72.1279 124.487C73.6456 123.035 74.2676 121.115 73.8944 119.121C73.77 118.506 68.993 107.036 63.2706 93.6459L52.8707 69.2536L55.6572 55.3714C57.2496 47.4703 58.4687 40.7753 58.4936 39.8646C58.5682 37.1079 56.9759 34.548 54.5874 33.5635C54.1395 33.3666 50.6066 32.6035 46.7253 31.8405C40.2067 30.5606 39.5847 30.4867 38.2163 30.7329C36.7235 31.0036 36.3751 31.1267 36.6488 31.3975C36.7235 31.4713 38.888 32.0866 41.4756 32.7266C45.3817 33.7112 45.8793 33.8835 44.5358 33.785C43.6401 33.7358 40.0574 33.4896 36.5742 33.2435L30.2297 32.8004L20.4021 26.2778C15.0031 22.6841 10.2012 19.632 9.72851 19.4843C8.63378 19.1151 7.83762 19.1397 6.59361 19.5582Z" fill="white"/>
<path d="M0.746404 28.7392C0.149281 29.3299 0 29.6991 0 30.5114C0 31.0775 0.124401 31.7421 0.248801 32.0128C0.547363 32.5543 1.76649 33.2189 2.46313 33.2189C3.0105 33.2189 5.97123 32.0128 5.97123 31.7667C5.97123 31.6928 5.44875 31.299 4.77699 30.9052C4.1301 30.5114 3.1349 29.6745 2.56265 29.0838L1.51769 28.0007L0.746404 28.7392Z" fill="white"/>
</svg>
