<svg width="490" height="298" viewBox="0 0 490 298" fill="none" xmlns="http://www.w3.org/2000/svg">
<g filter="url(#filter0_d_636_1574)">
<rect width="482" height="290" rx="19" transform="matrix(-1 0 0 1 486 0)" fill="white"/>
</g>
<path d="M110 5H465C473.837 5 481 12.1634 481 21V269C481 277.837 473.837 285 465 285H110V5Z" fill="url(#paint0_linear_636_1574)"/>
<path d="M187.942 82.1625C187.594 82.2855 181.996 84.7715 178.363 86.4207L176.621 87.2083L178.139 87.7498C179.483 88.2421 180.976 89.0297 182.269 89.9158C182.593 90.162 183.041 90.0389 184.658 89.3251L186.648 88.439L187.22 89.7189C187.544 90.4081 188.464 91.5896 189.236 92.3772C191.624 94.7402 194.212 95.1094 195.754 93.3126C197.944 90.7281 195.605 84.4762 191.724 82.5071C190.729 82.0148 188.838 81.8425 187.942 82.1625Z" fill="white"/>
<path d="M172.069 90.1374C169.108 90.6296 165.973 92.968 164.704 95.6016C163.261 98.6538 163.286 101.927 164.828 104.93C167.963 111.084 176.622 112.265 181.448 107.219C187.146 101.263 183.787 91.4419 175.602 90.1128C173.959 89.842 173.885 89.842 172.069 90.1374Z" fill="white"/>
<path d="M135.942 94.174C134.375 94.8878 133.206 96.3154 133.206 97.5461C133.206 98.0384 133.405 98.1861 134.35 98.4322C134.997 98.6045 136.266 99.2445 137.211 99.8352C138.182 100.451 139.028 100.943 139.152 100.943C139.252 100.943 140.321 100.5 141.516 99.9583C143.008 99.2691 143.63 98.8753 143.506 98.6538C142.436 96.8569 140.819 94.814 140.197 94.4694C139.102 93.8294 137.037 93.7064 135.942 94.174Z" fill="white"/>
<path d="M151.991 98.2599C146.666 100.672 142.188 102.69 142.039 102.74C141.765 102.838 146.617 106.112 147.039 106.112C147.189 106.112 150.274 104.783 153.882 103.158C159.181 100.795 160.475 100.106 160.624 99.6629C160.699 99.3429 160.923 98.383 161.072 97.4969C161.221 96.6354 161.569 95.4786 161.843 94.9371C162.092 94.3956 162.316 93.9279 162.316 93.8787C162.316 93.6079 160.699 94.2971 151.991 98.2599Z" fill="white"/>
<path d="M130.594 101.558C129.275 102.001 128.081 103.404 127.782 104.807C127.484 106.136 127.882 108.032 128.628 108.869C128.877 109.139 133.952 112.585 139.874 116.499C148.333 122.086 150.896 123.661 151.816 123.834C152.463 123.957 156.618 124.301 161.072 124.597C165.525 124.892 169.183 125.138 169.208 125.163C169.257 125.212 166.396 125.532 162.863 125.901C159.355 126.295 156.096 126.664 155.623 126.763L154.777 126.91L152.19 139.71L149.627 152.509L149.751 204.001L150.498 205.183C150.921 205.847 151.742 206.733 152.339 207.152C153.259 207.792 153.657 207.89 155.349 207.964C157.116 208.062 157.439 207.989 158.559 207.373C159.256 207.004 160.126 206.315 160.475 205.847C161.843 204.075 161.818 204.715 161.818 178.944V155.093L162.639 155.266C163.062 155.339 163.933 155.536 164.555 155.684L165.675 155.955L176.174 180.544C181.946 194.082 186.872 205.429 187.146 205.773C187.395 206.118 188.092 206.733 188.664 207.152C189.535 207.742 190.007 207.89 191.45 207.964C193.515 208.087 194.934 207.644 196.128 206.487C197.646 205.035 198.268 203.115 197.894 201.121C197.77 200.506 192.993 189.036 187.271 175.646L176.871 151.254L179.657 137.371C181.25 129.47 182.469 122.775 182.494 121.865C182.568 119.108 180.976 116.548 178.587 115.563C178.14 115.367 174.607 114.604 170.725 113.841C164.207 112.561 163.585 112.487 162.216 112.733C160.723 113.004 160.375 113.127 160.649 113.397C160.723 113.471 162.888 114.087 165.476 114.727C169.382 115.711 169.879 115.883 168.536 115.785C167.64 115.736 164.057 115.49 160.574 115.243L154.23 114.8L144.402 108.278C139.003 104.684 134.201 101.632 133.729 101.484C132.634 101.115 131.838 101.14 130.594 101.558Z" fill="white"/>
<path d="M124.746 110.739C124.149 111.33 124 111.699 124 112.511C124 113.077 124.124 113.742 124.249 114.013C124.547 114.554 125.766 115.219 126.463 115.219C127.01 115.219 129.971 114.013 129.971 113.767C129.971 113.693 129.449 113.299 128.777 112.905C128.13 112.511 127.135 111.674 126.563 111.084L125.518 110.001L124.746 110.739Z" fill="white"/>
<path d="M23 2.5C13.8873 2.5 6.5 9.8873 6.5 19V271C6.5 280.113 13.8873 287.5 23 287.5H107.5V2.5H23Z" fill="url(#paint1_linear_636_1574)" stroke="white" stroke-width="5"/>
<defs>
<filter id="filter0_d_636_1574" x="0" y="0" width="490" height="298" filterUnits="userSpaceOnUse" color-interpolation-filters="sRGB">
<feFlood flood-opacity="0" result="BackgroundImageFix"/>
<feColorMatrix in="SourceAlpha" type="matrix" values="0 0 0 0 0 0 0 0 0 0 0 0 0 0 0 0 0 0 127 0" result="hardAlpha"/>
<feOffset dy="4"/>
<feGaussianBlur stdDeviation="2"/>
<feComposite in2="hardAlpha" operator="out"/>
<feColorMatrix type="matrix" values="0 0 0 0 0 0 0 0 0 0 0 0 0 0 0 0 0 0 0.25 0"/>
<feBlend mode="normal" in2="BackgroundImageFix" result="effect1_dropShadow_636_1574"/>
<feBlend mode="normal" in="SourceGraphic" in2="effect1_dropShadow_636_1574" result="shape"/>
</filter>
<linearGradient id="paint0_linear_636_1574" x1="119.513" y1="8.98105" x2="167.35" y2="318.969" gradientUnits="userSpaceOnUse">
<stop stop-color="#2E335A"/>
<stop offset="1" stop-color="#1C1B33"/>
</linearGradient>
<linearGradient id="paint1_linear_636_1574" x1="57" y1="0" x2="57" y2="290" gradientUnits="userSpaceOnUse">
<stop stop-color="#5DD7F2"/>
<stop offset="1" stop-color="#1C9EBB"/>
</linearGradient>
</defs>
</svg>
