<svg width="99" height="99" viewBox="0 0 99 99" fill="none" xmlns="http://www.w3.org/2000/svg">
<path fill-rule="evenodd" clip-rule="evenodd" d="M19 0C8.50659 0 0 8.50659 0 19V80C0 90.4934 8.50659 99 19 99H80C90.4934 99 99 90.4934 99 80V19C99 8.50659 90.4934 0 80 0H19ZM46.5252 31.1367C43.8586 31.645 41.7481 32.4965 39.5617 33.9707C35.4543 36.7538 32.7498 41.1002 31.9789 46.1327C31.7388 47.6832 31.8146 50.7332 32.1179 52.1693C32.6361 54.5077 33.5839 56.7444 34.8856 58.6506C35.6945 59.8452 37.6534 61.904 38.7781 62.7428L39.6249 63.3782L39.6628 67.2289L39.664 67.37C39.6904 70.4343 39.6974 71.2425 40.1046 71.6636C40.2504 71.8144 40.4477 71.9156 40.7154 72.053L40.7749 72.0836L41.331 72.3759H57.6593L58.2154 72.0836L58.2748 72.0531C58.5426 71.9157 58.7398 71.8144 58.8857 71.6636C59.2929 71.2425 59.2999 70.4342 59.3263 67.3701L59.3275 67.2289L59.3654 63.3782L60.2122 62.7428C61.3243 61.9167 63.2832 59.8452 64.1047 58.6506C65.3937 56.7571 66.4048 54.3933 66.8724 52.1057C67.163 50.7332 67.2642 47.9501 67.0746 46.514C66.6702 43.4131 65.4443 40.3885 63.6244 37.9484C63.3337 37.5545 62.5502 36.6903 61.8804 36.0167C59.5171 33.6529 56.5219 32.0263 53.1222 31.2637C51.8205 30.9587 47.8648 30.8952 46.5252 31.1367ZM50.4809 42.4218C51.6815 41.5195 51.631 39.8547 50.3798 39.1939C49.394 38.6601 47.1318 39.0159 45.0971 40.0326C44.0734 40.541 43.6943 40.8333 42.7212 41.7991C40.9013 43.6164 39.9408 45.6752 39.8018 48.039C39.7386 49.0938 39.7639 49.2209 40.0293 49.6149C40.5095 50.3138 40.9645 50.5807 41.6596 50.5807C42.0766 50.5807 42.38 50.5045 42.6201 50.3138C43.2646 49.8309 43.4542 49.4497 43.5679 48.4076C43.6943 47.1621 43.8712 46.5394 44.2757 45.815C45.312 43.9977 46.8791 43.0064 49.0781 42.7777C49.8111 42.7014 50.2534 42.587 50.4809 42.4218ZM28.2119 67.356C28.5152 66.7206 31.6747 63.6578 32.1929 63.4926C33.0396 63.2384 34.1644 63.5943 34.5688 64.2678C34.8595 64.7508 34.9606 65.4116 34.8216 65.9581C34.7078 66.3647 34.3161 66.835 32.9638 68.2202C32.0033 69.186 31.0807 70.0629 30.8912 70.1646C30.0697 70.5967 28.8185 70.2536 28.3004 69.4656C27.9465 68.9446 27.9086 67.9914 28.2119 67.356ZM43.8201 76.1884C42.8217 76.6078 42.2909 77.4212 42.2909 78.5522C42.2909 79.4927 42.6827 80.2043 43.4536 80.6364L43.997 80.9541L49.2039 80.9923C52.6667 81.0177 54.5876 80.9796 54.9289 80.8906C55.5481 80.7254 56.2938 80.09 56.5213 79.5308C56.9762 78.4379 56.5592 77.0272 55.5987 76.4172L55.1184 76.1249L49.6209 76.0995C46.3224 76.0868 44.0096 76.1249 43.8201 76.1884ZM64.3325 64.433C64.6485 63.9501 65.0655 63.607 65.4826 63.4926C66.5694 63.1749 66.9865 63.3909 68.8695 65.2337C70.7652 67.1145 70.9927 67.4322 71.0054 68.2837C71.0306 69.4656 70.1965 70.3425 69.0591 70.3425C68.7179 70.3425 68.3135 70.279 68.1618 70.2027C67.7448 69.9867 64.5474 66.7841 64.3199 66.352C64.0671 65.8691 64.0671 64.8397 64.3325 64.433ZM71.9655 46.9715C71.043 47.4544 70.6765 48.8905 71.2704 49.7547C71.8897 50.6824 71.9782 50.7078 74.8091 50.7459C77.2608 50.784 77.3872 50.7713 77.9307 50.4918C79.2956 49.7801 79.3714 47.8738 78.057 46.9969C77.6526 46.7173 77.5389 46.7046 75.0366 46.7046C72.6985 46.7173 72.3826 46.7427 71.9655 46.9715ZM64.5092 30.73C64.9768 30.0691 67.6813 27.5147 68.0984 27.3241C68.6671 27.0826 69.1726 27.0953 69.7918 27.3749C70.6891 27.7816 71.1062 28.722 70.8408 29.7006C70.7271 30.1454 70.3858 30.5648 69.0462 31.9373C68.1236 32.8777 67.2263 33.7165 67.0368 33.8182C66.5944 34.0469 65.6339 34.0469 65.1916 33.8182C64.0795 33.2336 63.7635 31.7848 64.5092 30.73ZM48.6099 19.2796C47.5609 19.8261 47.5356 19.9023 47.5356 23.0667C47.5356 26.1295 47.5483 26.1549 48.4077 26.803C48.9005 27.1716 50.0885 27.1716 50.5814 26.803C51.4408 26.1549 51.4534 26.1295 51.4534 23.0667C51.4534 20.4615 51.4408 20.2709 51.188 19.9277C50.8847 19.5083 49.9621 19 49.4945 19C49.3176 19 48.9132 19.1271 48.6099 19.2796ZM28.11 28.6712C28.2996 28.0358 28.7166 27.5274 29.1968 27.3114C29.715 27.0826 30.3216 27.0953 30.8651 27.3241C31.2948 27.502 33.9866 30.0437 34.4795 30.73C35.2252 31.7848 34.9092 33.2336 33.7971 33.8182C33.3547 34.0469 32.3943 34.0469 31.9519 33.8182C31.7624 33.7165 30.8651 32.8777 29.9551 31.9373C28.0847 30.0437 27.8446 29.5989 28.11 28.6712ZM20.9325 46.9969C19.5676 47.9119 19.7319 50.0088 21.2232 50.5807C21.6782 50.7586 22.171 50.784 24.2437 50.7459C27.0114 50.7078 27.0999 50.6824 27.7318 49.742C28.1235 49.1828 28.0856 48.1026 27.6559 47.5052C27.1378 46.7809 26.7965 46.7046 23.9277 46.7046C21.4633 46.7046 21.3369 46.7173 20.9325 46.9969Z" fill="white"/>
</svg>
