<svg width="40" height="24" viewBox="0 0 40 24" fill="none" xmlns="http://www.w3.org/2000/svg">
<path d="M25.4202 15.7684L0 3.2707C9.14454 9.30508 14.4147 12.5833 23.1359 19.0991L15.1564 14.6881L18.7217 22.8949H22.4105L25.4202 15.7684Z" fill="black"/>
<path d="M13.2426 13.6679L6.88366 9.76709V22.8949H13.2426V13.6679Z" fill="black"/>
<path d="M6.88366 3.78081C6.88366 3.85282 5.52545 3.39073 4.84635 3.15067L18.7372 9.87211L14.4464 0H6.88366V3.78081Z" fill="black"/>
<path d="M28.2909 9.42202L26.2227 13.6679L21.6079 11.1624L26.6858 0H34.2022V14.103L29.5102 12.0926C32.9248 13.9312 34.6441 14.7785 38.8634 17.3737C37.0345 16.6172 36.0136 16.0879 34.2022 14.9882V18.544L28.2909 14.9882V9.42202Z" fill="black"/>
<path d="M28.2909 22.8949V17.1487L39.1875 23.375L34.2022 21.3496V22.8949H28.2909Z" fill="black"/>
</svg>
