<svg width="99" height="99" viewBox="0 0 99 99" fill="none" xmlns="http://www.w3.org/2000/svg">
<path fill-rule="evenodd" clip-rule="evenodd" d="M81.468 75.4484L81.4856 75.4352L81.4988 75.4254C81.4886 75.4329 81.4784 75.4406 81.468 75.4484Z" fill="white"/>
<path d="M38.4515 27.6098C37.8874 26.469 36.9688 25.521 35.8889 24.9747C33.1329 23.5928 29.7966 24.7658 28.3783 27.642C28.0076 28.3972 27.9432 28.7185 27.9432 29.8915C27.9593 31.0323 28.0237 31.4019 28.3783 32.141C28.9102 33.2337 29.9417 34.2781 31.0054 34.8565C31.7146 35.2261 31.9886 35.2743 33.423 35.2743C34.8735 35.2743 35.1153 35.2261 35.8889 34.8244C36.9849 34.2459 37.8874 33.314 38.4515 32.1732C38.8383 31.3858 38.9028 31.0645 38.9028 29.8915C38.9028 28.7185 38.8383 28.3972 38.4515 27.6098Z" fill="white"/>
<path fill-rule="evenodd" clip-rule="evenodd" d="M47.2031 39.8858C46.9775 39.7412 46.3328 39.1628 45.7526 38.6165C45.1724 38.0701 44.431 37.1703 44.1086 36.6401L43.5284 35.676L43.0449 36.4312C42.4163 37.3953 40.9336 38.8414 39.7892 39.5966L38.9028 40.1751L43.2544 40.159C47.3804 40.159 47.5899 40.1429 47.2031 39.8858Z" fill="white"/>
<path fill-rule="evenodd" clip-rule="evenodd" d="M57.3247 31.2733C57.2119 29.5219 56.3899 28.2043 54.9232 27.4009C54.2463 27.0474 53.795 26.935 52.8441 26.8707C51.7159 26.8064 51.5709 26.8386 50.5877 27.3527C48.8632 28.2525 47.9606 29.7469 47.9767 31.6911C48.009 34.1495 50.1364 36.2062 52.6507 36.2062C54.6009 36.2062 56.1481 35.194 56.954 33.4104C57.3408 32.5427 57.3892 32.2696 57.3247 31.2733Z" fill="white"/>
<path fill-rule="evenodd" clip-rule="evenodd" d="M50.9745 58.5088C50.5394 57.9785 42.3358 52.0173 41.4171 51.5513C39.9988 50.8282 38.1453 51.5191 37.3556 53.0617C37.0655 53.6241 37.0493 54.09 37.0493 60.4209C37.0493 66.8481 37.0655 67.2177 37.3717 67.8122C38.0325 69.0816 39.6442 69.8207 40.9497 69.4351C41.7394 69.194 50.2976 63.1364 50.9745 62.349C51.3613 61.8831 51.7159 60.9672 51.7159 60.4209C51.7159 59.8746 51.3613 58.9587 50.9745 58.5088Z" fill="white"/>
<path fill-rule="evenodd" clip-rule="evenodd" d="M19 0C8.50659 0 0 8.50659 0 19V80C0 90.4934 8.50659 99 19 99H80C90.4934 99 99 90.4934 99 80V19C99 8.50659 90.4934 0 80 0H19ZM22.2216 26.935C23.2531 22.8858 26.4443 19.7365 30.6186 18.6438C32.1014 18.2582 34.39 18.2261 35.9695 18.5796C37.7907 18.9813 39.8537 20.0417 41.2076 21.2951C42.3519 22.3556 43.5123 23.9302 44.0442 25.1675L44.3343 25.8263L45.5592 24.6051C46.8969 23.2714 48.2991 22.4359 50.0236 21.9217C51.3452 21.5361 54.0207 21.5361 55.3423 21.9217C58.6785 22.9019 61.2895 25.5049 62.2888 28.8471C62.74 30.3735 62.6756 32.9926 62.1437 34.6316C61.4829 36.6401 60.1129 38.4397 58.2434 39.8055L57.7598 40.159L60.4514 40.1751C63.3686 40.1751 64.384 40.3679 65.7701 41.1874C66.8016 41.7819 67.9459 43.0834 68.5261 44.3206C69.0257 45.3651 69.0418 45.4615 69.0902 48.0002L69.1547 50.6193H72.1202L74.9407 47.6307C76.4718 45.9917 77.9707 44.5295 78.2286 44.3688C79.2762 43.7261 80.5978 43.8225 81.5326 44.6099L81.5442 44.6197L81.5582 44.6315C81.6017 44.6682 81.6434 44.7019 81.683 44.7339C81.7687 44.8032 81.8454 44.8653 81.9141 44.9352C82.5017 45.5335 82.5015 46.709 82.4998 57.9403L82.4997 58.706L82.4996 59.9388L82.4998 61.8181L82.4999 62.276L82.4999 63.8471C82.4989 73.4191 82.4619 74.5725 81.8665 75.1391C81.787 75.2147 81.6977 75.2798 81.5972 75.3531C81.5692 75.3735 81.5388 75.3957 81.509 75.4178L81.4988 75.4254L81.4856 75.4352L81.452 75.4606C80.5978 76.1033 79.1312 76.1837 78.2931 75.6534C77.9707 75.4445 76.4557 73.9663 74.9246 72.3434L72.1524 69.419H71.4657H69.1547L69.0902 72.4237L69.084 72.8078C69.0565 74.4853 69.0377 75.1149 68.901 75.6152C68.8885 75.6608 68.8739 75.7094 68.8593 75.7536C68.7827 75.9855 68.6762 76.2078 68.5261 76.5211C67.6235 78.4332 66.1246 79.7347 64.11 80.3614C63.1752 80.6506 62.2565 80.6667 42.7709 80.6667C23.2853 80.6667 22.3666 80.6506 21.4318 80.3614C19.4172 79.7347 17.9183 78.4332 17.0157 76.5211L16.5 75.4445V45.3972L17.0157 44.3206C17.9022 42.4407 19.4494 41.091 21.3835 40.4964C22.2538 40.2233 22.8824 40.1751 25.2677 40.1751H28.1043L27.3791 39.7573C24.9776 38.3915 22.9307 35.6599 22.2055 32.8159C21.7864 31.1609 21.7864 28.606 22.2216 26.935Z" fill="white"/>
</svg>
