<svg width="22" height="35" viewBox="0 0 22 35" fill="none" xmlns="http://www.w3.org/2000/svg">
<path d="M16.9558 19.1002L12.5546 23.2908L16.9786 19.1218C21.0839 15.2476 21.4254 14.9169 21.3723 14.9169C21.3647 14.9169 19.3765 16.8001 16.9558 19.1002Z" fill="white"/>
<path d="M1.79608 0.0380392C0.430167 0.361493 -0.343848 1.76313 0.149397 3.021C0.308753 3.43071 0.521228 3.64635 4.9149 7.81531C8.17032 10.9061 9.61971 12.2358 9.89289 12.3796C10.242 12.5593 10.3482 12.5809 11.0008 12.5809C11.6534 12.5809 11.7596 12.5593 12.1087 12.3796C12.3819 12.2358 13.8313 10.9061 17.0867 7.81531C21.4804 3.64635 21.6928 3.43071 21.8522 3.021C22.2847 1.90688 21.7384 0.656195 20.6001 0.167421C20.3117 0.045227 20.0841 0.00928772 19.6516 0.00928772C18.6499 0.0164756 18.7561 -0.055403 14.6584 3.80448L11.0008 7.26184L7.3356 3.79729C4.39131 1.0084 3.6097 0.30399 3.32134 0.188984C2.88881 0.0164756 2.19067 -0.0482152 1.79608 0.0380392Z" fill="white"/>
<path d="M1.62306 11.2792C0.287502 11.6889 -0.372688 13.1696 0.226795 14.3915C0.4848 14.909 9.4391 23.3763 9.97787 23.6135C10.5015 23.8364 11.1768 23.8795 11.7308 23.7213C12.1709 23.592 12.2468 23.5273 16.8985 19.1283C20.3133 15.9081 21.6716 14.5784 21.793 14.3412C22.0358 13.8884 22.0358 12.9396 21.8006 12.4652C21.5957 12.0339 21.1025 11.5667 20.6471 11.3726C20.1311 11.1426 19.1371 11.1498 18.6666 11.387C18.4389 11.4948 17.1261 12.6808 14.6675 15.0097L11.0023 18.4742L7.3447 15.0097C4.78742 12.6017 3.57327 11.502 3.33803 11.387C2.92067 11.1929 2.07836 11.1354 1.62306 11.2792Z" fill="white"/>
<path d="M1.31865 22.5932C0.445988 22.9957 -0.0472568 23.8007 0.0134503 24.728C0.0362154 25.0514 0.112099 25.3461 0.218337 25.5546C0.339751 25.7846 1.75878 27.1718 4.99143 30.2482C10.1667 35.1504 9.96941 34.9994 11.0014 34.9994C12.041 34.9994 11.8362 35.1576 17.0418 30.2123C21.4355 26.0434 21.6935 25.7846 21.8452 25.3893C22.2778 24.2608 21.7618 23.0532 20.6311 22.5716C20.2137 22.3991 20.0999 22.3775 19.546 22.4063C19.1058 22.4279 18.8327 22.4854 18.5898 22.6004C18.3546 22.7154 17.1253 23.8295 14.6287 26.1871L11.0014 29.6157L7.38177 26.1871C4.88519 23.8367 3.64829 22.7154 3.41305 22.6004C3.16263 22.4782 2.90463 22.4279 2.42656 22.4135C1.83466 22.3847 1.7436 22.3991 1.31865 22.5932Z" fill="white"/>
</svg>
