<svg width="88" height="88" viewBox="0 0 88 88" fill="none" xmlns="http://www.w3.org/2000/svg">
<g filter="url(#filter0_di_978_53)">
<mask id="path-1-inside-1_978_53" fill="white">
<path fill-rule="evenodd" clip-rule="evenodd" d="M33.228 6.76246C27.7235 7.47759 22.6836 9.58719 18.2752 12.9959C16.8812 14.0805 14.5102 16.4166 13.3545 17.8468C10.0661 21.923 7.88569 26.7382 6.95635 31.9824C6.62274 33.8417 6.49168 38.3112 6.70615 40.3493C7.21847 45.1049 8.8746 49.7651 11.4481 53.7221C12.6158 55.5099 13.6404 56.7852 15.237 58.4181C20.2292 63.5431 26.532 66.6419 33.7046 67.4763C35.3011 67.667 39.1853 67.6312 40.9129 67.4286C49.825 66.3201 57.784 61.3262 62.7523 53.7221C65.2544 49.8962 66.8509 45.4982 67.4228 40.9095C67.6611 38.9787 67.6611 35.2243 67.4228 33.2815C66.3267 24.4379 61.3464 16.4524 53.8402 11.518C49.9203 8.94358 45.5596 7.34648 40.9129 6.76246C39.1019 6.54793 34.9437 6.54793 33.228 6.76246ZM31.1102 25.2474C31.327 24.0909 32.2594 23.1223 33.3292 22.9416C33.8279 22.8621 33.8568 22.8621 34.3266 22.9488C35.5336 23.1729 36.4227 24.1126 36.6034 25.3631C36.6395 25.6377 36.6756 26.946 36.6756 28.2688V30.2899C36.6756 30.4685 36.859 30.5884 37.0226 30.5168C37.2972 30.3867 37.4996 30.3578 38.1212 30.3505C38.8079 30.3505 38.9235 30.3722 39.3138 30.5529C40.1884 30.9577 40.8389 31.854 40.9184 32.7648L40.9189 32.7709C40.9362 32.9679 41.1443 33.0875 41.3232 33.0033C42.3278 32.519 43.8023 32.837 44.5612 33.6972C44.8865 34.0658 45.19 34.7525 45.2479 35.2368C45.2912 35.6416 45.2985 35.6488 45.4502 35.5548C45.7827 35.338 46.4477 35.2079 46.9898 35.2513C48.3125 35.3525 49.3461 36.3138 49.5484 37.6438C49.599 37.9546 49.6135 39.7544 49.5918 42.7686C49.5629 47.1128 49.5557 47.4525 49.4183 48.0669C49.2376 48.8475 48.9774 49.592 48.8618 49.6354C47.9655 50.0113 47.1488 50.3076 46.4621 50.5172C45.5442 50.7919 45.2768 50.9726 45.2768 51.3196C45.2768 51.5653 45.5803 51.8545 45.8333 51.8545C45.9417 51.8545 46.4694 51.7171 46.9898 51.5509C47.5174 51.3846 47.9655 51.269 47.9872 51.2907C48.0595 51.3557 47.6403 52.6279 47.3873 53.1194C46.932 53.9868 46.0068 54.7963 45.0021 55.2083C43.9975 55.6131 43.8384 55.6204 39.6752 55.5914L39.251 55.5886C36.4341 55.5702 35.7259 55.5656 35.0926 55.3455C34.8799 55.2715 34.6757 55.1733 34.4029 55.042L34.2977 54.9915C33.7411 54.7168 33.5171 54.5578 33.0256 54.0735C32.0715 53.1266 31.7173 52.2448 31.6378 50.6329C31.5945 49.7944 31.6017 49.7366 31.7173 49.78C31.7896 49.8089 32.2233 50.1052 32.6859 50.4377C33.1557 50.7702 33.6038 51.0594 33.6905 51.0883C33.8785 51.1461 34.2543 50.9798 34.3194 50.8064C34.341 50.7413 34.3627 50.5967 34.3627 50.4811C34.3627 50.2281 34.2254 50.1125 32.4835 48.8909C30.944 47.8067 30.5031 47.4742 30.0911 47.0694C29.7297 46.7152 28.8262 45.4069 28.1468 44.2648C27.3517 42.9204 26.2097 41.3519 24.7136 39.5304C23.5282 38.0919 23.521 38.0703 23.6655 37.3764C23.7739 36.827 24.2148 36.3355 24.8943 35.9958C25.5809 35.656 26.0796 35.5621 26.9542 35.6127C28.2841 35.685 29.4912 36.2343 30.5031 37.2173C30.7028 37.4117 31.0379 37.2702 31.0379 36.9915V31.6878C31.0379 27.9363 31.0668 25.4859 31.1102 25.2474ZM26.9614 24.9366C26.7157 25.1896 26.7084 25.5365 26.947 25.8112C27.1204 26.0136 27.1204 26.0136 28.1829 26.0353C28.7683 26.0497 29.3249 26.0425 29.4189 26.0208C29.8887 25.8979 30.0477 25.2546 29.6935 24.9294C29.5056 24.7559 29.4695 24.7487 28.3275 24.7487C27.4079 24.7487 27.2105 24.7487 27.0736 24.8397C27.0362 24.8646 27.0033 24.8962 26.9614 24.9366ZM28.6238 21.2502C28.5516 21.0333 28.7178 20.6358 28.9274 20.5201C29.3538 20.2888 29.5707 20.4045 30.4452 21.308C31.0668 21.9441 31.1102 22.0164 31.1102 22.291C31.1102 22.6886 30.8645 22.9416 30.4814 22.9416C30.2284 22.9416 30.1489 22.8838 29.4406 22.1609C29.0141 21.7345 28.6527 21.3225 28.6238 21.2502ZM33.7122 18.7494C33.5026 18.959 33.4809 19.1252 33.5099 20.3034C33.5265 21.1193 33.5304 21.3087 33.6229 21.4312C33.6508 21.4682 33.6869 21.4992 33.7339 21.5395C34.0086 21.778 34.3555 21.7708 34.6085 21.525C34.6485 21.4835 34.68 21.4508 34.7047 21.4136C34.7964 21.2762 34.7964 21.0776 34.7964 20.1444C34.7964 18.9807 34.7964 18.959 34.6157 18.7855C34.3916 18.5542 33.9218 18.5398 33.7122 18.7494ZM36.6106 22.1176C36.6757 21.8863 37.7092 20.7803 38.0851 20.549C38.3453 20.3828 38.4971 20.3756 38.7645 20.5201C39.003 20.643 39.0609 20.7587 39.0609 21.1201C39.0609 21.3514 38.9886 21.4526 38.2802 22.1609C37.6081 22.8332 37.4707 22.9416 37.2611 22.9416C37.131 22.9416 36.9648 22.9054 36.8853 22.8621C36.6684 22.7464 36.5383 22.385 36.6106 22.1176ZM38.0706 24.8572C37.7092 25.1101 37.7381 25.7462 38.1284 25.9486C38.3091 26.0354 38.5549 26.057 39.4656 26.0354C40.716 26.0137 40.8316 25.9631 40.9111 25.4643C40.9473 25.2619 40.9184 25.168 40.7593 24.98C40.6356 24.8334 40.4535 24.7487 40.2616 24.7487H39.3933C38.4754 24.7487 38.1935 24.7704 38.0706 24.8572Z"/>
<path fill-rule="evenodd" clip-rule="evenodd" d="M39.311 55.589C39.2909 55.5889 39.2709 55.5888 39.251 55.5886C39.2028 55.5883 39.1552 55.588 39.1082 55.5877C39.1746 55.5881 39.2422 55.5886 39.311 55.589Z"/>
</mask>
<path fill-rule="evenodd" clip-rule="evenodd" d="M33.228 6.76246C27.7235 7.47759 22.6836 9.58719 18.2752 12.9959C16.8812 14.0805 14.5102 16.4166 13.3545 17.8468C10.0661 21.923 7.88569 26.7382 6.95635 31.9824C6.62274 33.8417 6.49168 38.3112 6.70615 40.3493C7.21847 45.1049 8.8746 49.7651 11.4481 53.7221C12.6158 55.5099 13.6404 56.7852 15.237 58.4181C20.2292 63.5431 26.532 66.6419 33.7046 67.4763C35.3011 67.667 39.1853 67.6312 40.9129 67.4286C49.825 66.3201 57.784 61.3262 62.7523 53.7221C65.2544 49.8962 66.8509 45.4982 67.4228 40.9095C67.6611 38.9787 67.6611 35.2243 67.4228 33.2815C66.3267 24.4379 61.3464 16.4524 53.8402 11.518C49.9203 8.94358 45.5596 7.34648 40.9129 6.76246C39.1019 6.54793 34.9437 6.54793 33.228 6.76246ZM31.1102 25.2474C31.327 24.0909 32.2594 23.1223 33.3292 22.9416C33.8279 22.8621 33.8568 22.8621 34.3266 22.9488C35.5336 23.1729 36.4227 24.1126 36.6034 25.3631C36.6395 25.6377 36.6756 26.946 36.6756 28.2688V30.2899C36.6756 30.4685 36.859 30.5884 37.0226 30.5168C37.2972 30.3867 37.4996 30.3578 38.1212 30.3505C38.8079 30.3505 38.9235 30.3722 39.3138 30.5529C40.1884 30.9577 40.8389 31.854 40.9184 32.7648L40.9189 32.7709C40.9362 32.9679 41.1443 33.0875 41.3232 33.0033C42.3278 32.519 43.8023 32.837 44.5612 33.6972C44.8865 34.0658 45.19 34.7525 45.2479 35.2368C45.2912 35.6416 45.2985 35.6488 45.4502 35.5548C45.7827 35.338 46.4477 35.2079 46.9898 35.2513C48.3125 35.3525 49.3461 36.3138 49.5484 37.6438C49.599 37.9546 49.6135 39.7544 49.5918 42.7686C49.5629 47.1128 49.5557 47.4525 49.4183 48.0669C49.2376 48.8475 48.9774 49.592 48.8618 49.6354C47.9655 50.0113 47.1488 50.3076 46.4621 50.5172C45.5442 50.7919 45.2768 50.9726 45.2768 51.3196C45.2768 51.5653 45.5803 51.8545 45.8333 51.8545C45.9417 51.8545 46.4694 51.7171 46.9898 51.5509C47.5174 51.3846 47.9655 51.269 47.9872 51.2907C48.0595 51.3557 47.6403 52.6279 47.3873 53.1194C46.932 53.9868 46.0068 54.7963 45.0021 55.2083C43.9975 55.6131 43.8384 55.6204 39.6752 55.5914L39.251 55.5886C36.4341 55.5702 35.7259 55.5656 35.0926 55.3455C34.8799 55.2715 34.6757 55.1733 34.4029 55.042L34.2977 54.9915C33.7411 54.7168 33.5171 54.5578 33.0256 54.0735C32.0715 53.1266 31.7173 52.2448 31.6378 50.6329C31.5945 49.7944 31.6017 49.7366 31.7173 49.78C31.7896 49.8089 32.2233 50.1052 32.6859 50.4377C33.1557 50.7702 33.6038 51.0594 33.6905 51.0883C33.8785 51.1461 34.2543 50.9798 34.3194 50.8064C34.341 50.7413 34.3627 50.5967 34.3627 50.4811C34.3627 50.2281 34.2254 50.1125 32.4835 48.8909C30.944 47.8067 30.5031 47.4742 30.0911 47.0694C29.7297 46.7152 28.8262 45.4069 28.1468 44.2648C27.3517 42.9204 26.2097 41.3519 24.7136 39.5304C23.5282 38.0919 23.521 38.0703 23.6655 37.3764C23.7739 36.827 24.2148 36.3355 24.8943 35.9958C25.5809 35.656 26.0796 35.5621 26.9542 35.6127C28.2841 35.685 29.4912 36.2343 30.5031 37.2173C30.7028 37.4117 31.0379 37.2702 31.0379 36.9915V31.6878C31.0379 27.9363 31.0668 25.4859 31.1102 25.2474ZM26.9614 24.9366C26.7157 25.1896 26.7084 25.5365 26.947 25.8112C27.1204 26.0136 27.1204 26.0136 28.1829 26.0353C28.7683 26.0497 29.3249 26.0425 29.4189 26.0208C29.8887 25.8979 30.0477 25.2546 29.6935 24.9294C29.5056 24.7559 29.4695 24.7487 28.3275 24.7487C27.4079 24.7487 27.2105 24.7487 27.0736 24.8397C27.0362 24.8646 27.0033 24.8962 26.9614 24.9366ZM28.6238 21.2502C28.5516 21.0333 28.7178 20.6358 28.9274 20.5201C29.3538 20.2888 29.5707 20.4045 30.4452 21.308C31.0668 21.9441 31.1102 22.0164 31.1102 22.291C31.1102 22.6886 30.8645 22.9416 30.4814 22.9416C30.2284 22.9416 30.1489 22.8838 29.4406 22.1609C29.0141 21.7345 28.6527 21.3225 28.6238 21.2502ZM33.7122 18.7494C33.5026 18.959 33.4809 19.1252 33.5099 20.3034C33.5265 21.1193 33.5304 21.3087 33.6229 21.4312C33.6508 21.4682 33.6869 21.4992 33.7339 21.5395C34.0086 21.778 34.3555 21.7708 34.6085 21.525C34.6485 21.4835 34.68 21.4508 34.7047 21.4136C34.7964 21.2762 34.7964 21.0776 34.7964 20.1444C34.7964 18.9807 34.7964 18.959 34.6157 18.7855C34.3916 18.5542 33.9218 18.5398 33.7122 18.7494ZM36.6106 22.1176C36.6757 21.8863 37.7092 20.7803 38.0851 20.549C38.3453 20.3828 38.4971 20.3756 38.7645 20.5201C39.003 20.643 39.0609 20.7587 39.0609 21.1201C39.0609 21.3514 38.9886 21.4526 38.2802 22.1609C37.6081 22.8332 37.4707 22.9416 37.2611 22.9416C37.131 22.9416 36.9648 22.9054 36.8853 22.8621C36.6684 22.7464 36.5383 22.385 36.6106 22.1176ZM38.0706 24.8572C37.7092 25.1101 37.7381 25.7462 38.1284 25.9486C38.3091 26.0354 38.5549 26.057 39.4656 26.0354C40.716 26.0137 40.8316 25.9631 40.9111 25.4643C40.9473 25.2619 40.9184 25.168 40.7593 24.98C40.6356 24.8334 40.4535 24.7487 40.2616 24.7487H39.3933C38.4754 24.7487 38.1935 24.7704 38.0706 24.8572Z" fill="url(#paint0_linear_978_53)"/>
<path fill-rule="evenodd" clip-rule="evenodd" d="M39.311 55.589C39.2909 55.5889 39.2709 55.5888 39.251 55.5886C39.2028 55.5883 39.1552 55.588 39.1082 55.5877C39.1746 55.5881 39.2422 55.5886 39.311 55.589Z" fill="url(#paint1_linear_978_53)"/>
<path d="M33.7006 21.5107L34.1359 21.0144L34.1359 21.0144L33.7006 21.5107ZM33.6229 21.4312L33.096 21.829C33.1592 21.9126 33.2266 21.973 33.2654 22.0071L33.7006 21.5107L34.1359 21.0144C34.1308 21.01 34.1278 21.0072 34.126 21.0056C34.1243 21.004 34.1245 21.0041 34.1259 21.0056C34.129 21.0087 34.1383 21.0183 34.1497 21.0334L33.6229 21.4312ZM33.7339 21.5395L34.1635 21.0383C34.1512 21.0277 34.143 21.0207 34.1359 21.0144L33.7006 21.5107L33.2654 22.0071C33.2791 22.0191 33.2931 22.0311 33.3043 22.0407L33.7339 21.5395ZM33.228 6.76246L33.0642 5.45238L33.0579 5.4532L33.228 6.76246ZM18.2752 12.9959L17.4676 11.9515L17.4645 11.9539L18.2752 12.9959ZM13.3545 17.8468L12.3276 17.017L12.3269 17.0179L13.3545 17.8468ZM6.95635 31.9824L8.25587 32.2156L8.25637 32.2128L6.95635 31.9824ZM6.70615 40.3493L5.39312 40.4875L5.39347 40.4907L6.70615 40.3493ZM11.4481 53.7221L10.3414 54.4419L10.3427 54.444L11.4481 53.7221ZM15.237 58.4181L16.1827 57.4968L16.181 57.495L15.237 58.4181ZM33.7046 67.4763L33.8612 66.1653L33.8571 66.1648L33.7046 67.4763ZM40.9129 67.4286L41.0667 68.7399L41.0759 68.7388L40.9129 67.4286ZM62.7523 53.7221L61.6474 52.9995L61.6471 52.9999L62.7523 53.7221ZM67.4228 40.9095L68.733 41.0728L68.7332 41.0712L67.4228 40.9095ZM67.4228 33.2815L68.7333 33.1208L68.7331 33.1191L67.4228 33.2815ZM53.8402 11.518L54.5655 10.4148L54.565 10.4145L53.8402 11.518ZM40.9129 6.76246L41.0776 5.45247L41.0682 5.45136L40.9129 6.76246ZM31.1102 25.2474L29.8125 25.0041L29.8112 25.0112L31.1102 25.2474ZM33.3292 22.9416L33.1213 21.6378L33.1092 21.6398L33.3292 22.9416ZM34.3266 22.9488L34.5676 21.6508L34.5663 21.6505L34.3266 22.9488ZM36.6034 25.3631L37.9124 25.1908L37.9113 25.1825L37.9101 25.1742L36.6034 25.3631ZM37.0226 30.5168L37.5518 31.7263L37.5699 31.7184L37.5878 31.7099L37.0226 30.5168ZM38.1212 30.3505V29.0303H38.1135L38.1059 29.0303L38.1212 30.3505ZM39.3138 30.5529L38.7591 31.751L38.7593 31.7511L39.3138 30.5529ZM40.9184 32.7648L39.6031 32.8796L39.6032 32.8801L40.9184 32.7648ZM41.3232 33.0033L41.8854 34.1979L41.8964 34.1926L41.3232 33.0033ZM44.5612 33.6972L45.5512 32.8237V32.8237L44.5612 33.6972ZM45.2479 35.2368L46.5606 35.0962L46.5598 35.0882L46.5588 35.0803L45.2479 35.2368ZM45.4502 35.5548L46.1452 36.6774L46.1585 36.6692L46.1715 36.6607L45.4502 35.5548ZM46.9898 35.2513L46.8845 36.5673L46.8891 36.5677L46.9898 35.2513ZM49.5484 37.6438L48.2431 37.8424L48.2453 37.8559L49.5484 37.6438ZM49.5918 42.7686L48.2716 42.7591L48.2716 42.7598L49.5918 42.7686ZM49.4183 48.0669L50.7046 48.3646L50.7068 48.3549L49.4183 48.0669ZM48.8618 49.6354L48.3982 48.3992L48.3745 48.4081L48.3512 48.4179L48.8618 49.6354ZM46.4621 50.5172L46.8406 51.7821L46.8476 51.78L46.4621 50.5172ZM46.9898 51.5509L46.593 50.2916L46.588 50.2932L46.9898 51.5509ZM47.9872 51.2907L47.0536 52.2242L47.0782 52.2488L47.104 52.272L47.9872 51.2907ZM47.3873 53.1194L48.5563 53.7331L48.5612 53.7236L47.3873 53.1194ZM45.0021 55.2083L45.4955 56.433L45.5031 56.4299L45.0021 55.2083ZM39.6752 55.5914L39.6844 54.2712L39.6839 54.2712L39.6752 55.5914ZM35.0926 55.3455L34.659 56.5925L34.659 56.5925L35.0926 55.3455ZM34.4029 55.042L34.9752 53.8523L34.9747 53.852L34.4029 55.042ZM34.2977 54.9915L33.7133 56.1755L33.7258 56.1815L34.2977 54.9915ZM33.0256 54.0735L32.0955 55.0106L32.0989 55.014L33.0256 54.0735ZM31.6378 50.6329L32.9565 50.5678L32.9563 50.5647L31.6378 50.6329ZM31.7173 49.78L32.2077 48.5541L32.1944 48.5488L32.1809 48.5438L31.7173 49.78ZM32.6859 50.4377L31.9153 51.5098L31.9232 51.5154L32.6859 50.4377ZM33.6905 51.0883L33.273 52.3408L33.2876 52.3456L33.3022 52.3501L33.6905 51.0883ZM34.3194 50.8064L35.5556 51.2699L35.5642 51.247L35.5719 51.2239L34.3194 50.8064ZM32.4835 48.8909L31.7233 49.9703L31.7254 49.9719L32.4835 48.8909ZM30.0911 47.0694L31.0164 46.1276L31.0152 46.1264L30.0911 47.0694ZM28.1468 44.2648L27.0104 44.9369L27.0121 44.9399L28.1468 44.2648ZM24.7136 39.5304L25.7338 38.6924L25.7324 38.6907L24.7136 39.5304ZM23.6655 37.3764L24.9581 37.6456L24.9608 37.632L23.6655 37.3764ZM24.8943 35.9958L24.3088 34.8124L24.3038 34.8149L24.8943 35.9958ZM26.9542 35.6127L26.8779 36.9307L26.8825 36.931L26.9542 35.6127ZM30.5031 37.2173L31.4238 36.2711L31.423 36.2704L30.5031 37.2173ZM26.9614 24.9366L26.0456 23.9856L26.0297 24.0009L26.0144 24.0167L26.9614 24.9366ZM26.947 25.8112L27.9494 24.952L27.9438 24.9455L26.947 25.8112ZM28.1829 26.0353L28.2155 24.7154L28.2098 24.7153L28.1829 26.0353ZM29.4189 26.0208L29.7158 27.3073L29.7344 27.303L29.753 27.2981L29.4189 26.0208ZM29.6935 24.9294L28.798 25.8995L28.8005 25.9018L29.6935 24.9294ZM27.0736 24.8397L26.3427 23.7402L26.3426 23.7402L27.0736 24.8397ZM28.6238 21.2502L27.3713 21.6677L27.3836 21.7045L27.398 21.7405L28.6238 21.2502ZM28.9274 20.5201L28.2979 19.3596L28.2896 19.3641L28.9274 20.5201ZM30.4452 21.308L29.4966 22.2263L29.501 22.2308L30.4452 21.308ZM29.4406 22.1609L30.3836 21.2368L30.3742 21.2274L29.4406 22.1609ZM33.5099 20.3034L34.8299 20.2765L34.8297 20.2711L33.5099 20.3034ZM33.6229 21.4312L34.6765 20.6357L34.6765 20.6356L33.6229 21.4312ZM33.7339 21.5395L34.5996 20.5426L34.5932 20.5371L33.7339 21.5395ZM34.6085 21.525L35.5285 22.472L35.5442 22.4567L35.5595 22.4408L34.6085 21.525ZM34.7047 21.4136L35.8032 22.1461L35.8032 22.1461L34.7047 21.4136ZM34.6157 18.7855L33.6674 19.7041L33.6841 19.7213L33.7014 19.7379L34.6157 18.7855ZM36.6106 22.1176L35.3396 21.7601L35.3361 21.7731L36.6106 22.1176ZM38.0851 20.549L38.7771 21.6735L38.7866 21.6676L38.7959 21.6616L38.0851 20.549ZM38.7645 20.5201L38.1367 21.6816L38.1482 21.6878L38.1599 21.6938L38.7645 20.5201ZM38.2802 22.1609L39.2138 23.0945V23.0945L38.2802 22.1609ZM36.8853 22.8621L37.5175 21.703L37.5066 21.6971L36.8853 22.8621ZM38.0706 24.8572L38.8277 25.9388L38.832 25.9358L38.0706 24.8572ZM38.1284 25.9486L37.5206 27.1207L37.5387 27.1301L37.5571 27.1389L38.1284 25.9486ZM39.4656 26.0354L39.4427 24.7153L39.4341 24.7155L39.4656 26.0354ZM40.9111 25.4643L39.6114 25.2322L39.6093 25.2443L39.6073 25.2565L40.9111 25.4643ZM40.7593 24.98L39.7503 25.8314L39.7514 25.8328L40.7593 24.98ZM39.311 55.589L39.3025 56.9093L39.3196 54.2688L39.311 55.589ZM39.1082 55.5877L39.1169 54.2675L39.0996 56.908L39.1082 55.5877ZM40.9189 32.7709L39.6037 32.8863L40.9189 32.7709ZM33.228 6.76246L33.0579 5.4532C27.3182 6.19887 22.0589 8.40132 17.4676 11.9515L18.2752 12.9959L19.0828 14.0404C23.3083 10.7731 28.1287 8.7563 33.3981 8.07173L33.228 6.76246ZM18.2752 12.9959L17.4645 11.9539C15.9878 13.1029 13.5447 15.5107 12.3276 17.017L13.3545 17.8468L14.3814 18.6766C15.4757 17.3225 17.7746 15.0582 19.0859 14.038L18.2752 12.9959ZM13.3545 17.8468L12.3269 17.0179C8.89631 21.2703 6.62389 26.2921 5.65634 31.752L6.95635 31.9824L8.25637 32.2128C9.14749 27.1842 11.2358 22.5758 14.3821 18.6758L13.3545 17.8468ZM6.95635 31.9824L5.65683 31.7492C5.47198 32.7795 5.35407 34.4424 5.30603 36.0596C5.25784 37.6821 5.27651 39.3792 5.39312 40.4875L6.70615 40.3493L8.01917 40.2112C7.92132 39.2813 7.89829 37.7247 7.94541 36.138C7.9927 34.5461 8.10712 33.0446 8.25587 32.2156L6.95635 31.9824ZM6.70615 40.3493L5.39347 40.4907C5.92782 45.4507 7.65367 50.3094 10.3414 54.4419L11.4481 53.7221L12.5549 53.0023C10.0955 49.2208 8.50912 44.759 8.01882 40.2079L6.70615 40.3493ZM11.4481 53.7221L10.3427 54.444C11.5595 56.307 12.6388 57.6493 14.293 59.3411L15.237 58.4181L16.181 57.495C14.642 55.9211 13.6721 54.7127 12.5536 53.0001L11.4481 53.7221ZM15.237 58.4181L14.2912 59.3393C19.4963 64.6829 26.0798 67.9185 33.552 68.7877L33.7046 67.4763L33.8571 66.1648C26.9842 65.3654 20.962 62.4033 16.1827 57.4968L15.237 58.4181ZM33.7046 67.4763L33.548 68.7872C35.2622 68.992 39.2516 68.9527 41.0667 68.7399L40.9129 67.4286L40.7591 66.1173C39.1189 66.3097 35.3401 66.3419 33.8612 66.1653L33.7046 67.4763ZM40.9129 67.4286L41.0759 68.7388C50.3781 67.5818 58.6796 62.3693 63.8576 54.4443L62.7523 53.7221L61.6471 52.9999C56.8883 60.2832 49.2719 65.0585 40.75 66.1184L40.9129 67.4286ZM62.7523 53.7221L63.8573 54.4447C66.4718 50.4469 68.1367 45.8569 68.733 41.0728L67.4228 40.9095L66.1127 40.7462C65.5652 45.1395 64.037 49.3455 61.6474 52.9995L62.7523 53.7221ZM67.4228 40.9095L68.7332 41.0712C68.9848 39.0327 68.9846 35.17 68.7333 33.1208L67.4228 33.2815L66.1124 33.4423C66.3376 35.2786 66.3375 38.9247 66.1125 40.7478L67.4228 40.9095ZM67.4228 33.2815L68.7331 33.1191C67.5889 23.8882 62.3926 15.5601 54.5655 10.4148L53.8402 11.518L53.115 12.6213C60.3002 17.3446 65.0645 24.9875 66.1126 33.4439L67.4228 33.2815ZM53.8402 11.518L54.565 10.4145C50.4752 7.72845 45.9226 6.06144 41.0775 5.4525L40.9129 6.76246L40.7483 8.07243C45.1966 8.63152 49.3655 10.1587 53.1155 12.6216L53.8402 11.518ZM40.9129 6.76246L41.0682 5.45136C39.157 5.22495 34.8915 5.22391 33.0642 5.4524L33.228 6.76246L33.3918 8.07253C34.9959 7.87195 39.0468 7.87091 40.7576 8.07357L40.9129 6.76246ZM31.1102 25.2474L32.4079 25.4907C32.5341 24.8175 33.0833 24.3221 33.5491 24.2434L33.3292 22.9416L33.1092 21.6398C31.4356 21.9225 30.12 23.3643 29.8125 25.0041L31.1102 25.2474ZM33.3292 22.9416L33.537 24.2454C33.6665 24.2248 33.7377 24.2139 33.7899 24.2075C33.835 24.202 33.8401 24.2032 33.8294 24.2031C33.8175 24.203 33.8189 24.2016 33.8557 24.2069C33.9013 24.2134 33.9647 24.2246 34.0869 24.2472L34.3266 22.9488L34.5663 21.6505C34.3596 21.6124 34.1147 21.5645 33.848 21.5626C33.588 21.5608 33.3388 21.6031 33.1213 21.6378L33.3292 22.9416ZM34.3266 22.9488L34.0856 24.2469C34.7178 24.3643 35.1941 24.8423 35.2967 25.5519L36.6034 25.3631L37.9101 25.1742C37.6512 23.3829 36.3495 21.9815 34.5676 21.6508L34.3266 22.9488ZM36.6034 25.3631L35.2944 25.5353C35.2934 25.5279 35.2957 25.5454 35.2997 25.6031C35.3032 25.6549 35.3071 25.7233 35.3111 25.8083C35.319 25.9782 35.3266 26.199 35.3332 26.4569C35.3465 26.9719 35.3554 27.6183 35.3554 28.2688H36.6756H37.9959C37.9959 26.9797 37.9624 25.571 37.9124 25.1908L36.6034 25.3631ZM36.6756 28.2688H35.3554V30.2899H36.6756H37.9959V28.2688H36.6756ZM37.0226 30.5168L37.5878 31.7099C37.6156 31.6968 37.6221 31.6954 37.618 31.6966C37.6129 31.6982 37.6161 31.6965 37.6377 31.6932C37.7013 31.6837 37.8261 31.6743 38.1366 31.6707L38.1212 30.3505L38.1059 29.0303C37.4597 29.0379 37.0084 29.0626 36.4574 29.3236L37.0226 30.5168ZM38.1212 30.3505V31.6708C38.2903 31.6708 38.4024 31.6722 38.4859 31.6758C38.5671 31.6793 38.5982 31.684 38.6057 31.6853C38.6062 31.6854 38.6041 31.6844 38.6133 31.6877C38.6325 31.6946 38.6696 31.7096 38.7591 31.751L39.3138 30.5529L39.8685 29.3548C39.6483 29.2529 39.3928 29.1411 39.0515 29.0826C38.7593 29.0326 38.4466 29.0303 38.1212 29.0303V30.3505ZM39.3138 30.5529L38.7593 31.7511C39.2334 31.9705 39.5675 32.4711 39.6031 32.8796L40.9184 32.7648L42.2337 32.6499C42.1103 31.2369 41.1434 29.9449 39.8684 29.3548L39.3138 30.5529ZM40.9184 32.7648L39.6032 32.8801L39.6037 32.8863L40.9189 32.7709L42.2341 32.6556L42.2336 32.6494L40.9184 32.7648ZM41.3232 33.0033L41.8964 34.1926C42.0807 34.1038 42.3906 34.0582 42.7572 34.1369C43.1216 34.2152 43.4107 34.3887 43.5712 34.5707L44.5612 33.6972L45.5512 32.8237C44.9529 32.1455 44.1253 31.73 43.3115 31.5552C42.5 31.381 41.5703 31.4185 40.7499 31.814L41.3232 33.0033ZM44.5612 33.6972L43.5712 34.5707C43.6176 34.6233 43.7094 34.7598 43.7985 34.9602C43.8874 35.1601 43.9283 35.3216 43.9369 35.3933L45.2479 35.2368L46.5588 35.0803C46.5096 34.6677 46.3698 34.2437 46.2112 33.8871C46.0527 33.5308 45.8301 33.1398 45.5512 32.8237L44.5612 33.6972ZM45.2479 35.2368L43.9351 35.3774C43.945 35.4696 43.9573 35.5841 43.9734 35.6828C43.9788 35.7164 44.0169 36.0161 44.1986 36.298C44.3187 36.4844 44.5408 36.7269 44.9024 36.851C45.2478 36.9696 45.547 36.9195 45.7092 36.8752C45.8648 36.8326 45.9813 36.7712 46.0276 36.7462C46.0806 36.7175 46.1275 36.6883 46.1452 36.6774L45.4502 35.5548L44.7553 34.4323C44.735 34.4448 44.7485 34.436 44.7719 34.4233C44.7886 34.4143 44.8793 34.3646 45.0122 34.3283C45.1517 34.2901 45.4313 34.2408 45.7595 34.3535C46.1039 34.4717 46.3112 34.7016 46.4182 34.8677C46.5136 35.0157 46.551 35.144 46.562 35.1829C46.5695 35.2097 46.574 35.23 46.5762 35.2407C46.5774 35.2465 46.5782 35.2509 46.5787 35.2536C46.5792 35.2564 46.5795 35.2579 46.5795 35.2581C46.5795 35.2582 46.579 35.2548 46.5779 35.2467C46.5768 35.2387 46.5754 35.2279 46.5737 35.2134C46.5701 35.1836 46.566 35.1463 46.5606 35.0962L45.2479 35.2368ZM45.4502 35.5548L46.1715 36.6607C46.1439 36.6787 46.1474 36.6716 46.1991 36.6531C46.2463 36.6362 46.3131 36.6173 46.3963 36.6009C46.5689 36.5669 46.7488 36.5565 46.8845 36.5673L46.9898 35.2513L47.0951 33.9352C46.6887 33.9027 46.265 33.9356 45.8866 34.01C45.5285 34.0805 45.0944 34.2107 44.729 34.449L45.4502 35.5548ZM46.9898 35.2513L46.8891 36.5677C47.5923 36.6215 48.1322 37.1132 48.2432 37.8424L49.5484 37.6438L50.8537 37.4452C50.5599 35.5144 49.0327 34.0834 47.0905 33.9348L46.9898 35.2513ZM49.5484 37.6438L48.2453 37.8559C48.2415 37.8324 48.2512 37.912 48.26 38.1931C48.2677 38.4381 48.2734 38.775 48.277 39.2035C48.2841 40.059 48.2824 41.2547 48.2716 42.7591L49.5918 42.7686L50.912 42.7781C50.9229 41.2683 50.9248 40.057 50.9174 39.1814C50.9138 38.7443 50.9078 38.3846 50.8992 38.1105C50.8918 37.8725 50.8807 37.6106 50.8516 37.4317L49.5484 37.6438ZM49.5918 42.7686L48.2716 42.7598C48.242 47.2083 48.2273 47.3431 48.1299 47.7789L49.4183 48.0669L50.7068 48.3549C50.8841 47.5618 50.8838 47.0172 50.912 42.7774L49.5918 42.7686ZM49.4183 48.0669L48.1321 47.7691C48.0509 48.1196 47.9538 48.4527 47.8707 48.688C47.8277 48.8099 47.7986 48.8763 47.7882 48.8975C47.7814 48.9112 47.7967 48.8769 47.836 48.8218C47.8559 48.7939 47.8991 48.736 47.9675 48.67C48.0265 48.613 48.1699 48.4848 48.3982 48.3992L48.8618 49.6354L49.3254 50.8716C49.7445 50.7144 49.9586 50.3932 49.987 50.3533C50.0633 50.2461 50.1193 50.1405 50.156 50.0661C50.2326 49.9111 50.3016 49.7345 50.3606 49.5672C50.4817 49.2243 50.605 48.7947 50.7046 48.3646L49.4183 48.0669ZM48.8618 49.6354L48.3512 48.4179C47.4883 48.7797 46.7137 49.06 46.0767 49.2545L46.4621 50.5172L46.8476 51.78C47.5839 51.5552 48.4428 51.2428 49.3724 50.8529L48.8618 49.6354ZM46.4621 50.5172L46.0837 49.2524C45.6332 49.3872 45.1544 49.5481 44.7853 49.7978C44.577 49.9388 44.3491 50.1427 44.1824 50.4389C44.0103 50.7446 43.9565 51.0539 43.9565 51.3196H45.2768H46.5971C46.5971 51.4117 46.5767 51.5684 46.4834 51.7341C46.3956 51.8902 46.2919 51.9666 46.2651 51.9848C46.2449 51.9985 46.2665 51.9804 46.3754 51.9374C46.4796 51.8962 46.6281 51.8457 46.8406 51.7821L46.4621 50.5172ZM45.2768 51.3196H43.9565C43.9565 51.9418 44.301 52.397 44.5468 52.6325C44.7989 52.874 45.2482 53.1747 45.8333 53.1747V51.8545V50.5342C46.0155 50.5342 46.1461 50.5839 46.2141 50.6167C46.2861 50.6515 46.337 50.6908 46.3735 50.7258C46.4098 50.7605 46.4552 50.8133 46.4968 50.8926C46.5363 50.9676 46.5971 51.1145 46.5971 51.3196H45.2768ZM45.8333 51.8545V53.1747C46.0219 53.1747 46.2103 53.1326 46.2609 53.1219C46.361 53.1006 46.4749 53.0727 46.5915 53.0422C46.8264 52.9807 47.1109 52.8982 47.3916 52.8085L46.9898 51.5509L46.588 50.2932C46.3483 50.3698 46.1088 50.4391 45.9227 50.4878C45.8287 50.5124 45.7578 50.5293 45.7123 50.5389C45.689 50.5439 45.6818 50.5449 45.6867 50.5441C45.6895 50.5437 45.7015 50.5418 45.7203 50.5398C45.7356 50.5382 45.7771 50.5342 45.8333 50.5342V51.8545ZM46.9898 51.5509L47.3865 52.8101C47.6345 52.732 47.8564 52.6681 48.0105 52.6281C48.0908 52.6072 48.135 52.5974 48.149 52.5947C48.1611 52.5923 48.1314 52.5989 48.0806 52.6035C48.0602 52.6054 47.9875 52.6119 47.8914 52.6056C47.8441 52.6025 47.7498 52.5939 47.6342 52.5621C47.5743 52.5457 47.4908 52.5182 47.3968 52.4713C47.3038 52.4249 47.1777 52.3483 47.0536 52.2242L47.9872 51.2907L48.9208 50.3571C48.6856 50.1219 48.4295 50.0422 48.3337 50.0159C48.2151 49.9834 48.117 49.9742 48.0651 49.9708C47.9598 49.9638 47.8747 49.9708 47.8389 49.9741C47.7574 49.9816 47.6851 49.9949 47.6438 50.0029C47.5512 50.021 47.4464 50.0464 47.346 50.0725C47.1387 50.1264 46.8726 50.2035 46.593 50.2916L46.9898 51.5509ZM47.9872 51.2907L47.104 52.272C46.8574 52.0501 46.7643 51.7988 46.7296 51.6849C46.6908 51.5576 46.681 51.4534 46.6776 51.4014C46.6709 51.297 46.6803 51.2225 46.6817 51.2103C46.686 51.1748 46.6889 51.1724 46.6767 51.2228C46.6551 51.3116 46.6133 51.4555 46.555 51.6329C46.4981 51.8059 46.4322 51.9907 46.3676 52.1564C46.3002 52.3297 46.2458 52.4523 46.2134 52.5152L47.3873 53.1194L48.5612 53.7236C48.7366 53.3829 48.9305 52.8621 49.0635 52.4573C49.1326 52.247 49.1979 52.0301 49.2425 51.8466C49.2633 51.7609 49.2891 51.6446 49.3034 51.5252C49.3099 51.471 49.3211 51.362 49.3127 51.2316C49.3085 51.1666 49.297 51.0515 49.2556 50.9156C49.2183 50.793 49.1215 50.5353 48.8705 50.3093L47.9872 51.2907ZM47.3873 53.1194L46.2183 52.5057C45.9235 53.0674 45.2526 53.6786 44.5012 53.9868L45.0021 55.2083L45.5031 56.4299C46.761 55.914 47.9404 54.9062 48.5563 53.7331L47.3873 53.1194ZM45.0021 55.2083L44.5087 53.9837C44.0879 54.1533 43.9359 54.2095 43.4294 54.2456C42.8091 54.2897 41.7965 54.2859 39.6844 54.2712L39.6752 55.5914L39.666 56.9117C41.7171 56.9259 42.8657 56.9329 43.6168 56.8795C44.4818 56.8179 44.9116 56.6682 45.4955 56.433L45.0021 55.2083ZM39.6752 55.5914L39.6839 54.2712L39.2597 54.2684L39.251 55.5886L39.2423 56.9089L39.6665 56.9117L39.6752 55.5914ZM39.251 55.5886L39.2597 54.2684C37.8353 54.2591 36.9914 54.2532 36.4201 54.2241C35.8664 54.196 35.6728 54.1494 35.5261 54.0984L35.0926 55.3455L34.659 56.5925C35.1456 56.7617 35.6228 56.8275 36.2858 56.8613C36.9311 56.8941 37.8498 56.8998 39.2424 56.9089L39.251 55.5886ZM35.0926 55.3455L35.5261 54.0984C35.3982 54.0539 35.2651 53.9917 34.9752 53.8523L34.4029 55.042L33.8305 56.2318C34.0863 56.3548 34.3616 56.4891 34.659 56.5925L35.0926 55.3455ZM34.4029 55.042L34.9747 53.852L34.8695 53.8015L34.2977 54.9915L33.7258 56.1815L33.831 56.232L34.4029 55.042ZM34.2977 54.9915L34.882 53.8076C34.6293 53.6829 34.509 53.6119 34.4086 53.5396C34.3043 53.4645 34.1823 53.3598 33.9522 53.1331L33.0256 54.0735L32.0989 55.014C32.3604 55.2716 32.5961 55.4884 32.8659 55.6826C33.1396 55.8796 33.4095 56.0255 33.7134 56.1754L34.2977 54.9915ZM33.0256 54.0735L33.9556 53.1364C33.573 52.7567 33.3637 52.4449 33.2283 52.1091C33.0867 51.7576 32.9924 51.2962 32.9565 50.5678L31.6378 50.6329L30.3192 50.6979C30.3627 51.5815 30.4853 52.3669 30.7792 53.0961C31.0793 53.8409 31.5241 54.4434 32.0955 55.0106L33.0256 54.0735ZM31.6378 50.6329L32.9563 50.5647C32.9454 50.3541 32.9385 50.207 32.9354 50.1009C32.9318 49.9802 32.9354 49.9683 32.9323 50.0009C32.9308 50.0163 32.9226 50.1061 32.8831 50.2252C32.8457 50.3381 32.7378 50.6075 32.4515 50.8262C32.1303 51.0715 31.7858 51.1035 31.5693 51.0855C31.3906 51.0706 31.2622 51.0193 31.2537 51.0162L31.7173 49.78L32.1809 48.5438C32.1436 48.5298 31.9897 48.4708 31.7886 48.4541C31.5497 48.4342 31.186 48.4701 30.8486 48.7279C30.546 48.959 30.4248 49.2492 30.3767 49.3942C30.3266 49.5453 30.3105 49.6783 30.3036 49.7506C30.2811 49.9872 30.3006 50.3387 30.3193 50.7011L31.6378 50.6329ZM31.7173 49.78L31.227 51.0058C31.1681 50.9822 31.1267 50.9603 31.1177 50.9555C31.1029 50.9477 31.0941 50.9425 31.0937 50.9423C31.0931 50.9419 31.102 50.9472 31.1239 50.9611C31.1664 50.9883 31.2299 51.0303 31.3125 51.0865C31.4761 51.1979 31.6906 51.3483 31.9153 51.5098L32.6859 50.4377L33.4565 49.3657C33.2185 49.1946 32.9849 49.0307 32.798 48.9035C32.7054 48.8404 32.618 48.7822 32.5444 48.7352C32.5234 48.7219 32.3665 48.6176 32.2077 48.5541L31.7173 49.78ZM32.6859 50.4377L31.9232 51.5154C32.1708 51.6907 32.4156 51.8566 32.6148 51.9854C32.7135 52.0493 32.8087 52.109 32.8914 52.1579C32.922 52.1759 33.0923 52.2806 33.273 52.3408L33.6905 51.0883L34.1081 49.8357C34.1692 49.8561 34.2125 49.876 34.2258 49.8822C34.2439 49.8906 34.2553 49.8966 34.2576 49.8978C34.2619 49.9001 34.2554 49.8968 34.2347 49.8845C34.1943 49.8606 34.1318 49.8219 34.0489 49.7682C33.8849 49.6622 33.6708 49.5173 33.4486 49.36L32.6859 50.4377ZM33.6905 51.0883L33.3022 52.3501C33.6149 52.4464 33.8973 52.4243 34.0703 52.3963C34.2604 52.3654 34.4366 52.3077 34.5889 52.2398C34.7402 52.1723 34.9056 52.0779 35.0608 51.9497C35.1988 51.8358 35.426 51.6154 35.5556 51.2699L34.3194 50.8064L33.0831 50.3428C33.1802 50.0841 33.3361 49.9495 33.3794 49.9137C33.4399 49.8637 33.4875 49.8398 33.5132 49.8283C33.5399 49.8164 33.5828 49.8003 33.6476 49.7898C33.6952 49.782 33.8601 49.7591 34.0788 49.8264L33.6905 51.0883ZM34.3194 50.8064L35.5719 51.2239C35.6506 50.9876 35.683 50.6941 35.683 50.4811H34.3627H33.0425C33.0425 50.4703 33.0429 50.4667 33.0426 50.4703C33.0424 50.4733 33.0419 50.4777 33.0414 50.4816C33.0408 50.4861 33.0408 50.4845 33.0425 50.4763C33.0434 50.4719 33.0453 50.4631 33.0486 50.4505C33.0516 50.4388 33.0574 50.4172 33.0668 50.3889L34.3194 50.8064ZM34.3627 50.4811H35.683C35.683 50.25 35.6415 49.9375 35.4402 49.6085C35.2859 49.3565 35.0804 49.1693 34.929 49.0412C34.6193 48.7793 34.0865 48.4025 33.2415 47.8099L32.4835 48.8909L31.7254 49.9719C32.6224 50.6009 33.0292 50.8927 33.2236 51.0572C33.3244 51.1424 33.262 51.1079 33.188 50.9869C33.141 50.9101 33.0971 50.8126 33.0698 50.699C33.0439 50.5916 33.0425 50.5084 33.0425 50.4811H34.3627ZM32.4835 48.8909L33.2437 47.8114C31.6799 46.7101 31.3361 46.4417 31.0164 46.1276L30.0911 47.0694L29.1658 48.0112C29.67 48.5066 30.208 48.9032 31.7233 49.9703L32.4835 48.8909ZM30.0911 47.0694L31.0152 46.1264C31.0155 46.1267 31.0138 46.1251 31.01 46.1211C31.0063 46.1172 31.0011 46.1117 30.9943 46.1043C30.9807 46.0893 30.963 46.0691 30.941 46.043C30.8968 45.9905 30.8421 45.9223 30.7775 45.8382C30.6483 45.67 30.4934 45.4561 30.3237 45.211C29.9842 44.7207 29.6049 44.1336 29.2815 43.5898L28.1468 44.2648L27.0121 44.9399C27.368 45.5381 27.7803 46.1762 28.1527 46.7141C28.4993 47.2147 28.8827 47.7337 29.167 48.0123L30.0911 47.0694ZM28.1468 44.2648L29.2832 43.5928C28.4401 42.1671 27.2517 40.5403 25.7338 38.6924L24.7136 39.5304L23.6933 40.3684C25.1678 42.1634 26.2633 43.6737 27.0104 44.9369L28.1468 44.2648ZM24.7136 39.5304L25.7324 38.6907C25.4312 38.3252 25.2249 38.0738 25.0768 37.8808C25.0044 37.7864 24.9553 37.7182 24.9217 37.6677C24.888 37.617 24.878 37.5965 24.8787 37.598C24.8939 37.6293 24.9227 37.7169 24.9218 37.8156C24.9215 37.8487 24.915 37.8522 24.958 37.6456L23.6655 37.3764L22.373 37.1071C22.3438 37.2475 22.284 37.5139 22.2814 37.7912C22.2782 38.134 22.3558 38.447 22.5029 38.7503C22.63 39.0125 22.806 39.2591 22.982 39.4883C23.1641 39.7256 23.4032 40.0163 23.6947 40.37L24.7136 39.5304ZM23.6655 37.3764L24.9608 37.632C24.9631 37.6204 25.0246 37.4067 25.4847 37.1766L24.8943 35.9958L24.3038 34.8149C23.405 35.2643 22.5848 36.0337 22.3702 37.1207L23.6655 37.3764ZM24.8943 35.9958L25.4797 37.1791C25.7478 37.0465 25.9269 36.9872 26.0957 36.9557C26.2723 36.9228 26.4994 36.9088 26.8779 36.9307L26.9542 35.6127L27.0304 34.2946C26.5344 34.2659 26.0749 34.2736 25.6118 34.3599C25.1409 34.4477 24.7274 34.6053 24.3088 34.8124L24.8943 35.9958ZM26.9542 35.6127L26.8825 36.931C27.8708 36.9847 28.7825 37.3866 29.5831 38.1643L30.5031 37.2173L31.423 36.2704C30.1998 35.082 28.6975 34.3852 27.0258 34.2943L26.9542 35.6127ZM31.0379 36.9915H32.3582V31.6878H31.0379H29.7177V36.9915H31.0379ZM31.0379 31.6878H32.3582C32.3582 29.8146 32.3654 28.2697 32.378 27.1653C32.3843 26.6124 32.3919 26.1745 32.4004 25.8629C32.4047 25.7064 32.409 25.5881 32.4132 25.5058C32.4192 25.3888 32.4219 25.4137 32.4092 25.4836L31.1102 25.2474L29.8112 25.0112C29.7877 25.1407 29.78 25.2944 29.7761 25.3717C29.7704 25.4837 29.7654 25.6253 29.7608 25.7907C29.7517 26.1229 29.744 26.5768 29.7376 27.1352C29.7249 28.2535 29.7177 29.8094 29.7177 31.6878H31.0379ZM26.9614 24.9366L26.0144 24.0167C25.6796 24.3613 25.4617 24.8242 25.4525 25.3423C25.4434 25.858 25.6425 26.3226 25.9501 26.6769L26.947 25.8112L27.9438 24.9455C28.0129 25.0251 28.0964 25.1789 28.0926 25.3892C28.0889 25.6019 27.9975 25.7648 27.9084 25.8565L26.9614 24.9366ZM26.947 25.8112L25.9445 26.6704C25.9609 26.6895 26.1023 26.8666 26.3049 27.0089C26.5492 27.1805 26.7963 27.2539 26.996 27.2901C27.2839 27.3423 27.6976 27.3459 28.1559 27.3553L28.1829 26.0353L28.2098 24.7153C27.9384 24.7097 27.7552 24.7059 27.6198 24.7004C27.5538 24.6977 27.5101 24.695 27.4812 24.6926C27.4514 24.6901 27.4505 24.6889 27.4671 24.6919C27.4846 24.6951 27.5342 24.7051 27.601 24.7304C27.6733 24.7577 27.7494 24.7966 27.8228 24.8482C27.8926 24.8972 27.9386 24.9428 27.9577 24.9627C27.9705 24.976 27.9775 24.9848 27.9494 24.952L26.947 25.8112ZM28.1829 26.0353L28.1503 27.3551C28.4571 27.3627 28.7589 27.3647 29.0012 27.3618C29.1214 27.3603 29.2348 27.3576 29.3304 27.3531C29.3752 27.351 29.554 27.3446 29.7158 27.3073L29.4189 26.0208L29.122 24.7344C29.1738 24.7224 29.2123 24.7172 29.2229 24.7158C29.2309 24.7148 29.2368 24.7141 29.2403 24.7137C29.2438 24.7134 29.2459 24.7132 29.2464 24.7131C29.247 24.7131 29.244 24.7133 29.2365 24.7138C29.2292 24.7143 29.2193 24.7148 29.2065 24.7154C29.153 24.718 29.073 24.7202 28.9692 24.7214C28.7634 24.7239 28.4942 24.7223 28.2155 24.7154L28.1829 26.0353ZM29.4189 26.0208L29.753 27.2981C30.5316 27.0945 30.9955 26.4734 31.1461 25.8712C31.2962 25.2704 31.1805 24.5024 30.5866 23.957L29.6935 24.9294L28.8005 25.9018C28.5607 25.6815 28.5426 25.3978 28.5843 25.2308C28.6265 25.0622 28.7759 24.8243 29.0848 24.7435L29.4189 26.0208ZM29.6935 24.9294L30.5891 23.9592C30.5446 23.9182 30.3941 23.7742 30.1761 23.6595C29.9447 23.5377 29.722 23.4893 29.5437 23.4654C29.2574 23.427 28.8471 23.4284 28.3275 23.4284V24.7487V26.0689C28.6158 26.0689 28.8184 26.0694 28.9695 26.0725C29.0438 26.074 29.0977 26.076 29.1372 26.0782C29.1774 26.0805 29.193 26.0825 29.1929 26.0825C29.1898 26.0821 29.0828 26.068 28.9467 25.9964C28.8241 25.9319 28.7485 25.8538 28.798 25.8995L29.6935 24.9294ZM28.3275 24.7487V23.4284C27.892 23.4284 27.5583 23.4277 27.3244 23.4423C27.0878 23.4572 26.7116 23.4949 26.3427 23.7402L27.0736 24.8397L27.8046 25.9391C27.6996 26.0089 27.5941 26.0493 27.5128 26.0692C27.454 26.0837 27.4309 26.0814 27.4897 26.0777C27.5441 26.0743 27.6306 26.0717 27.7754 26.0703C27.9177 26.0689 28.0953 26.0689 28.3275 26.0689V24.7487ZM27.0736 24.8397L26.3426 23.7402C26.1872 23.8436 26.0663 23.9656 26.0456 23.9856L26.9614 24.9366L27.8772 25.8876C27.8887 25.8765 27.8939 25.8715 27.8981 25.8676C27.9017 25.8642 27.8999 25.8659 27.8948 25.8705C27.8844 25.8797 27.8526 25.9072 27.8046 25.9391L27.0736 24.8397ZM28.6238 21.2502L29.8764 20.8327C29.9401 21.0239 29.9281 21.1706 29.9214 21.2246C29.9133 21.2892 29.8985 21.3312 29.8886 21.355C29.8785 21.3793 29.8609 21.4147 29.8266 21.4592C29.7975 21.4968 29.7172 21.5923 29.5652 21.6761L28.9274 20.5201L28.2896 19.3641C27.8163 19.6253 27.5666 20.0624 27.4512 20.3394C27.3407 20.6046 27.1884 21.1188 27.3713 21.6677L28.6238 21.2502ZM28.9274 20.5201L29.5569 21.6807C29.5953 21.6598 29.4995 21.7208 29.3275 21.7346C29.2368 21.7419 29.1474 21.7345 29.0656 21.7155C28.9874 21.6974 28.9336 21.6726 28.9084 21.6595C28.872 21.6405 28.8983 21.6473 29.0184 21.7548C29.1316 21.8562 29.2822 22.0047 29.4966 22.2263L30.4452 21.308L31.3939 20.3898C30.9991 19.9819 30.573 19.5492 30.1282 19.3176C29.848 19.1716 29.5063 19.0711 29.1155 19.1026C28.7555 19.1316 28.4727 19.2648 28.2979 19.3596L28.9274 20.5201ZM30.4452 21.308L29.501 22.2308C29.6565 22.3899 29.7609 22.4986 29.8349 22.58C29.9128 22.6655 29.9248 22.6861 29.9146 22.6708C29.9065 22.6589 29.888 22.6297 29.8675 22.5858C29.846 22.5397 29.8268 22.487 29.8126 22.43C29.7858 22.3224 29.7899 22.2454 29.7899 22.291H31.1102H32.4305C32.4305 22.1993 32.4292 22.0103 32.3749 21.7921C32.3162 21.5562 32.2162 21.3619 32.1071 21.1993C31.9354 20.9436 31.6666 20.6688 31.3895 20.3853L30.4452 21.308ZM31.1102 22.291H29.7899C29.7899 22.2164 29.8175 22.0261 29.9908 21.8471C30.1683 21.6637 30.3741 21.6213 30.4814 21.6213V22.9416V24.2619C30.9717 24.2619 31.4919 24.0929 31.8881 23.6836C32.28 23.2788 32.4305 22.7632 32.4305 22.291H31.1102ZM30.4814 22.9416V21.6213C30.4641 21.6213 30.5672 21.6184 30.7014 21.6598C30.837 21.7017 30.9165 21.7606 30.9228 21.7653C30.925 21.7669 30.9152 21.7597 30.8897 21.7371C30.8645 21.7148 30.8301 21.6829 30.783 21.6375C30.687 21.5449 30.5611 21.418 30.3836 21.2369L29.4406 22.1609L28.4976 23.085C28.8205 23.4145 29.0999 23.6992 29.3406 23.8793C29.487 23.9889 29.6781 24.1074 29.9219 24.1827C30.1643 24.2576 30.3722 24.2619 30.4814 24.2619V22.9416ZM29.4406 22.1609L30.3742 21.2274C30.1777 21.0309 29.9983 20.8398 29.869 20.6946C29.8035 20.6211 29.7581 20.5674 29.7324 20.5355C29.7188 20.5186 29.7188 20.5178 29.7268 20.529C29.7307 20.5345 29.7431 20.5522 29.7593 20.5786C29.7697 20.5957 29.8109 20.663 29.8497 20.7599L28.6238 21.2502L27.398 21.7405C27.4664 21.9115 27.5617 22.0407 27.5727 22.0562C27.6076 22.1054 27.6439 22.152 27.6749 22.1906C27.7385 22.2695 27.8155 22.3591 27.8972 22.4509C28.0625 22.6364 28.277 22.8645 28.507 23.0945L29.4406 22.1609ZM33.7122 18.7494L32.7786 17.8158C32.6691 17.9254 32.5207 18.0926 32.4022 18.3347C32.2878 18.5686 32.2378 18.7972 32.2124 18.9927C32.1683 19.3313 32.1764 19.7836 32.19 20.3358L33.5099 20.3034L34.8297 20.2711C34.8225 19.9775 34.819 19.7641 34.82 19.6019C34.8212 19.4345 34.8273 19.3605 34.8308 19.3337C34.8334 19.3142 34.8264 19.3883 34.774 19.4952C34.7177 19.6104 34.6505 19.6782 34.6458 19.6829L33.7122 18.7494ZM33.5099 20.3034L32.1899 20.3304C32.1976 20.7123 32.2031 21.0225 32.2228 21.244C32.2426 21.4665 32.2908 21.858 32.5692 22.2268L33.6229 21.4312L34.6765 20.6356C34.7147 20.6862 34.7498 20.7427 34.7796 20.8039C34.8086 20.8636 34.8268 20.9161 34.8381 20.9555C34.8577 21.0243 34.8572 21.0583 34.853 21.0106C34.8492 20.9675 34.8451 20.8944 34.8412 20.7659C34.8373 20.6399 34.8341 20.483 34.8298 20.2765L33.5099 20.3034ZM33.6229 21.4312L32.5692 22.2268C32.6999 22.3999 32.8559 22.5258 32.8746 22.5418L33.7339 21.5395L34.5932 20.5371C34.5802 20.526 34.5749 20.5214 34.5711 20.5181C34.5678 20.5152 34.5714 20.5183 34.5786 20.525C34.5932 20.5388 34.6322 20.577 34.6765 20.6357L33.6229 21.4312ZM33.7339 21.5395L32.8682 22.5363C33.2224 22.8439 33.687 23.0431 34.2027 23.0339C34.7208 23.0247 35.1838 22.8068 35.5285 22.472L34.6085 21.525L33.6885 20.578C33.7802 20.489 33.9432 20.3976 34.1559 20.3938C34.3663 20.39 34.5201 20.4735 34.5996 20.5426L33.7339 21.5395ZM34.6085 21.525L35.5595 22.4408C35.5794 22.4202 35.7004 22.3003 35.8032 22.1461L34.7047 21.4136L33.6063 20.6811C33.638 20.6336 33.6653 20.6021 33.6744 20.5918C33.6789 20.5868 33.6806 20.585 33.6772 20.5886C33.6733 20.5927 33.6684 20.5979 33.6574 20.6092L34.6085 21.525ZM34.7047 21.4136L35.8032 22.1461C36.0502 21.7758 36.0878 21.3975 36.1027 21.1597C36.1174 20.9239 36.1167 20.5868 36.1167 20.1444H34.7964H33.4761C33.4761 20.38 33.4761 20.5603 33.4748 20.7046C33.4734 20.8516 33.4707 20.9396 33.4672 20.9951C33.4635 21.0552 33.4611 21.0325 33.4755 20.9739C33.4955 20.8925 33.536 20.7865 33.6063 20.6811L34.7047 21.4136ZM34.7964 20.1444H36.1167C36.1167 19.622 36.1199 19.2048 36.0829 18.9223C36.0596 18.744 36.0092 18.5028 35.8674 18.2539C35.735 18.0215 35.5657 17.8673 35.5301 17.8331L34.6157 18.7855L33.7014 19.7379C33.7561 19.7905 33.6545 19.704 33.573 19.5608C33.482 19.4012 33.4655 19.2706 33.4647 19.265C33.4644 19.2624 33.4663 19.2765 33.4684 19.3173C33.4705 19.3571 33.4722 19.4117 33.4735 19.4877C33.4761 19.6423 33.4761 19.8488 33.4761 20.1444H34.7964ZM34.6157 18.7855L35.564 17.8669C35.1546 17.4443 34.6213 17.298 34.2072 17.2827C33.8054 17.2679 33.226 17.3684 32.7786 17.8158L33.7122 18.7494L34.6458 19.6829C34.5198 19.809 34.3913 19.8665 34.3106 19.8922C34.2283 19.9184 34.1603 19.9233 34.1099 19.9215C34.0391 19.9189 33.8527 19.8954 33.6674 19.7041L34.6157 18.7855ZM36.6106 22.1176L37.8816 22.475C37.848 22.5945 37.8052 22.6737 37.7962 22.6904C37.7818 22.7172 37.7727 22.7301 37.7757 22.7256C37.7818 22.7166 37.8033 22.6863 37.8463 22.6325C37.9305 22.5273 38.0532 22.3869 38.1944 22.2364C38.3344 22.0871 38.479 21.9423 38.6031 21.8272C38.7486 21.6923 38.8025 21.6578 38.7771 21.6735L38.0851 20.549L37.3931 19.4246C37.1798 19.5559 36.9635 19.7465 36.8075 19.8911C36.63 20.0557 36.4417 20.2452 36.2683 20.4302C36.0959 20.614 35.9245 20.8079 35.7849 20.9824C35.716 21.0684 35.6431 21.1643 35.5787 21.2609C35.5412 21.3171 35.4096 21.5115 35.3396 21.7601L36.6106 22.1176ZM38.0851 20.549L38.7959 21.6616C38.8542 21.6244 38.7203 21.7266 38.4794 21.7371C38.2334 21.7478 38.0862 21.6543 38.1367 21.6816L38.7645 20.5201L39.3924 19.3587C39.1754 19.2414 38.8186 19.0793 38.3647 19.099C37.9161 19.1185 37.5762 19.3074 37.3742 19.4365L38.0851 20.549ZM38.7645 20.5201L38.1599 21.6938C38.1704 21.6992 38.1176 21.674 38.0467 21.6126C37.9642 21.5411 37.8807 21.4413 37.8188 21.3163C37.7619 21.2011 37.7456 21.1094 37.7413 21.0792C37.7376 21.0535 37.7406 21.0577 37.7406 21.1201H39.0609H40.3811C40.3811 20.9223 40.3765 20.531 40.1854 20.145C39.9587 19.687 39.5928 19.4617 39.3692 19.3465L38.7645 20.5201ZM39.0609 21.1201H37.7406C37.7406 21.104 37.7415 20.9953 37.787 20.86C37.8289 20.7354 37.8821 20.6665 37.8783 20.6716C37.871 20.6815 37.8368 20.7241 37.7409 20.8258C37.6487 20.9235 37.5231 21.0509 37.3466 21.2274L38.2802 22.1609L39.2138 23.0945C39.543 22.7654 39.8176 22.4878 39.994 22.2516C40.0968 22.1139 40.2124 21.9321 40.29 21.7014C40.3711 21.4598 40.3811 21.2518 40.3811 21.1201H39.0609ZM38.2802 22.1609L37.3466 21.2274C37.1798 21.3942 37.0561 21.5161 36.9596 21.6074C36.86 21.7016 36.8115 21.7421 36.7925 21.7566C36.7739 21.7709 36.8271 21.7261 36.9334 21.6845C36.99 21.6624 37.0516 21.645 37.116 21.6341C37.1787 21.6234 37.2296 21.6213 37.2611 21.6213V22.9416V24.2619C37.4447 24.2619 37.6608 24.2354 37.8951 24.1437C38.1072 24.0608 38.2759 23.9469 38.4019 23.85C38.629 23.6755 38.897 23.4114 39.2138 23.0945L38.2802 22.1609ZM37.2611 22.9416V21.6213C37.2875 21.6213 37.3041 21.623 37.3105 21.6237C37.3177 21.6246 37.3235 21.6256 37.3297 21.6269C37.3351 21.628 37.3495 21.6313 37.3723 21.6388C37.3897 21.6445 37.4445 21.6632 37.5175 21.703L36.8853 22.8621L36.253 24.0211C36.4546 24.1311 36.6579 24.1835 36.7788 24.2093C36.9186 24.2392 37.0864 24.2619 37.2611 24.2619V22.9416ZM36.8853 22.8621L37.5066 21.6971C37.6531 21.7753 37.742 21.8705 37.7893 21.9323C37.838 21.996 37.8644 22.0522 37.8794 22.093C37.9023 22.1556 37.9341 22.2809 37.8852 22.462L36.6106 22.1176L35.3361 21.7731C35.2148 22.2217 35.2756 22.6614 35.3997 23.0005C35.518 23.3237 35.7731 23.7652 36.2639 24.027L36.8853 22.8621ZM38.0706 24.8572L37.3134 23.7756C36.68 24.219 36.4708 24.9262 36.499 25.4881C36.5272 26.0505 36.8105 26.7524 37.5206 27.1207L38.1284 25.9486L38.7362 24.7766C39.056 24.9424 39.1297 25.2251 39.1362 25.3557C39.1427 25.4856 39.0998 25.7483 38.8277 25.9388L38.0706 24.8572ZM38.1284 25.9486L37.5571 27.1389C37.856 27.2824 38.1468 27.3302 38.433 27.3498C38.699 27.368 39.0442 27.366 39.497 27.3553L39.4656 26.0354L39.4341 24.7155C38.9763 24.7264 38.7432 24.7243 38.6135 24.7155C38.5039 24.708 38.5815 24.7016 38.6998 24.7584L38.1284 25.9486ZM39.4656 26.0354L39.4885 27.3554C39.7999 27.35 40.081 27.3424 40.3169 27.3229C40.5358 27.3047 40.8302 27.2691 41.1158 27.1554C41.4637 27.0168 41.7774 26.7718 41.9832 26.3994C42.1465 26.1039 42.1941 25.8026 42.2149 25.6722L40.9111 25.4643L39.6073 25.2565C39.6002 25.3014 39.5981 25.3045 39.6025 25.2885C39.6073 25.2706 39.6258 25.206 39.672 25.1224C39.7221 25.0316 39.7953 24.9358 39.8942 24.8518C39.9899 24.7706 40.0802 24.7255 40.139 24.7021C40.1937 24.6804 40.2244 24.676 40.2116 24.6784C40.1997 24.6806 40.1658 24.6858 40.0986 24.6914C39.9587 24.703 39.7565 24.7098 39.4427 24.7153L39.4656 26.0354ZM40.9111 25.4643L42.2108 25.6964C42.2446 25.5072 42.283 25.189 42.1686 24.823C42.064 24.4884 41.8725 24.2516 41.7673 24.1272L40.7593 24.98L39.7514 25.8328C39.8053 25.8964 39.7076 25.8006 39.6482 25.6105C39.579 25.3891 39.6138 25.2191 39.6114 25.2322L40.9111 25.4643ZM40.2616 24.7487V23.4285H39.3933V24.7487V26.069H40.2616V24.7487ZM39.3933 24.7487V23.4285C38.9399 23.4285 38.5886 23.4333 38.3271 23.4545C38.1243 23.4709 37.6921 23.5083 37.3092 23.7786L38.0706 24.8572L38.832 25.9358C38.6857 26.039 38.5578 26.0753 38.5144 26.0859C38.4753 26.0955 38.4724 26.0919 38.5405 26.0864C38.6801 26.0751 38.9288 26.069 39.3933 26.069V24.7487ZM39.311 55.589L39.3195 54.2688C39.2994 54.2687 39.2799 54.2685 39.2596 54.2684L39.251 55.5886L39.2424 56.9089C39.2619 56.909 39.2824 56.9092 39.3025 56.9093L39.311 55.589ZM39.251 55.5886L39.2597 54.2684C39.2111 54.2681 39.1642 54.2678 39.1169 54.2675L39.1082 55.5877L39.0996 56.908C39.1463 56.9083 39.1945 56.9086 39.2424 56.9089L39.251 55.5886ZM39.1082 55.5877L39.0996 56.908C39.166 56.9084 39.2335 56.9088 39.3024 56.9093L39.311 55.589L39.3196 54.2688C39.2508 54.2683 39.1833 54.2679 39.1169 54.2675L39.1082 55.5877ZM40.7593 24.98L41.7684 24.1287C41.3938 23.6847 40.8425 23.4285 40.2616 23.4285V24.7487V26.069C40.0644 26.069 39.8774 25.9821 39.7503 25.8314L40.7593 24.98ZM30.5031 37.2173L29.5823 38.1636C30.6189 39.1721 32.3582 38.4377 32.3582 36.9915H31.0379H29.7177C29.7177 36.1026 30.7867 35.6512 31.4238 36.2711L30.5031 37.2173ZM40.9189 32.7709L39.6037 32.8863C39.7012 33.998 40.8756 34.6731 41.8853 34.1979L41.3232 33.0033L40.761 31.8087C41.4129 31.5019 42.1712 31.9378 42.2341 32.6556L40.9189 32.7709ZM36.6756 30.2899H35.3554C35.3554 31.4206 36.5159 32.1796 37.5518 31.7263L37.0226 30.5168L36.4934 29.3072C37.202 28.9972 37.9959 29.5164 37.9959 30.2899H36.6756Z" fill="url(#paint2_linear_978_53)" mask="url(#path-1-inside-1_978_53)"/>
</g>
<defs>
<filter id="filter0_di_978_53" x="0.000203609" y="0.000203609" width="87.4054" height="87.4054" filterUnits="userSpaceOnUse" color-interpolation-filters="sRGB">
<feFlood flood-opacity="0" result="BackgroundImageFix"/>
<feColorMatrix in="SourceAlpha" type="matrix" values="0 0 0 0 0 0 0 0 0 0 0 0 0 0 0 0 0 0 127 0" result="hardAlpha"/>
<feOffset dx="6.60136" dy="6.60136"/>
<feGaussianBlur stdDeviation="6.60136"/>
<feComposite in2="hardAlpha" operator="out"/>
<feColorMatrix type="matrix" values="0 0 0 0 0.0509804 0 0 0 0 0.0784314 0 0 0 0 0.192157 0 0 0 0.5 0"/>
<feBlend mode="normal" in2="BackgroundImageFix" result="effect1_dropShadow_978_53"/>
<feBlend mode="normal" in="SourceGraphic" in2="effect1_dropShadow_978_53" result="shape"/>
<feColorMatrix in="SourceAlpha" type="matrix" values="0 0 0 0 0 0 0 0 0 0 0 0 0 0 0 0 0 0 127 0" result="hardAlpha"/>
<feOffset dx="0.660136" dy="0.660136"/>
<feGaussianBlur stdDeviation="0.165034"/>
<feComposite in2="hardAlpha" operator="arithmetic" k2="-1" k3="1"/>
<feColorMatrix type="matrix" values="0 0 0 0 1 0 0 0 0 1 0 0 0 0 1 0 0 0 1 0"/>
<feBlend mode="normal" in2="shape" result="effect2_innerShadow_978_53"/>
</filter>
<linearGradient id="paint0_linear_978_53" x1="15.6562" y1="12.7969" x2="48.5391" y2="67.6016" gradientUnits="userSpaceOnUse">
<stop stop-color="#F5F5F9"/>
<stop offset="1" stop-color="#DADFE7"/>
</linearGradient>
<linearGradient id="paint1_linear_978_53" x1="15.6562" y1="12.7969" x2="48.5391" y2="67.6016" gradientUnits="userSpaceOnUse">
<stop stop-color="#F5F5F9"/>
<stop offset="1" stop-color="#DADFE7"/>
</linearGradient>
<linearGradient id="paint2_linear_978_53" x1="13.4378" y1="15.0154" x2="56.0326" y2="62.8688" gradientUnits="userSpaceOnUse">
<stop stop-color="white"/>
<stop offset="1" stop-color="#AEAEAE"/>
</linearGradient>
</defs>
</svg>
