<svg width="61" height="61" viewBox="0 0 61 61" fill="none" xmlns="http://www.w3.org/2000/svg">
<mask id="path-1-inside-1_978_55" fill="white">
<path fill-rule="evenodd" clip-rule="evenodd" d="M26.6264 0.160902C21.1219 0.876023 16.082 2.98563 11.6736 6.39438C10.2796 7.47898 7.90863 9.81504 6.75292 11.2453C3.4645 15.3215 1.28413 20.1366 0.35479 25.3808C0.0211815 27.2402 -0.109879 31.7097 0.104584 33.7478C0.61691 38.5033 2.27304 43.1635 4.84659 47.1205C6.01422 48.9083 7.03887 50.1836 8.63542 51.8165C13.6276 56.9415 19.9304 60.0404 27.103 60.8747C28.6996 61.0654 32.5837 61.0296 34.3113 60.827C43.2234 59.7186 51.1824 54.7247 56.1508 47.1205C58.6528 43.2946 60.2494 38.8966 60.8213 34.3079C61.0596 32.3771 61.0596 28.6227 60.8213 26.68C59.7251 17.8363 54.7449 9.85079 47.2387 4.91646C43.3188 2.34202 38.958 0.744918 34.3113 0.160902C32.5003 -0.0536341 28.3421 -0.0536341 26.6264 0.160902ZM24.5086 18.6459C24.7255 17.4893 25.6579 16.5208 26.7276 16.3401C27.2263 16.2605 27.2552 16.2605 27.725 16.3473C28.9321 16.5714 29.8211 17.511 30.0018 18.7615C30.0379 19.0362 30.0741 20.3445 30.0741 21.6672V23.6883C30.0741 23.8669 30.2574 23.9868 30.421 23.9152C30.6957 23.7851 30.8981 23.7562 31.5196 23.749C32.2063 23.749 32.3219 23.7707 32.7122 23.9514C33.5868 24.3561 34.2373 25.2524 34.3168 26.1632L34.3174 26.1694C34.3346 26.3663 34.5427 26.4859 34.7216 26.4017C35.7263 25.9174 37.2007 26.2355 37.9597 27.0956C38.2849 27.4643 38.5885 28.151 38.6463 28.6352C38.6897 29.04 38.6969 29.0472 38.8487 28.9533C39.1812 28.7364 39.8461 28.6063 40.3882 28.6497C41.7109 28.7509 42.7445 29.7122 42.9469 31.0422C42.9975 31.353 43.0119 33.1529 42.9902 36.167C42.9613 40.5112 42.9541 40.8509 42.8168 41.4653C42.6361 42.246 42.3759 42.9905 42.2602 43.0338C41.364 43.4097 40.5472 43.7061 39.8606 43.9157C38.9426 44.1903 38.6752 44.3711 38.6752 44.718C38.6752 44.9638 38.9788 45.2529 39.2318 45.2529C39.3402 45.2529 39.8678 45.1156 40.3882 44.9493C40.9159 44.7831 41.364 44.6674 41.3857 44.6891C41.4579 44.7541 41.0387 46.0263 40.7857 46.5178C40.3304 47.3852 39.4052 48.1948 38.4006 48.6068C37.3959 49.0116 37.2369 49.0188 33.0736 48.9899L32.6495 48.9871C29.8325 48.9687 29.1243 48.9641 28.491 48.7439C28.2783 48.67 28.0741 48.5717 27.8013 48.4405L27.6961 48.3899C27.1396 48.1153 26.9155 47.9562 26.424 47.472C25.4699 46.5251 25.1158 45.6432 25.0363 44.0313C24.9929 43.1929 25.0001 43.135 25.1158 43.1784C25.1881 43.2073 25.6217 43.5037 26.0843 43.8362C26.5541 44.1687 27.0022 44.4578 27.089 44.4867C27.2769 44.5445 27.6528 44.3783 27.7178 44.2048C27.7395 44.1398 27.7612 43.9952 27.7612 43.8795C27.7612 43.6265 27.6238 43.5109 25.8819 42.2893C24.3424 41.2051 23.9015 40.8726 23.4895 40.4678C23.1281 40.1136 22.2246 38.8053 21.5452 37.6633C20.7502 36.3188 19.6082 34.7503 18.112 32.9288C16.9266 31.4904 16.9194 31.4687 17.064 30.7748C17.1724 30.2254 17.6133 29.7339 18.2927 29.3942C18.9793 29.0545 19.4781 28.9605 20.3526 29.0111C21.6826 29.0834 22.8896 29.6327 23.9015 30.6158C24.1012 30.8101 24.4364 30.6686 24.4364 30.3899V25.0862C24.4364 21.3347 24.4653 18.8844 24.5086 18.6459ZM20.3598 18.335C20.1141 18.588 20.1069 18.935 20.3454 19.2096C20.5189 19.412 20.5189 19.412 21.5813 19.4337C22.1668 19.4482 22.7234 19.4409 22.8173 19.4193C23.2871 19.2964 23.4461 18.6531 23.092 18.3278C22.9041 18.1543 22.8679 18.1471 21.7259 18.1471C20.8064 18.1471 20.609 18.1471 20.4721 18.2381C20.4346 18.263 20.4017 18.2947 20.3598 18.335ZM22.0223 14.6486C21.95 14.4318 22.1162 14.0342 22.3258 13.9186C22.7523 13.6873 22.9691 13.8029 23.8437 14.7064C24.4653 15.3425 24.5086 15.4148 24.5086 15.6895C24.5086 16.087 24.2629 16.34 23.8798 16.34C23.6269 16.34 23.5473 16.2822 22.839 15.5594C22.4126 15.1329 22.0512 14.7209 22.0223 14.6486ZM27.1107 12.1478C26.9011 12.3574 26.8794 12.5237 26.9083 13.7019C26.9249 14.5177 26.9288 14.7071 27.0213 14.8297C27.0493 14.8667 27.0854 14.8976 27.1323 14.9379C27.407 15.1764 27.7539 15.1692 28.0069 14.9235C28.0469 14.8819 28.0784 14.8492 28.1032 14.8121C28.1948 14.6746 28.1948 14.476 28.1948 13.5429C28.1948 12.3791 28.1948 12.3574 28.0141 12.184C27.7901 11.9527 27.3203 11.9382 27.1107 12.1478ZM30.0091 15.516C30.0741 15.2847 31.1077 14.1788 31.4835 13.9475C31.7437 13.7812 31.8955 13.774 32.163 13.9186C32.4015 14.0415 32.4593 14.1571 32.4593 14.5185C32.4593 14.7498 32.387 14.851 31.6787 15.5594C31.0065 16.2316 30.8692 16.34 30.6596 16.34C30.5295 16.34 30.3632 16.3039 30.2837 16.2605C30.0669 16.1449 29.9368 15.7834 30.0091 15.516ZM31.469 18.2556C31.1076 18.5086 31.1365 19.1447 31.5269 19.3471C31.7075 19.4338 31.9533 19.4555 32.864 19.4338C34.1144 19.4121 34.2301 19.3615 34.3096 18.8628C34.3457 18.6604 34.3168 18.5664 34.1578 18.3785C34.034 18.2318 33.8519 18.1472 33.66 18.1472H32.7917C31.8738 18.1472 31.5919 18.1689 31.469 18.2556Z"/>
<path fill-rule="evenodd" clip-rule="evenodd" d="M32.7094 48.9875C32.6894 48.9873 32.6694 48.9872 32.6495 48.9871C32.6013 48.9868 32.5537 48.9865 32.5067 48.9861C32.573 48.9866 32.6406 48.987 32.7094 48.9875Z"/>
</mask>
<g filter="url(#filter0_i_978_55)">
<path fill-rule="evenodd" clip-rule="evenodd" d="M26.6264 0.160902C21.1219 0.876023 16.082 2.98563 11.6736 6.39438C10.2796 7.47898 7.90863 9.81504 6.75292 11.2453C3.4645 15.3215 1.28413 20.1366 0.35479 25.3808C0.0211815 27.2402 -0.109879 31.7097 0.104584 33.7478C0.61691 38.5033 2.27304 43.1635 4.84659 47.1205C6.01422 48.9083 7.03887 50.1836 8.63542 51.8165C13.6276 56.9415 19.9304 60.0404 27.103 60.8747C28.6996 61.0654 32.5837 61.0296 34.3113 60.827C43.2234 59.7186 51.1824 54.7247 56.1508 47.1205C58.6528 43.2946 60.2494 38.8966 60.8213 34.3079C61.0596 32.3771 61.0596 28.6227 60.8213 26.68C59.7251 17.8363 54.7449 9.85079 47.2387 4.91646C43.3188 2.34202 38.958 0.744918 34.3113 0.160902C32.5003 -0.0536341 28.3421 -0.0536341 26.6264 0.160902ZM24.5086 18.6459C24.7255 17.4893 25.6579 16.5208 26.7276 16.3401C27.2263 16.2605 27.2552 16.2605 27.725 16.3473C28.9321 16.5714 29.8211 17.511 30.0018 18.7615C30.0379 19.0362 30.0741 20.3445 30.0741 21.6672V23.6883C30.0741 23.8669 30.2574 23.9868 30.421 23.9152C30.6957 23.7851 30.8981 23.7562 31.5196 23.749C32.2063 23.749 32.3219 23.7707 32.7122 23.9514C33.5868 24.3561 34.2373 25.2524 34.3168 26.1632L34.3174 26.1694C34.3346 26.3663 34.5427 26.4859 34.7216 26.4017C35.7263 25.9174 37.2007 26.2355 37.9597 27.0956C38.2849 27.4643 38.5885 28.151 38.6463 28.6352C38.6897 29.04 38.6969 29.0472 38.8487 28.9533C39.1812 28.7364 39.8461 28.6063 40.3882 28.6497C41.7109 28.7509 42.7445 29.7122 42.9469 31.0422C42.9975 31.353 43.0119 33.1529 42.9902 36.167C42.9613 40.5112 42.9541 40.8509 42.8168 41.4653C42.6361 42.246 42.3759 42.9905 42.2602 43.0338C41.364 43.4097 40.5472 43.7061 39.8606 43.9157C38.9426 44.1903 38.6752 44.3711 38.6752 44.718C38.6752 44.9638 38.9788 45.2529 39.2318 45.2529C39.3402 45.2529 39.8678 45.1156 40.3882 44.9493C40.9159 44.7831 41.364 44.6674 41.3857 44.6891C41.4579 44.7541 41.0387 46.0263 40.7857 46.5178C40.3304 47.3852 39.4052 48.1948 38.4006 48.6068C37.3959 49.0116 37.2369 49.0188 33.0736 48.9899L32.6495 48.9871C29.8325 48.9687 29.1243 48.9641 28.491 48.7439C28.2783 48.67 28.0741 48.5717 27.8013 48.4405L27.6961 48.3899C27.1396 48.1153 26.9155 47.9562 26.424 47.472C25.4699 46.5251 25.1158 45.6432 25.0363 44.0313C24.9929 43.1929 25.0001 43.135 25.1158 43.1784C25.1881 43.2073 25.6217 43.5037 26.0843 43.8362C26.5541 44.1687 27.0022 44.4578 27.089 44.4867C27.2769 44.5445 27.6528 44.3783 27.7178 44.2048C27.7395 44.1398 27.7612 43.9952 27.7612 43.8795C27.7612 43.6265 27.6238 43.5109 25.8819 42.2893C24.3424 41.2051 23.9015 40.8726 23.4895 40.4678C23.1281 40.1136 22.2246 38.8053 21.5452 37.6633C20.7502 36.3188 19.6082 34.7503 18.112 32.9288C16.9266 31.4904 16.9194 31.4687 17.064 30.7748C17.1724 30.2254 17.6133 29.7339 18.2927 29.3942C18.9793 29.0545 19.4781 28.9605 20.3526 29.0111C21.6826 29.0834 22.8896 29.6327 23.9015 30.6158C24.1012 30.8101 24.4364 30.6686 24.4364 30.3899V25.0862C24.4364 21.3347 24.4653 18.8844 24.5086 18.6459ZM20.3598 18.335C20.1141 18.588 20.1069 18.935 20.3454 19.2096C20.5189 19.412 20.5189 19.412 21.5813 19.4337C22.1668 19.4482 22.7234 19.4409 22.8173 19.4193C23.2871 19.2964 23.4461 18.6531 23.092 18.3278C22.9041 18.1543 22.8679 18.1471 21.7259 18.1471C20.8064 18.1471 20.609 18.1471 20.4721 18.2381C20.4346 18.263 20.4017 18.2947 20.3598 18.335ZM22.0223 14.6486C21.95 14.4318 22.1162 14.0342 22.3258 13.9186C22.7523 13.6873 22.9691 13.8029 23.8437 14.7064C24.4653 15.3425 24.5086 15.4148 24.5086 15.6895C24.5086 16.087 24.2629 16.34 23.8798 16.34C23.6269 16.34 23.5473 16.2822 22.839 15.5594C22.4126 15.1329 22.0512 14.7209 22.0223 14.6486ZM27.1107 12.1478C26.9011 12.3574 26.8794 12.5237 26.9083 13.7019C26.9249 14.5177 26.9288 14.7071 27.0213 14.8297C27.0493 14.8667 27.0854 14.8976 27.1323 14.9379C27.407 15.1764 27.7539 15.1692 28.0069 14.9235C28.0469 14.8819 28.0784 14.8492 28.1032 14.8121C28.1948 14.6746 28.1948 14.476 28.1948 13.5429C28.1948 12.3791 28.1948 12.3574 28.0141 12.184C27.7901 11.9527 27.3203 11.9382 27.1107 12.1478ZM30.0091 15.516C30.0741 15.2847 31.1077 14.1788 31.4835 13.9475C31.7437 13.7812 31.8955 13.774 32.163 13.9186C32.4015 14.0415 32.4593 14.1571 32.4593 14.5185C32.4593 14.7498 32.387 14.851 31.6787 15.5594C31.0065 16.2316 30.8692 16.34 30.6596 16.34C30.5295 16.34 30.3632 16.3039 30.2837 16.2605C30.0669 16.1449 29.9368 15.7834 30.0091 15.516ZM31.469 18.2556C31.1076 18.5086 31.1365 19.1447 31.5269 19.3471C31.7075 19.4338 31.9533 19.4555 32.864 19.4338C34.1144 19.4121 34.2301 19.3615 34.3096 18.8628C34.3457 18.6604 34.3168 18.5664 34.1578 18.3785C34.034 18.2318 33.8519 18.1472 33.66 18.1472H32.7917C31.8738 18.1472 31.5919 18.1689 31.469 18.2556Z" fill="url(#paint0_linear_978_55)"/>
<path fill-rule="evenodd" clip-rule="evenodd" d="M32.7094 48.9875C32.6894 48.9873 32.6694 48.9872 32.6495 48.9871C32.6013 48.9868 32.5537 48.9865 32.5067 48.9861C32.573 48.9866 32.6406 48.987 32.7094 48.9875Z" fill="url(#paint1_linear_978_55)"/>
</g>
<path d="M27.0991 14.9092L27.5343 14.4128L27.5343 14.4128L27.0991 14.9092ZM27.0213 14.8297L26.4945 15.2274C26.5576 15.3111 26.625 15.3715 26.6639 15.4055L27.0991 14.9092L27.5343 14.4128C27.5292 14.4084 27.5262 14.4057 27.5244 14.404C27.5227 14.4024 27.5229 14.4026 27.5244 14.404C27.5275 14.4071 27.5367 14.4167 27.5481 14.4319L27.0213 14.8297ZM27.1323 14.9379L27.562 14.4367C27.5496 14.4261 27.5414 14.4191 27.5343 14.4128L27.0991 14.9092L26.6639 15.4055C26.6776 15.4176 26.6916 15.4295 26.7027 15.4391L27.1323 14.9379ZM26.6264 0.160902L26.4626 -1.14918L26.4563 -1.14837L26.6264 0.160902ZM11.6736 6.39438L10.866 5.34992L10.8629 5.35235L11.6736 6.39438ZM6.75292 11.2453L5.72601 10.4155L5.72535 10.4163L6.75292 11.2453ZM0.35479 25.3808L1.65431 25.614L1.65481 25.6112L0.35479 25.3808ZM0.104584 33.7478L-1.20844 33.8859L-1.20809 33.8892L0.104584 33.7478ZM4.84659 47.1205L3.7398 47.8404L3.74119 47.8425L4.84659 47.1205ZM8.63542 51.8165L9.58117 50.8953L9.57943 50.8935L8.63542 51.8165ZM27.103 60.8747L27.2596 59.5637L27.2556 59.5633L27.103 60.8747ZM34.3113 60.827L34.4651 62.1383L34.4743 62.1372L34.3113 60.827ZM56.1508 47.1205L55.0458 46.3979L55.0455 46.3984L56.1508 47.1205ZM60.8213 34.3079L62.1314 34.4712L62.1316 34.4697L60.8213 34.3079ZM60.8213 26.68L62.1317 26.5192L62.1315 26.5176L60.8213 26.68ZM47.2387 4.91646L47.9639 3.81321L47.9634 3.81291L47.2387 4.91646ZM34.3113 0.160902L34.476 -1.1491L34.4667 -1.1502L34.3113 0.160902ZM24.5086 18.6459L23.211 18.4026L23.2097 18.4097L24.5086 18.6459ZM26.7276 16.3401L26.5197 15.0362L26.5077 15.0382L26.7276 16.3401ZM27.725 16.3473L27.966 15.0492L27.9647 15.049L27.725 16.3473ZM30.0018 18.7615L31.3108 18.5893L31.3097 18.581L31.3085 18.5727L30.0018 18.7615ZM30.421 23.9152L30.9502 25.1248L30.9684 25.1169L30.9862 25.1084L30.421 23.9152ZM31.5196 23.749V22.4287H31.512L31.5043 22.4288L31.5196 23.749ZM32.7122 23.9514L32.1575 25.1495L32.1577 25.1495L32.7122 23.9514ZM34.3168 26.1632L33.0016 26.278L33.0016 26.2786L34.3168 26.1632ZM34.7216 26.4017L35.2838 27.5964L35.2949 27.591L34.7216 26.4017ZM37.9597 27.0956L38.9497 26.2221V26.2221L37.9597 27.0956ZM38.6463 28.6352L39.9591 28.4946L39.9582 28.4867L39.9573 28.4787L38.6463 28.6352ZM38.8487 28.9533L39.5437 30.0758L39.5569 30.0676L39.5699 30.0591L38.8487 28.9533ZM40.3882 28.6497L40.2829 29.9658L40.2875 29.9661L40.3882 28.6497ZM42.9469 31.0422L41.6416 31.2409L41.6438 31.2544L42.9469 31.0422ZM42.9902 36.167L41.67 36.1575L41.67 36.1582L42.9902 36.167ZM42.8168 41.4653L44.1031 41.763L44.1053 41.7533L42.8168 41.4653ZM42.2602 43.0338L41.7966 41.7976L41.773 41.8065L41.7496 41.8163L42.2602 43.0338ZM39.8606 43.9157L40.2391 45.1806L40.2461 45.1784L39.8606 43.9157ZM40.3882 44.9493L39.9914 43.6901L39.9864 43.6917L40.3882 44.9493ZM41.3857 44.6891L40.4521 45.6227L40.4766 45.6472L40.5024 45.6704L41.3857 44.6891ZM40.7857 46.5178L41.9548 47.1315L41.9597 47.122L40.7857 46.5178ZM38.4006 48.6068L38.894 49.8314L38.9015 49.8283L38.4006 48.6068ZM33.0736 48.9899L33.0828 47.6696L33.0823 47.6696L33.0736 48.9899ZM28.491 48.7439L28.0575 49.991L28.0575 49.991L28.491 48.7439ZM27.8013 48.4405L28.3737 47.2507L28.3731 47.2505L27.8013 48.4405ZM27.6961 48.3899L27.1118 49.5739L27.1243 49.5799L27.6961 48.3899ZM26.424 47.472L25.494 48.4091L25.4974 48.4124L26.424 47.472ZM25.0363 44.0313L26.3549 43.9663L26.3548 43.9631L25.0363 44.0313ZM25.1158 43.1784L25.6061 41.9526L25.5928 41.9472L25.5794 41.9422L25.1158 43.1784ZM26.0843 43.8362L25.3137 44.9083L25.3216 44.9138L26.0843 43.8362ZM27.089 44.4867L26.6715 45.7392L26.686 45.7441L26.7007 45.7486L27.089 44.4867ZM27.7178 44.2048L28.954 44.6684L28.9626 44.6455L28.9703 44.6223L27.7178 44.2048ZM25.8819 42.2893L25.1217 43.3688L25.1239 43.3703L25.8819 42.2893ZM23.4895 40.4678L24.4148 39.526L24.4136 39.5249L23.4895 40.4678ZM21.5452 37.6633L20.4088 38.3353L20.4106 38.3383L21.5452 37.6633ZM18.112 32.9288L19.1322 32.0908L19.1309 32.0892L18.112 32.9288ZM17.064 30.7748L18.3566 31.0441L18.3592 31.0304L17.064 30.7748ZM18.2927 29.3942L17.7072 28.2108L17.7022 28.2133L18.2927 29.3942ZM20.3526 29.0111L20.2764 30.3292L20.281 30.3294L20.3526 29.0111ZM23.9015 30.6158L24.8222 29.6695L24.8215 29.6688L23.9015 30.6158ZM20.3598 18.335L19.444 17.384L19.4282 17.3993L19.4128 17.4151L20.3598 18.335ZM20.3454 19.2096L21.3479 18.3504L21.3423 18.344L20.3454 19.2096ZM21.5813 19.4337L21.6139 18.1138L21.6083 18.1137L21.5813 19.4337ZM22.8173 19.4193L23.1142 20.7057L23.1329 20.7014L23.1514 20.6966L22.8173 19.4193ZM23.092 18.3278L22.1964 19.2979L22.1989 19.3002L23.092 18.3278ZM20.4721 18.2381L19.7411 17.1387L19.7411 17.1387L20.4721 18.2381ZM22.0223 14.6486L20.7697 15.0661L20.782 15.1029L20.7964 15.1389L22.0223 14.6486ZM22.3258 13.9186L21.6963 12.758L21.688 12.7626L22.3258 13.9186ZM23.8437 14.7064L22.895 15.6247L22.8994 15.6292L23.8437 14.7064ZM22.839 15.5594L23.782 14.6353L23.7726 14.6258L22.839 15.5594ZM26.9083 13.7019L28.2283 13.6749L28.2282 13.6695L26.9083 13.7019ZM27.0213 14.8297L28.075 14.0341L28.075 14.0341L27.0213 14.8297ZM27.1323 14.9379L27.9981 13.941L27.9916 13.9355L27.1323 14.9379ZM28.0069 14.9235L28.9269 15.8704L28.9427 15.8551L28.958 15.8392L28.0069 14.9235ZM28.1032 14.8121L29.2016 15.5446L29.2016 15.5446L28.1032 14.8121ZM28.0141 12.184L27.0659 13.1026L27.0825 13.1198L27.0998 13.1364L28.0141 12.184ZM30.0091 15.516L28.738 15.1585L28.7345 15.1715L30.0091 15.516ZM31.4835 13.9475L32.1755 15.0719L32.185 15.0661L32.1944 15.0601L31.4835 13.9475ZM32.163 13.9186L31.5351 15.08L31.5466 15.0862L31.5583 15.0922L32.163 13.9186ZM31.6787 15.5594L32.6123 16.4929V16.4929L31.6787 15.5594ZM30.2837 16.2605L30.916 15.1014L30.905 15.0956L30.2837 16.2605ZM31.469 18.2556L32.2262 19.3372L32.2304 19.3342L31.469 18.2556ZM31.5269 19.3471L30.9191 20.5191L30.9372 20.5285L30.9555 20.5373L31.5269 19.3471ZM32.864 19.4338L32.8411 18.1137L32.8326 18.1139L32.864 19.4338ZM34.3096 18.8628L33.0099 18.6307L33.0077 18.6428L33.0058 18.6549L34.3096 18.8628ZM34.1578 18.3785L33.1487 19.2299L33.1499 19.2313L34.1578 18.3785ZM32.7094 48.9875L32.7009 50.3077L32.7181 47.6672L32.7094 48.9875ZM32.5067 48.9861L32.5153 47.6659L32.498 50.3064L32.5067 48.9861ZM34.3174 26.1694L33.0021 26.2847L34.3174 26.1694ZM26.6264 0.160902L26.4563 -1.14837C20.7166 -0.402692 15.4573 1.79976 10.866 5.34992L11.6736 6.39438L12.4813 7.43883C16.7068 4.1715 21.5272 2.15474 26.7965 1.47017L26.6264 0.160902ZM11.6736 6.39438L10.8629 5.35235C9.38619 6.5013 6.94318 8.90918 5.72601 10.4155L6.75292 11.2453L7.77983 12.0751C8.87409 10.7209 11.1731 8.45665 12.4844 7.4364L11.6736 6.39438ZM6.75292 11.2453L5.72535 10.4163C2.29475 14.6687 0.0223277 19.6906 -0.945227 25.1505L0.35479 25.3808L1.65481 25.6112C2.54593 20.5827 4.63424 15.9742 7.78049 12.0743L6.75292 11.2453ZM0.35479 25.3808L-0.94473 25.1477C-1.12958 26.1779 -1.2475 27.8409 -1.29553 29.4581C-1.34372 31.0805 -1.32506 32.7777 -1.20844 33.8859L0.104584 33.7478L1.41761 33.6096C1.31976 32.6798 1.29672 31.1231 1.34385 29.5365C1.39113 27.9445 1.50555 26.4431 1.65431 25.614L0.35479 25.3808ZM0.104584 33.7478L-1.20809 33.8892C-0.673741 38.8492 1.05211 43.7078 3.7398 47.8404L4.84659 47.1205L5.95337 46.4007C3.49397 42.6192 1.90756 38.1575 1.41726 33.6063L0.104584 33.7478ZM4.84659 47.1205L3.74119 47.8425C4.95793 49.7055 6.03725 51.0477 7.69141 52.7395L8.63542 51.8165L9.57943 50.8935C8.04048 49.3195 7.0705 48.1112 5.95199 46.3986L4.84659 47.1205ZM8.63542 51.8165L7.68967 52.7377C12.8948 58.0813 19.4782 61.317 26.9505 62.1861L27.103 60.8747L27.2556 59.5633C20.3827 58.7638 14.3605 55.8017 9.58117 50.8953L8.63542 51.8165ZM27.103 60.8747L26.9464 62.1856C28.6606 62.3904 32.6501 62.3512 34.4651 62.1383L34.3113 60.827L34.1576 59.5157C32.5174 59.7081 28.7385 59.7404 27.2596 59.5637L27.103 60.8747ZM34.3113 60.827L34.4743 62.1372C43.7766 60.9802 52.078 55.7677 57.256 47.8427L56.1508 47.1205L55.0455 46.3984C50.2868 53.6816 42.6703 58.4569 34.1484 59.5168L34.3113 60.827ZM56.1508 47.1205L57.2557 47.8432C59.8702 43.8453 61.5352 39.2553 62.1314 34.4712L60.8213 34.3079L59.5111 34.1447C58.9636 38.538 57.4354 42.7439 55.0458 46.3979L56.1508 47.1205ZM60.8213 34.3079L62.1316 34.4697C62.3832 32.4311 62.3831 28.5684 62.1317 26.5192L60.8213 26.68L59.5108 26.8407C59.7361 28.677 59.7359 32.3231 59.511 34.1462L60.8213 34.3079ZM60.8213 26.68L62.1315 26.5176C60.9874 17.2867 55.791 8.95853 47.9639 3.81321L47.2387 4.91646L46.5134 6.0197C53.6987 10.7431 58.4629 18.386 59.511 26.8424L60.8213 26.68ZM47.2387 4.91646L47.9634 3.81291C43.8736 1.12689 39.321 -0.540118 34.476 -1.14906L34.3113 0.160902L34.1467 1.47087C38.595 2.02995 42.7639 3.55716 46.5139 6.02001L47.2387 4.91646ZM34.3113 0.160902L34.4667 -1.1502C32.5554 -1.37661 28.2899 -1.37766 26.4626 -1.14917L26.6264 0.160902L26.7903 1.47097C28.3944 1.27039 32.4453 1.26934 34.156 1.47201L34.3113 0.160902ZM24.5086 18.6459L25.8063 18.8892C25.9325 18.2159 26.4817 17.7206 26.9475 17.6419L26.7276 16.3401L26.5077 15.0382C24.834 15.321 23.5184 16.7628 23.211 18.4026L24.5086 18.6459ZM26.7276 16.3401L26.9354 17.6439C27.0649 17.6232 27.1361 17.6123 27.1884 17.6059C27.2334 17.6004 27.2385 17.6016 27.2279 17.6016C27.2159 17.6015 27.2173 17.6001 27.2541 17.6053C27.2997 17.6119 27.3631 17.6231 27.4853 17.6456L27.725 16.3473L27.9647 15.049C27.7581 15.0108 27.5131 14.963 27.2464 14.9611C26.9865 14.9593 26.7373 15.0016 26.5197 15.0362L26.7276 16.3401ZM27.725 16.3473L27.4841 17.6454C28.1162 17.7627 28.5926 18.2407 28.6951 18.9503L30.0018 18.7615L31.3085 18.5727C31.0497 16.7813 29.7479 15.38 27.966 15.0492L27.725 16.3473ZM30.0018 18.7615L28.6928 18.9337C28.6918 18.9263 28.6942 18.9439 28.6981 19.0016C28.7017 19.0533 28.7055 19.1217 28.7095 19.2068C28.7174 19.3766 28.725 19.5975 28.7317 19.8553C28.7449 20.3703 28.7538 21.0168 28.7538 21.6672H30.0741H31.3944C31.3944 20.3781 31.3608 18.9694 31.3108 18.5893L30.0018 18.7615ZM30.0741 21.6672H28.7538V23.6883H30.0741H31.3944V21.6672H30.0741ZM30.421 23.9152L30.9862 25.1084C31.0141 25.0952 31.0205 25.0938 31.0164 25.0951C31.0114 25.0967 31.0145 25.0949 31.0361 25.0917C31.0998 25.0821 31.2245 25.0728 31.535 25.0692L31.5196 23.749L31.5043 22.4288C30.8581 22.4363 30.4068 22.461 29.8558 22.722L30.421 23.9152ZM31.5196 23.749V25.0692C31.6887 25.0692 31.8009 25.0707 31.8843 25.0742C31.9656 25.0777 31.9966 25.0824 32.0042 25.0837C32.0046 25.0838 32.0025 25.0828 32.0117 25.0861C32.031 25.093 32.068 25.108 32.1575 25.1495L32.7122 23.9514L33.2669 22.7533C33.0467 22.6513 32.7912 22.5395 32.45 22.4811C32.1577 22.431 31.845 22.4287 31.5196 22.4287V23.749ZM32.7122 23.9514L32.1577 25.1495C32.6318 25.369 32.9659 25.8695 33.0016 26.278L34.3168 26.1632L35.6321 26.0484C35.5087 24.6354 34.5418 23.3433 33.2668 22.7532L32.7122 23.9514ZM34.3168 26.1632L33.0016 26.2786L33.0021 26.2847L34.3174 26.1694L35.6326 26.054L35.632 26.0478L34.3168 26.1632ZM34.7216 26.4017L35.2949 27.591C35.4791 27.5022 35.789 27.4566 36.1556 27.5354C36.52 27.6136 36.8091 27.7872 36.9697 27.9691L37.9597 27.0956L38.9497 26.2221C38.3513 25.5439 37.5237 25.1284 36.71 24.9537C35.8984 24.7794 34.9688 24.8169 34.1483 25.2124L34.7216 26.4017ZM37.9597 27.0956L36.9697 27.9691C37.016 28.0217 37.1078 28.1583 37.1969 28.3586C37.2859 28.5585 37.3268 28.72 37.3354 28.7918L38.6463 28.6352L39.9573 28.4787C39.908 28.0661 39.7682 27.6422 39.6096 27.2855C39.4512 26.9293 39.2285 26.5382 38.9497 26.2221L37.9597 27.0956ZM38.6463 28.6352L37.3335 28.7759C37.3434 28.868 37.3557 28.9825 37.3718 29.0813C37.3773 29.1148 37.4154 29.4145 37.597 29.6965C37.7172 29.8829 37.9392 30.1253 38.3008 30.2494C38.6462 30.368 38.9454 30.318 39.1076 30.2736C39.2633 30.231 39.3798 30.1696 39.426 30.1446C39.4791 30.116 39.526 30.0868 39.5437 30.0758L38.8487 28.9533L38.1537 27.8307C38.1335 27.8433 38.1469 27.8344 38.1704 27.8218C38.187 27.8128 38.2777 27.7631 38.4106 27.7267C38.5501 27.6885 38.8298 27.6393 39.158 27.7519C39.5024 27.8701 39.7096 28.1 39.8166 28.2661C39.912 28.4141 39.9495 28.5424 39.9604 28.5813C39.9679 28.6081 39.9724 28.6284 39.9746 28.6391C39.9758 28.6449 39.9767 28.6493 39.9772 28.652C39.9777 28.6548 39.9779 28.6564 39.978 28.6566C39.978 28.6567 39.9774 28.6533 39.9763 28.6452C39.9752 28.6372 39.9739 28.6263 39.9721 28.6119C39.9685 28.582 39.9644 28.5448 39.9591 28.4946L38.6463 28.6352ZM38.8487 28.9533L39.5699 30.0591C39.5423 30.0772 39.5459 30.07 39.5976 30.0515C39.6447 30.0347 39.7116 30.0157 39.7947 29.9993C39.9673 29.9654 40.1472 29.9549 40.2829 29.9658L40.3882 28.6497L40.4935 27.3336C40.0871 27.3011 39.6635 27.334 39.285 27.4085C38.927 27.4789 38.4928 27.6091 38.1274 27.8474L38.8487 28.9533ZM40.3882 28.6497L40.2875 29.9661C40.9907 30.0199 41.5307 30.5116 41.6416 31.2409L42.9469 31.0422L44.2521 30.8436C43.9583 28.9128 42.4311 27.4819 40.4889 27.3333L40.3882 28.6497ZM42.9469 31.0422L41.6438 31.2544C41.6399 31.2308 41.6496 31.3105 41.6584 31.5916C41.6661 31.8365 41.6719 32.1734 41.6754 32.6019C41.6826 33.4575 41.6808 34.6531 41.67 36.1575L42.9902 36.167L44.3105 36.1765C44.3213 34.6668 44.3232 33.4555 44.3159 32.5799C44.3122 32.1428 44.3063 31.783 44.2977 31.5089C44.2902 31.2709 44.2791 31.009 44.25 30.8301L42.9469 31.0422ZM42.9902 36.167L41.67 36.1582C41.6404 40.6067 41.6257 40.7416 41.5283 41.1773L42.8168 41.4653L44.1053 41.7533C44.2825 40.9603 44.2823 40.4157 44.3105 36.1758L42.9902 36.167ZM42.8168 41.4653L41.5305 41.1676C41.4494 41.5181 41.3523 41.8511 41.2692 42.0865C41.2261 42.2083 41.1971 42.2747 41.1867 42.2959C41.1799 42.3096 41.1952 42.2754 41.2344 42.2202C41.2543 42.1923 41.2976 42.1345 41.3659 42.0684C41.4249 42.0114 41.5683 41.8833 41.7966 41.7976L42.2602 43.0338L42.7238 44.27C43.143 44.1128 43.3571 43.7916 43.3854 43.7518C43.4618 43.6446 43.5178 43.539 43.5545 43.4646C43.631 43.3095 43.7 43.1329 43.759 42.9656C43.8801 42.6227 44.0035 42.1932 44.103 41.763L42.8168 41.4653ZM42.2602 43.0338L41.7496 41.8163C40.8868 42.1782 40.1122 42.4585 39.4751 42.6529L39.8606 43.9157L40.2461 45.1784C40.9823 44.9537 41.8412 44.6412 42.7708 44.2514L42.2602 43.0338ZM39.8606 43.9157L39.4821 42.6508C39.0316 42.7856 38.5528 42.9465 38.1838 43.1963C37.9754 43.3373 37.7475 43.5411 37.5808 43.8373C37.4087 44.143 37.3549 44.4524 37.3549 44.718H38.6752H39.9955C39.9955 44.8102 39.9751 44.9668 39.8819 45.1325C39.794 45.2886 39.6903 45.3651 39.6636 45.3832C39.6433 45.3969 39.665 45.3789 39.7738 45.3358C39.878 45.2946 40.0265 45.2441 40.2391 45.1805L39.8606 43.9157ZM38.6752 44.718H37.3549C37.3549 45.3403 37.6995 45.7955 37.9453 46.031C38.1973 46.2724 38.6466 46.5732 39.2318 46.5732V45.2529V43.9326C39.4139 43.9326 39.5446 43.9823 39.6126 44.0151C39.6845 44.0499 39.7354 44.0892 39.772 44.1243C39.8082 44.1589 39.8536 44.2117 39.8953 44.291C39.9347 44.3661 39.9955 44.5129 39.9955 44.718H38.6752ZM39.2318 45.2529V46.5732C39.4203 46.5732 39.6088 46.531 39.6593 46.5203C39.7595 46.499 39.8733 46.4712 39.9899 46.4407C40.2248 46.3792 40.5093 46.2966 40.79 46.207L40.3882 44.9493L39.9864 43.6917C39.7467 43.7682 39.5072 43.8375 39.3211 43.8862C39.2271 43.9108 39.1563 43.9277 39.1107 43.9374C39.0874 43.9423 39.0802 43.9434 39.0852 43.9426C39.0879 43.9422 39.0999 43.9403 39.1188 43.9383C39.1341 43.9367 39.1755 43.9326 39.2318 43.9326V45.2529ZM40.3882 44.9493L40.785 46.2086C41.033 46.1304 41.2548 46.0666 41.4089 46.0265C41.4892 46.0056 41.5335 45.9958 41.5475 45.9931C41.5595 45.9908 41.5299 45.9973 41.4791 46.002C41.4586 46.0038 41.386 46.0104 41.2898 46.004C41.2426 46.0009 41.1482 45.9923 41.0327 45.9606C40.9727 45.9441 40.8893 45.9166 40.7952 45.8697C40.7022 45.8234 40.5761 45.7467 40.4521 45.6227L41.3857 44.6891L42.3192 43.7555C42.0841 43.5203 41.828 43.4407 41.7321 43.4143C41.6136 43.3818 41.5154 43.3726 41.4635 43.3692C41.3582 43.3623 41.2732 43.3692 41.2374 43.3725C41.1558 43.38 41.0835 43.3933 41.0423 43.4013C40.9496 43.4194 40.8448 43.4448 40.7444 43.4709C40.5371 43.5249 40.2711 43.602 39.9915 43.6901L40.3882 44.9493ZM41.3857 44.6891L40.5024 45.6704C40.2559 45.4485 40.1627 45.1972 40.128 45.0833C40.0892 44.956 40.0794 44.8518 40.0761 44.7998C40.0694 44.6954 40.0787 44.621 40.0802 44.6088C40.0844 44.5733 40.0873 44.5709 40.0751 44.6212C40.0535 44.71 40.0117 44.854 39.9534 45.0313C39.8965 45.2044 39.8306 45.3891 39.7661 45.5548C39.6986 45.7281 39.6442 45.8507 39.6118 45.9136L40.7857 46.5178L41.9597 47.122C42.135 46.7813 42.3289 46.2605 42.4619 45.8558C42.5311 45.6455 42.5963 45.4285 42.6409 45.2451C42.6617 45.1594 42.6875 45.0431 42.7019 44.9236C42.7084 44.8695 42.7196 44.7605 42.7112 44.6301C42.707 44.5651 42.6954 44.45 42.654 44.314C42.6167 44.1915 42.52 43.9337 42.2689 43.7078L41.3857 44.6891ZM40.7857 46.5178L39.6168 45.9041C39.3219 46.4658 38.6511 47.0771 37.8996 47.3852L38.4006 48.6068L38.9015 49.8283C40.1594 49.3125 41.3389 48.3046 41.9547 47.1315L40.7857 46.5178ZM38.4006 48.6068L37.9072 47.3822C37.4864 47.5517 37.3343 47.608 36.8279 47.644C36.2075 47.6882 35.195 47.6843 33.0828 47.6696L33.0736 48.9899L33.0645 50.3101C35.1156 50.3244 36.2641 50.3314 37.0153 50.2779C37.8803 50.2164 38.3101 50.0666 38.894 49.8314L38.4006 48.6068ZM33.0736 48.9899L33.0823 47.6696L32.6582 47.6668L32.6495 48.9871L32.6408 50.3073L33.0649 50.3101L33.0736 48.9899ZM32.6495 48.9871L32.6581 47.6668C31.2337 47.6575 30.3899 47.6517 29.8185 47.6226C29.2648 47.5944 29.0712 47.5478 28.9245 47.4968L28.491 48.7439L28.0575 49.991C28.5441 50.1601 29.0212 50.226 29.6842 50.2597C30.3295 50.2926 31.2483 50.2982 32.6409 50.3073L32.6495 48.9871ZM28.491 48.7439L28.9245 47.4968C28.7966 47.4524 28.6635 47.3901 28.3737 47.2507L27.8013 48.4405L27.229 49.6302C27.4847 49.7533 27.76 49.8876 28.0575 49.991L28.491 48.7439ZM27.8013 48.4405L28.3731 47.2505L28.268 47.1999L27.6961 48.3899L27.1243 49.5799L27.2295 49.6305L27.8013 48.4405ZM27.6961 48.3899L28.2804 47.206C28.0278 47.0813 27.9074 47.0103 27.807 46.938C27.7027 46.863 27.5807 46.7582 27.3507 46.5315L26.424 47.472L25.4974 48.4124C25.7588 48.67 25.9946 48.8869 26.2643 49.0811C26.538 49.2781 26.8079 49.4239 27.1118 49.5739L27.6961 48.3899ZM26.424 47.472L27.3541 46.5349C26.9715 46.1551 26.7621 45.8433 26.6268 45.5075C26.4851 45.1561 26.3909 44.6946 26.3549 43.9663L25.0363 44.0313L23.7176 44.0964C23.7612 44.9799 23.8838 45.7654 24.1776 46.4945C24.4778 47.2393 24.9225 47.8419 25.494 48.409L26.424 47.472ZM25.0363 44.0313L26.3548 43.9631C26.3439 43.7525 26.337 43.6054 26.3338 43.4993C26.3303 43.3786 26.3338 43.3667 26.3307 43.3993C26.3293 43.4147 26.321 43.5045 26.2816 43.6236C26.2441 43.7366 26.1362 44.0059 25.85 44.2246C25.5288 44.47 25.1842 44.502 24.9677 44.4839C24.789 44.469 24.6606 44.4178 24.6522 44.4146L25.1158 43.1784L25.5794 41.9422C25.542 41.9282 25.3881 41.8693 25.187 41.8525C24.9482 41.8326 24.5844 41.8685 24.247 42.1263C23.9445 42.3574 23.8232 42.6477 23.7752 42.7926C23.7251 42.9438 23.709 43.0767 23.7021 43.149C23.6795 43.3856 23.699 43.7372 23.7178 44.0995L25.0363 44.0313ZM25.1158 43.1784L24.6254 44.4042C24.5665 44.3807 24.5251 44.3587 24.5162 44.354C24.5014 44.3461 24.4925 44.3409 24.4922 44.3407C24.4915 44.3403 24.5005 44.3456 24.5223 44.3596C24.5648 44.3867 24.6283 44.4287 24.7109 44.485C24.8746 44.5963 25.0891 44.7468 25.3137 44.9082L26.0843 43.8362L26.8549 42.7641C26.617 42.5931 26.3833 42.4291 26.1964 42.3019C26.1038 42.2389 26.0164 42.1806 25.9428 42.1337C25.9219 42.1203 25.7649 42.0161 25.6061 41.9526L25.1158 43.1784ZM26.0843 43.8362L25.3216 44.9138C25.5692 45.0891 25.814 45.255 26.0133 45.3839C26.112 45.4477 26.2072 45.5074 26.2899 45.5563C26.3204 45.5743 26.4908 45.679 26.6715 45.7392L27.089 44.4867L27.5065 43.2342C27.5676 43.2546 27.611 43.2745 27.6243 43.2807C27.6423 43.289 27.6537 43.295 27.656 43.2962C27.6603 43.2985 27.6538 43.2952 27.6331 43.2829C27.5927 43.2591 27.5302 43.2203 27.4473 43.1667C27.2834 43.0606 27.0692 42.9157 26.847 42.7585L26.0843 43.8362ZM27.089 44.4867L26.7007 45.7486C27.0133 45.8448 27.2958 45.8227 27.4687 45.7947C27.6588 45.7639 27.8351 45.7062 27.9873 45.6382C28.1386 45.5708 28.3041 45.4763 28.4592 45.3482C28.5972 45.2342 28.8245 45.0138 28.954 44.6684L27.7178 44.2048L26.4816 43.7412C26.5786 43.4825 26.7345 43.3479 26.7778 43.3122C26.8384 43.2622 26.8859 43.2382 26.9116 43.2267C26.9383 43.2148 26.9813 43.1987 27.046 43.1882C27.0936 43.1805 27.2586 43.1575 27.4773 43.2248L27.089 44.4867ZM27.7178 44.2048L28.9703 44.6223C29.0491 44.3861 29.0814 44.0926 29.0814 43.8795H27.7612H26.4409C26.4409 43.8687 26.4413 43.8651 26.4411 43.8687C26.4408 43.8718 26.4404 43.8761 26.4398 43.8801C26.4392 43.8846 26.4392 43.883 26.441 43.8747C26.4419 43.8703 26.4438 43.8615 26.447 43.8489C26.45 43.8373 26.4558 43.8157 26.4653 43.7873L27.7178 44.2048ZM27.7612 43.8795H29.0814C29.0814 43.6484 29.04 43.3359 28.8386 43.0069C28.6844 42.7549 28.4788 42.5677 28.3274 42.4397C28.0178 42.1777 27.4849 41.8009 26.64 41.2084L25.8819 42.2893L25.1239 43.3703C26.0209 43.9993 26.4276 44.2911 26.6221 44.4556C26.7228 44.5408 26.6604 44.5063 26.5864 44.3853C26.5394 44.3086 26.4955 44.211 26.4682 44.0974C26.4424 43.99 26.4409 43.9068 26.4409 43.8795H27.7612ZM25.8819 42.2893L26.6421 41.2099C25.0783 40.1085 24.7345 39.8402 24.4148 39.526L23.4895 40.4678L22.5642 41.4096C23.0685 41.905 23.6065 42.3017 25.1217 43.3688L25.8819 42.2893ZM23.4895 40.4678L24.4136 39.5249C24.4139 39.5252 24.4122 39.5235 24.4084 39.5196C24.4047 39.5156 24.3995 39.5101 24.3928 39.5027C24.3792 39.4877 24.3614 39.4675 24.3395 39.4415C24.2952 39.3889 24.2405 39.3207 24.1759 39.2367C24.0467 39.0684 23.8918 38.8545 23.7221 38.6094C23.3826 38.1191 23.0034 37.532 22.6799 36.9883L21.5452 37.6633L20.4106 38.3383C20.7665 38.9366 21.1787 39.5747 21.5512 40.1126C21.8977 40.6131 22.2811 41.1322 22.5654 41.4108L23.4895 40.4678ZM21.5452 37.6633L22.6817 36.9912C21.8385 35.5655 20.6501 33.9387 19.1322 32.0908L18.112 32.9288L17.0918 33.7668C18.5662 35.5619 19.6618 37.0721 20.4088 38.3353L21.5452 37.6633ZM18.112 32.9288L19.1309 32.0892C18.8297 31.7236 18.6234 31.4722 18.4752 31.2792C18.4028 31.1848 18.3538 31.1166 18.3201 31.0661C18.2864 31.0155 18.2765 30.995 18.2772 30.9964C18.2924 31.0278 18.3212 31.1154 18.3203 31.214C18.3199 31.2472 18.3134 31.2506 18.3565 31.0441L17.064 30.7748L15.7714 30.5055C15.7422 30.6459 15.6824 30.9123 15.6798 31.1896C15.6767 31.5324 15.7542 31.8455 15.9013 32.1488C16.0285 32.4109 16.2045 32.6575 16.3804 32.8868C16.5625 33.124 16.8017 33.4148 17.0931 33.7684L18.112 32.9288ZM17.064 30.7748L18.3592 31.0304C18.3615 31.0188 18.4231 30.8051 18.8832 30.5751L18.2927 29.3942L17.7022 28.2133C16.8035 28.6627 15.9832 29.4321 15.7687 30.5192L17.064 30.7748ZM18.2927 29.3942L18.8782 30.5776C19.1462 30.4449 19.3254 30.3857 19.4942 30.3542C19.6707 30.3213 19.8979 30.3073 20.2764 30.3292L20.3526 29.0111L20.4289 27.693C19.9328 27.6643 19.4733 27.672 19.0102 27.7584C18.5393 27.8462 18.1258 28.0037 17.7072 28.2108L18.2927 29.3942ZM20.3526 29.0111L20.281 30.3294C21.2692 30.3831 22.1809 30.785 22.9815 31.5628L23.9015 30.6158L24.8215 29.6688C23.5983 28.4805 22.0959 27.7836 20.4243 27.6928L20.3526 29.0111ZM24.4364 30.3899H25.7566V25.0862H24.4364H23.1161V30.3899H24.4364ZM24.4364 25.0862H25.7566C25.7566 23.2131 25.7639 21.6681 25.7764 20.5637C25.7827 20.0108 25.7903 19.573 25.7988 19.2614C25.8031 19.1049 25.8075 18.9866 25.8117 18.9043C25.8176 18.7872 25.8203 18.8122 25.8076 18.882L24.5086 18.6459L23.2097 18.4097C23.1861 18.5392 23.1784 18.6929 23.1745 18.7701C23.1688 18.8822 23.1638 19.0237 23.1593 19.1891C23.1502 19.5213 23.1424 19.9752 23.1361 20.5337C23.1233 21.6519 23.1161 23.2079 23.1161 25.0862H24.4364ZM20.3598 18.335L19.4128 17.4151C19.078 17.7598 18.8602 18.2227 18.851 18.7408C18.8418 19.2565 19.0409 19.7211 19.3485 20.0753L20.3454 19.2096L21.3423 18.344C21.4113 18.4235 21.4948 18.5773 21.4911 18.7876C21.4873 19.0003 21.3959 19.1633 21.3069 19.2549L20.3598 18.335ZM20.3454 19.2096L19.3429 20.0688C19.3593 20.0879 19.5008 20.265 19.7033 20.4073C19.9477 20.579 20.1947 20.6523 20.3945 20.6885C20.6823 20.7407 21.0961 20.7444 21.5544 20.7537L21.5813 19.4337L21.6083 18.1137C21.3368 18.1082 21.1537 18.1044 21.0182 18.0988C20.9522 18.0961 20.9086 18.0934 20.8797 18.091C20.8498 18.0885 20.849 18.0873 20.8655 18.0903C20.883 18.0935 20.9327 18.1036 20.9994 18.1288C21.0717 18.1561 21.1478 18.1951 21.2212 18.2467C21.291 18.2957 21.337 18.3413 21.3561 18.3611C21.3689 18.3744 21.3759 18.3832 21.3478 18.3504L20.3454 19.2096ZM21.5813 19.4337L21.5487 20.7536C21.8555 20.7612 22.1573 20.7631 22.3996 20.7602C22.5198 20.7588 22.6332 20.756 22.7288 20.7515C22.7737 20.7494 22.9524 20.743 23.1142 20.7057L22.8173 19.4193L22.5204 18.1328C22.5723 18.1208 22.6107 18.1157 22.6213 18.1143C22.6293 18.1132 22.6353 18.1125 22.6387 18.1122C22.6423 18.1118 22.6444 18.1116 22.6448 18.1116C22.6454 18.1115 22.6424 18.1118 22.6349 18.1123C22.6276 18.1127 22.6177 18.1133 22.6049 18.1139C22.5515 18.1164 22.4715 18.1186 22.3677 18.1199C22.1618 18.1224 21.8926 18.1207 21.6139 18.1138L21.5813 19.4337ZM22.8173 19.4193L23.1514 20.6966C23.9301 20.4929 24.3939 19.8719 24.5445 19.2696C24.6947 18.6689 24.579 17.9009 23.985 17.3554L23.092 18.3278L22.1989 19.3002C21.9591 19.08 21.941 18.7963 21.9828 18.6292C22.0249 18.4607 22.1744 18.2227 22.4832 18.1419L22.8173 19.4193ZM23.092 18.3278L23.9875 17.3577C23.943 17.3166 23.7925 17.1726 23.5745 17.0579C23.3431 16.9362 23.1205 16.8877 22.9421 16.8638C22.6558 16.8254 22.2455 16.8268 21.7259 16.8268V18.1471V19.4674C22.0142 19.4674 22.2168 19.4679 22.3679 19.4709C22.4423 19.4724 22.4961 19.4744 22.5356 19.4767C22.5759 19.479 22.5915 19.481 22.5913 19.481C22.5883 19.4805 22.4812 19.4664 22.3451 19.3948C22.2225 19.3303 22.147 19.2523 22.1964 19.2979L23.092 18.3278ZM21.7259 18.1471V16.8268C21.2904 16.8268 20.9568 16.8261 20.7229 16.8408C20.4862 16.8556 20.11 16.8934 19.7411 17.1387L20.4721 18.2381L21.203 19.3376C21.098 19.4074 20.9925 19.4477 20.9113 19.4677C20.8524 19.4821 20.8293 19.4798 20.8881 19.4761C20.9425 19.4727 21.029 19.4701 21.1738 19.4687C21.3161 19.4674 21.4937 19.4674 21.7259 19.4674V18.1471ZM20.4721 18.2381L19.7411 17.1387C19.5856 17.242 19.4647 17.3641 19.444 17.384L20.3598 18.335L21.2757 19.286C21.2871 19.275 21.2924 19.27 21.2965 19.266C21.3001 19.2626 21.2983 19.2644 21.2933 19.2689C21.2829 19.2781 21.2511 19.3056 21.2031 19.3375L20.4721 18.2381ZM22.0223 14.6486L23.2748 14.2311C23.3385 14.4223 23.3266 14.569 23.3198 14.6231C23.3117 14.6876 23.297 14.7297 23.2871 14.7534C23.2769 14.7777 23.2593 14.8132 23.225 14.8576C23.1959 14.8952 23.1156 14.9907 22.9637 15.0746L22.3258 13.9186L21.688 12.7626C21.2148 13.0237 20.965 13.4609 20.8496 13.7379C20.7392 14.003 20.5868 14.5172 20.7697 15.0661L22.0223 14.6486ZM22.3258 13.9186L22.9553 15.0791C22.9937 15.0583 22.898 15.1192 22.7259 15.133C22.6352 15.1404 22.5458 15.133 22.464 15.114C22.3858 15.0958 22.3321 15.0711 22.3068 15.0579C22.2704 15.039 22.2968 15.0457 22.4168 15.1532C22.53 15.2546 22.6806 15.4031 22.895 15.6247L23.8437 14.7064L24.7923 13.7882C24.3976 13.3804 23.9714 12.9477 23.5266 12.716C23.2464 12.5701 22.9048 12.4696 22.5139 12.501C22.154 12.53 21.8712 12.6632 21.6964 12.758L22.3258 13.9186ZM23.8437 14.7064L22.8994 15.6292C23.0549 15.7883 23.1594 15.8971 23.2334 15.9784C23.3112 16.0639 23.3233 16.0845 23.313 16.0693C23.305 16.0573 23.2865 16.0282 23.266 15.9843C23.2444 15.9381 23.2252 15.8854 23.211 15.8284C23.1842 15.7209 23.1884 15.6438 23.1884 15.6895H24.5086H25.8289C25.8289 15.5978 25.8277 15.4087 25.7733 15.1905C25.7146 14.9546 25.6147 14.7603 25.5055 14.5977C25.3339 14.342 25.065 14.0672 24.788 13.7837L23.8437 14.7064ZM24.5086 15.6895H23.1884C23.1884 15.6149 23.216 15.4246 23.3892 15.2456C23.5668 15.0622 23.7726 15.0197 23.8798 15.0197V16.34V17.6603C24.3702 17.6603 24.8904 17.4914 25.2865 17.0821C25.6784 16.6772 25.8289 16.1616 25.8289 15.6895H24.5086ZM23.8798 16.34V15.0197C23.8625 15.0197 23.9656 15.0168 24.0999 15.0583C24.2354 15.1002 24.315 15.159 24.3213 15.1637C24.3234 15.1653 24.3136 15.1581 24.2881 15.1355C24.2629 15.1132 24.2285 15.0814 24.1814 15.036C24.0854 14.9434 23.9595 14.8165 23.782 14.6353L22.839 15.5594L21.896 16.4834C22.2189 16.8129 22.4984 17.0976 22.7391 17.2778C22.8854 17.3873 23.0765 17.5058 23.3203 17.5811C23.5627 17.656 23.7707 17.6603 23.8798 17.6603V16.34ZM22.839 15.5594L23.7726 14.6258C23.5762 14.4294 23.3968 14.2382 23.2675 14.0931C23.202 14.0195 23.1565 13.9658 23.1308 13.9339C23.1173 13.917 23.1173 13.9162 23.1252 13.9274C23.1292 13.933 23.1416 13.9506 23.1577 13.977C23.1682 13.9941 23.2094 14.0614 23.2481 14.1583L22.0223 14.6486L20.7964 15.1389C20.8648 15.31 20.9602 15.4391 20.9711 15.4546C21.006 15.5038 21.0424 15.5504 21.0734 15.589C21.1369 15.668 21.2139 15.7575 21.2957 15.8493C21.4609 16.0348 21.6754 16.2629 21.9054 16.4929L22.839 15.5594ZM27.1107 12.1478L26.1771 11.2143C26.0675 11.3238 25.9191 11.491 25.8006 11.7331C25.6862 11.967 25.6363 12.1956 25.6108 12.3911C25.5667 12.7298 25.5749 13.182 25.5884 13.7343L26.9083 13.7019L28.2282 13.6695C28.221 13.3759 28.2174 13.1625 28.2185 13.0004C28.2196 12.833 28.2258 12.7589 28.2292 12.7322C28.2318 12.7126 28.2248 12.7867 28.1725 12.8937C28.1161 13.0088 28.049 13.0766 28.0443 13.0814L27.1107 12.1478ZM26.9083 13.7019L25.5883 13.7288C25.5961 14.1108 25.6016 14.4209 25.6212 14.6425C25.641 14.865 25.6892 15.2564 25.9676 15.6252L27.0213 14.8297L28.075 14.0341C28.1131 14.0846 28.1483 14.1411 28.178 14.2023C28.207 14.262 28.2252 14.3146 28.2365 14.354C28.2561 14.4227 28.2557 14.4567 28.2515 14.4091C28.2476 14.366 28.2436 14.2929 28.2396 14.1643C28.2357 14.0384 28.2325 13.8814 28.2283 13.6749L26.9083 13.7019ZM27.0213 14.8297L25.9676 15.6252C26.0984 15.7984 26.2544 15.9242 26.2731 15.9403L27.1323 14.9379L27.9916 13.9355C27.9786 13.9244 27.9734 13.9199 27.9695 13.9165C27.9663 13.9136 27.9699 13.9167 27.977 13.9235C27.9916 13.9372 28.0307 13.9754 28.075 14.0341L27.0213 14.8297ZM27.1323 14.9379L26.2666 15.9347C26.6208 16.2423 27.0854 16.4415 27.6012 16.4323C28.1193 16.4232 28.5822 16.2053 28.9269 15.8704L28.0069 14.9235L27.087 13.9765C27.1786 13.8874 27.3416 13.796 27.5544 13.7922C27.7647 13.7885 27.9185 13.872 27.998 13.9411L27.1323 14.9379ZM28.0069 14.9235L28.958 15.8392C28.9778 15.8186 29.0988 15.6987 29.2016 15.5446L28.1032 14.8121L27.0048 14.0795C27.0364 14.0321 27.0637 14.0005 27.0728 13.9903C27.0773 13.9852 27.0791 13.9834 27.0757 13.987C27.0718 13.9911 27.0668 13.9963 27.0559 14.0077L28.0069 14.9235ZM28.1032 14.8121L29.2016 15.5446C29.4486 15.1742 29.4862 14.7959 29.5011 14.5581C29.5158 14.3224 29.5151 13.9852 29.5151 13.5429H28.1948H26.8746C26.8746 13.7785 26.8746 13.9587 26.8732 14.1031C26.8718 14.25 26.8691 14.3381 26.8657 14.3936C26.8619 14.4536 26.8596 14.431 26.8739 14.3723C26.8939 14.2909 26.9345 14.185 27.0047 14.0796L28.1032 14.8121ZM28.1948 13.5429H29.5151C29.5151 13.0205 29.5183 12.6033 29.4814 12.3207C29.458 12.1425 29.4076 11.9013 29.2658 11.6524C29.1334 11.4199 28.9641 11.2657 28.9285 11.2316L28.0141 12.184L27.0998 13.1364C27.1545 13.1889 27.053 13.1025 26.9714 12.9593C26.8804 12.7996 26.8639 12.6691 26.8632 12.6634C26.8628 12.6609 26.8647 12.675 26.8668 12.7157C26.8689 12.7556 26.8707 12.8101 26.8719 12.8861C26.8745 13.0408 26.8746 13.2472 26.8746 13.5429H28.1948ZM28.0141 12.184L28.9624 11.2653C28.5531 10.8427 28.0197 10.6964 27.6056 10.6812C27.2038 10.6664 26.6245 10.7669 26.1771 11.2143L27.1107 12.1478L28.0443 13.0814C27.9182 13.2074 27.7898 13.2649 27.7091 13.2906C27.6267 13.3168 27.5587 13.3218 27.5084 13.3199C27.4376 13.3173 27.2512 13.2939 27.0659 13.1026L28.0141 12.184ZM30.0091 15.516L31.28 15.8734C31.2464 15.9929 31.2036 16.0721 31.1946 16.0888C31.1802 16.1156 31.1712 16.1286 31.1742 16.1241C31.1802 16.115 31.2017 16.0847 31.2448 16.0309C31.3289 15.9258 31.4517 15.7854 31.5928 15.6349C31.7329 15.4855 31.8774 15.3407 32.0015 15.2257C32.147 15.0907 32.2009 15.0563 32.1755 15.0719L31.4835 13.9475L30.7916 12.8231C30.5782 12.9544 30.362 13.1449 30.206 13.2896C30.0285 13.4542 29.8401 13.6437 29.6667 13.8286C29.4943 14.0124 29.323 14.2063 29.1833 14.3808C29.1144 14.4669 29.0416 14.5627 28.9772 14.6593C28.9397 14.7155 28.808 14.91 28.7381 15.1586L30.0091 15.516ZM31.4835 13.9475L32.1944 15.0601C32.2526 15.0228 32.1188 15.125 31.8779 15.1355C31.6319 15.1462 31.4847 15.0527 31.5351 15.08L32.163 13.9186L32.7908 12.7571C32.5738 12.6398 32.217 12.4777 31.7632 12.4974C31.3145 12.517 30.9746 12.7059 30.7727 12.8349L31.4835 13.9475ZM32.163 13.9186L31.5583 15.0922C31.5688 15.0977 31.516 15.0724 31.4452 15.011C31.3627 14.9395 31.2792 14.8397 31.2173 14.7147C31.1603 14.5996 31.1441 14.5079 31.1397 14.4776C31.136 14.4519 31.139 14.4562 31.139 14.5185H32.4593H33.7796C33.7796 14.3207 33.7749 13.9295 33.5838 13.5435C33.3572 13.0855 32.9913 12.8601 32.7676 12.7449L32.163 13.9186ZM32.4593 14.5185H31.139C31.139 14.5024 31.14 14.3938 31.1855 14.2584C31.2273 14.1339 31.2806 14.065 31.2768 14.0701C31.2694 14.0799 31.2353 14.1226 31.1393 14.2242C31.0471 14.3219 30.9215 14.4494 30.7451 14.6258L31.6787 15.5594L32.6123 16.4929C32.9414 16.1638 33.216 15.8863 33.3925 15.65C33.4953 15.5124 33.6108 15.3305 33.6884 15.0998C33.7696 14.8583 33.7796 14.6502 33.7796 14.5185H32.4593ZM31.6787 15.5594L30.7451 14.6258C30.5782 14.7927 30.4545 14.9145 30.358 15.0058C30.2585 15.1 30.2099 15.1405 30.191 15.1551C30.1724 15.1694 30.2255 15.1246 30.3319 15.083C30.3884 15.0609 30.4501 15.0434 30.5144 15.0325C30.5772 15.0218 30.6281 15.0197 30.6596 15.0197V16.34V17.6603C30.8432 17.6603 31.0592 17.6338 31.2935 17.5422C31.5056 17.4593 31.6744 17.3453 31.8003 17.2485C32.0274 17.0739 32.2954 16.8098 32.6123 16.4929L31.6787 15.5594ZM30.6596 16.34V15.0197C30.686 15.0197 30.7025 15.0214 30.7089 15.0222C30.7162 15.023 30.722 15.024 30.7281 15.0253C30.7335 15.0265 30.7479 15.0297 30.7708 15.0373C30.7882 15.043 30.8429 15.0616 30.916 15.1015L30.2837 16.2605L29.6515 17.4196C29.853 17.5295 30.0563 17.582 30.1772 17.6077C30.3171 17.6376 30.4848 17.6603 30.6596 17.6603V16.34ZM30.2837 16.2605L30.905 15.0956C31.0516 15.1737 31.1405 15.269 31.1878 15.3308C31.2365 15.3945 31.2629 15.4506 31.2778 15.4914C31.3007 15.5541 31.3325 15.6794 31.2836 15.8605L30.0091 15.516L28.7345 15.1715C28.6133 15.6201 28.674 16.0598 28.7981 16.399C28.9164 16.7221 29.1716 17.1637 29.6624 17.4254L30.2837 16.2605ZM31.469 18.2556L30.7119 17.174C30.0784 17.6174 29.8692 18.3247 29.8974 18.8865C29.9257 19.4489 30.2089 20.1509 30.9191 20.5191L31.5269 19.3471L32.1346 18.175C32.4545 18.3408 32.5281 18.6235 32.5347 18.7541C32.5412 18.884 32.4982 19.1467 32.2262 19.3372L31.469 18.2556ZM31.5269 19.3471L30.9555 20.5373C31.2544 20.6808 31.5453 20.7287 31.8314 20.7483C32.0974 20.7665 32.4426 20.7645 32.8954 20.7537L32.864 19.4338L32.8326 18.1139C32.3747 18.1248 32.1416 18.1228 32.0119 18.1139C31.9023 18.1064 31.98 18.1001 32.0982 18.1568L31.5269 19.3471ZM32.864 19.4338L32.8869 20.7539C33.1983 20.7485 33.4794 20.7409 33.7153 20.7213C33.9343 20.7032 34.2286 20.6675 34.5143 20.5538C34.8621 20.4153 35.1758 20.1703 35.3816 19.7979C35.5449 19.5023 35.5926 19.2011 35.6134 19.0706L34.3096 18.8628L33.0058 18.6549C32.9986 18.6998 32.9966 18.703 33.0009 18.6869C33.0057 18.669 33.0242 18.6045 33.0704 18.5208C33.1206 18.43 33.1938 18.3342 33.2927 18.2503C33.3883 18.1691 33.4787 18.124 33.5375 18.1006C33.5921 18.0788 33.6229 18.0744 33.6101 18.0768C33.5982 18.079 33.5643 18.0842 33.4971 18.0898C33.3572 18.1014 33.1549 18.1083 32.8411 18.1137L32.864 19.4338ZM34.3096 18.8628L35.6093 19.0949C35.6431 18.9056 35.6814 18.5875 35.567 18.2214C35.4625 17.8868 35.2709 17.65 35.1657 17.5257L34.1578 18.3785L33.1499 19.2313C33.2037 19.2949 33.1061 19.199 33.0467 19.009C32.9775 18.7875 33.0122 18.6175 33.0099 18.6307L34.3096 18.8628ZM33.66 18.1472V16.8269H32.7917V18.1472V19.4674H33.66V18.1472ZM32.7917 18.1472V16.8269C32.3383 16.8269 31.9871 16.8317 31.7255 16.8529C31.5227 16.8694 31.0905 16.9067 30.7076 17.177L31.469 18.2556L32.2304 19.3342C32.0841 19.4375 31.9562 19.4737 31.9128 19.4844C31.8737 19.4939 31.8709 19.4903 31.9389 19.4848C32.0785 19.4735 32.3272 19.4674 32.7917 19.4674V18.1472ZM32.7094 48.9875L32.718 47.6672C32.6978 47.6671 32.6783 47.667 32.6581 47.6668L32.6495 48.9871L32.6409 50.3073C32.6604 50.3075 32.6809 50.3076 32.7009 50.3077L32.7094 48.9875ZM32.6495 48.9871L32.6581 47.6668C32.6095 47.6665 32.5626 47.6662 32.5154 47.6659L32.5067 48.9861L32.498 50.3064C32.5447 50.3067 32.593 50.307 32.6408 50.3073L32.6495 48.9871ZM32.5067 48.9861L32.498 50.3064C32.5644 50.3068 32.632 50.3073 32.7008 50.3077L32.7094 48.9875L32.7181 47.6672C32.6493 47.6668 32.5817 47.6663 32.5153 47.6659L32.5067 48.9861ZM34.1578 18.3785L35.1669 17.5271C34.7923 17.0831 34.2409 16.8269 33.66 16.8269V18.1472V19.4674C33.4629 19.4674 33.2758 19.3805 33.1487 19.2299L34.1578 18.3785ZM23.9015 30.6158L22.9808 31.562C24.0173 32.5706 25.7566 31.8361 25.7566 30.3899H24.4364H23.1161C23.1161 29.501 24.1851 29.0496 24.8222 29.6695L23.9015 30.6158ZM34.3174 26.1694L33.0021 26.2847C33.0997 27.3964 34.2741 28.0715 35.2838 27.5963L34.7216 26.4017L34.1594 25.2071C34.8113 24.9003 35.5696 25.3362 35.6326 26.054L34.3174 26.1694ZM30.0741 23.6883H28.7538C28.7538 24.819 29.9143 25.578 30.9502 25.1248L30.421 23.9152L29.8918 22.7057C30.6005 22.3956 31.3944 22.9148 31.3944 23.6883H30.0741Z" fill="url(#paint2_linear_978_55)" mask="url(#path-1-inside-1_978_55)"/>
<defs>
<filter id="filter0_i_978_55" x="0" y="0" width="61.3301" height="61.3301" filterUnits="userSpaceOnUse" color-interpolation-filters="sRGB">
<feFlood flood-opacity="0" result="BackgroundImageFix"/>
<feBlend mode="normal" in="SourceGraphic" in2="BackgroundImageFix" result="shape"/>
<feColorMatrix in="SourceAlpha" type="matrix" values="0 0 0 0 0 0 0 0 0 0 0 0 0 0 0 0 0 0 127 0" result="hardAlpha"/>
<feOffset dx="0.660136" dy="0.660136"/>
<feGaussianBlur stdDeviation="0.165034"/>
<feComposite in2="hardAlpha" operator="arithmetic" k2="-1" k3="1"/>
<feColorMatrix type="matrix" values="0 0 0 0 1 0 0 0 0 1 0 0 0 0 1 0 0 0 1 0"/>
<feBlend mode="normal" in2="shape" result="effect1_innerShadow_978_55"/>
</filter>
<linearGradient id="paint0_linear_978_55" x1="9.05469" y1="6.19531" x2="41.9375" y2="61" gradientUnits="userSpaceOnUse">
<stop stop-color="#F5F5F9"/>
<stop offset="1" stop-color="#DADFE7"/>
</linearGradient>
<linearGradient id="paint1_linear_978_55" x1="9.05469" y1="6.19531" x2="41.9375" y2="61" gradientUnits="userSpaceOnUse">
<stop stop-color="#F5F5F9"/>
<stop offset="1" stop-color="#DADFE7"/>
</linearGradient>
<linearGradient id="paint2_linear_978_55" x1="6.83621" y1="8.41379" x2="49.431" y2="56.2672" gradientUnits="userSpaceOnUse">
<stop stop-color="white"/>
<stop offset="1" stop-color="#AEAEAE"/>
</linearGradient>
</defs>
</svg>
