<svg width="101" height="101" viewBox="0 0 101 101" fill="none" xmlns="http://www.w3.org/2000/svg">
<g filter="url(#filter0_ddi_636_1769)">
<mask id="path-1-inside-1_636_1769" fill="white">
<path fill-rule="evenodd" clip-rule="evenodd" d="M31.4783 26.1991C35.8867 22.7903 40.9266 20.6807 46.4311 19.9656C48.1468 19.7511 52.305 19.7511 54.116 19.9656C58.7627 20.5496 63.1235 22.1467 67.0434 24.7211C74.5495 29.6555 79.5298 37.641 80.626 46.4847C80.8643 48.4274 80.8643 52.1818 80.626 54.1126C80.0541 58.7013 78.4575 63.0993 75.9555 66.9252C70.9871 74.5293 63.0281 79.5233 54.116 80.6317C52.3884 80.8343 48.5043 80.8701 46.9077 80.6794C39.7351 79.8451 33.4323 76.7462 28.4401 71.6212C26.8436 69.9883 25.8189 68.713 24.6513 66.9252C22.0777 62.9682 20.4216 58.308 19.9093 53.5525C19.6948 51.5144 19.8259 47.0448 20.1595 45.1855C21.0888 39.9413 23.2692 35.1262 26.5576 31.05C27.7133 29.6197 30.0843 27.2837 31.4783 26.1991ZM37.8735 38.0627C35.8655 38.2467 33.8574 39.2197 32.401 40.7098C31.3151 41.8231 30.5912 43.0765 30.1086 44.6806C29.8845 45.4081 29.8673 45.5659 29.8673 47.1262C29.8673 48.5637 29.8931 48.8793 30.0569 49.4753C30.3068 50.3957 30.7463 51.4037 31.2203 52.1576C31.473 52.5458 31.9047 52.7799 32.3679 52.7799H45.1364C45.6359 52.7799 46.0998 52.5212 46.3623 52.0962C46.8535 51.3248 47.2413 50.4395 47.5085 49.4666C47.6636 48.888 47.6895 48.555 47.6895 47.17C47.6895 45.7851 47.6636 45.452 47.5085 44.8734C46.6208 41.6565 44.3457 39.2811 41.2518 38.3695C40.5796 38.1679 40.1486 38.1065 39.0369 38.0188C38.8215 38.0013 38.3044 38.0188 37.8735 38.0627ZM34.9939 45.9857C34.9995 47.6388 35.0014 47.7077 35.0389 47.8739C35.2003 48.5906 35.6938 49.1659 36.3542 49.4124L36.3812 49.4225C36.4274 49.4397 36.4669 49.4544 36.5068 49.4668C36.7253 49.5348 36.9637 49.5367 38.47 49.5367L38.6056 49.5367L38.6492 49.5367L38.7877 49.5367C40.7109 49.5367 40.7409 49.5367 40.9173 49.4965C41.3451 49.3991 41.6359 49.2347 41.9493 48.9155C42.2589 48.6002 42.4202 48.3039 42.5178 47.8739C42.5553 47.7077 42.5572 47.6388 42.5628 45.9857C42.567 45.0401 41.8016 44.2713 40.856 44.2713H36.7008C35.7552 44.2713 34.9898 45.0401 34.9939 45.9857ZM36.8646 41.8594C36.8646 41.8517 36.8871 41.8422 36.9171 41.8383C36.9452 41.8345 37.2248 41.8288 37.54 41.8269L37.7379 41.8262C37.9773 41.8254 38.2069 41.9213 38.3746 42.0921L39.0861 42.8169C39.3729 43.1091 39.1659 43.6024 38.7564 43.6024C38.6324 43.6024 38.5137 43.5525 38.4268 43.4641L37.7145 42.7385C37.2473 42.2626 36.8646 41.867 36.8646 41.8594ZM35.9902 42.1365C35.8157 42.2493 35.7088 42.3391 35.5624 42.4939C35.3898 42.6774 35.2678 42.8647 35.1722 43.0902C35.1121 43.2335 35.0258 43.5202 35.0258 43.5814C35.0258 43.5967 35.4029 43.6024 36.3204 43.6024C37.0334 43.6024 37.6151 43.5967 37.6151 43.5871C37.6151 43.5584 36.1403 42.0734 36.114 42.0753C36.099 42.0753 36.0427 42.104 35.9902 42.1365ZM41.6716 43.6024C41.1232 43.6024 40.5979 43.3816 40.2141 42.9899L39.9417 42.7118L39.6673 42.4323C39.4465 42.2074 39.6078 41.8279 39.9229 41.8307C40.6997 41.8383 40.7916 41.8422 40.938 41.8785C41.3451 41.9779 41.6397 42.1422 41.9324 42.4366C42.1444 42.6487 42.2664 42.8207 42.3752 43.0634C42.4334 43.1934 42.5309 43.5164 42.5309 43.5775C42.5309 43.5967 42.347 43.6024 41.6716 43.6024ZM52.214 51.6755C51.8262 50.9129 51.7745 50.4308 52.0502 50.1503C52.2226 49.975 52.3346 49.975 60.8407 49.975C69.3467 49.975 69.4588 49.975 69.6311 50.1503C69.9069 50.4308 69.8552 50.9129 69.4674 51.6755C67.9937 54.5681 65.1411 56.5929 62.03 56.9523C61.7446 56.9873 61.5301 57.2297 61.5301 57.5172V57.8727C61.5301 58.8982 61.4526 59.0209 60.7373 59.1699C60.0995 59.3014 51.9899 60.8442 51.9468 60.8442C51.921 60.8442 51.8606 61.0019 51.8003 61.1948C51.7486 61.3876 51.5849 61.6769 51.4556 61.8347C51.3018 62.0073 51.2558 62.2507 51.336 62.4675L51.8865 63.9559C52.6104 65.9106 52.688 66.3314 52.395 66.6294C52.2312 66.7959 52.1106 66.8047 49.8095 66.8047C47.5085 66.8047 47.3878 66.7959 47.2241 66.6294C47.1207 66.5242 47.0517 66.3401 47.0517 66.1473C47.0517 65.9807 47.362 65.0078 47.7412 63.9822L48.3019 62.4444C48.3755 62.2427 48.3286 62.0167 48.1807 61.861C48.0242 61.7072 47.8022 61.64 47.5867 61.681L43.5097 62.457C41.0708 62.9216 38.9335 63.2985 38.7611 63.2985C38.201 63.2985 38.0889 63.0969 38.0889 62.0889V62.0053C38.0889 61.5597 37.7626 61.1814 37.3219 61.1159C36.3395 60.9756 34.8485 60.4585 33.9953 59.9588C32.5475 59.1174 31.3237 57.899 30.4619 56.4527C29.738 55.243 29.6173 54.5242 30.0741 54.27C30.1775 54.2174 33.3834 54.1824 38.8128 54.1824C47.2844 54.1824 47.3965 54.1824 47.5688 54.3577C47.8446 54.6382 47.7929 55.1203 47.4051 55.8829C45.94 58.7755 43.0788 60.8003 39.9677 61.1597C39.4851 61.2211 39.4678 61.2298 39.4678 61.4753C39.4678 61.6769 39.5023 61.7207 39.6229 61.6856C39.7522 61.6418 47.6033 60.1429 47.6809 60.1429C47.6981 60.1429 47.7584 59.9851 47.8188 59.7835C47.948 59.3365 48.4565 58.758 48.9046 58.5564C49.3355 58.3548 50.2146 58.3372 50.6541 58.5213C50.8265 58.6002 51.1367 58.8193 51.3349 59.0209C51.5561 59.2404 51.8712 59.3367 52.1772 59.2783L55.6871 58.609C57.5672 58.2551 59.2398 57.9332 59.7611 57.8328L59.9186 57.8025C60.1254 57.7587 60.1512 57.7149 60.1512 57.3906C60.1512 57.1794 59.9958 57.0004 59.7867 56.9707L59.4101 56.9172C57.4021 56.6192 55.5061 55.655 54.041 54.1912C53.2826 53.4286 52.7052 52.6397 52.214 51.6755ZM59.9358 33.8552C57.9278 34.0393 55.9198 35.0123 54.4633 36.5024C53.3774 37.6156 52.6535 38.8691 52.1709 40.4732C51.9468 41.2007 51.9296 41.3585 51.9296 42.9187C51.9296 44.3563 51.9554 44.6806 52.1106 45.2591C52.3777 46.2321 52.7655 47.1174 53.2568 47.8888C53.5193 48.3138 53.9831 48.5725 54.4827 48.5725H67.2512C67.7143 48.5725 68.1461 48.3383 68.3988 47.9501C68.8728 47.1963 69.3123 46.1883 69.5622 45.2679C69.7259 44.6806 69.7518 44.3563 69.7518 42.9626C69.7518 41.5776 69.7259 41.2445 69.5708 40.666C68.6832 37.4491 66.408 35.0736 63.3141 34.162C62.6419 33.9604 62.211 33.8991 61.0992 33.8114C60.8838 33.7939 60.3667 33.8114 59.9358 33.8552ZM57.0562 41.7782C57.0619 43.4314 57.0637 43.5002 57.1013 43.6665C57.2626 44.3832 57.7561 44.9585 58.4165 45.205L58.4433 45.215C58.4897 45.2323 58.5291 45.2469 58.5691 45.2594C58.794 45.3293 59.0399 45.3293 60.6679 45.3292H60.7116L60.8501 45.3292C62.7733 45.3292 62.8033 45.3292 62.9796 45.2891C63.4074 45.1916 63.6983 45.0273 64.0116 44.7081C64.3212 44.3927 64.4825 44.0965 64.5801 43.6665C64.6176 43.5002 64.6195 43.4314 64.6251 41.7782C64.6293 40.8326 63.8639 40.0639 62.9183 40.0639H58.7631C57.8175 40.0639 57.0521 40.8326 57.0562 41.7782ZM57.6247 38.2865C57.7711 38.1317 57.878 38.0418 58.0525 37.9291C58.1051 37.8966 58.1614 37.8679 58.1764 37.8679C58.2026 37.866 59.6774 39.351 59.6774 39.3797C59.6774 39.3892 59.0957 39.395 58.3828 39.395C57.4653 39.395 57.0881 39.3892 57.0881 39.3739C57.0881 39.3128 57.1744 39.0261 57.2345 38.8828C57.3302 38.6572 57.4521 38.4699 57.6247 38.2865ZM58.9794 37.6309C58.9494 37.6347 58.9269 37.6443 58.9269 37.6519C58.9269 37.6596 59.3096 38.0552 59.7768 38.5311L60.4891 39.2566C60.576 39.3451 60.6948 39.395 60.8187 39.395C61.2282 39.395 61.4352 38.9016 61.1484 38.6094L60.4369 37.8847C60.2692 37.7139 60.0396 37.618 59.8002 37.6188L59.6023 37.6194C59.2871 37.6214 59.0076 37.6271 58.9794 37.6309ZM63.7339 39.395C63.1855 39.395 62.6602 39.1742 62.2764 38.7824L62.004 38.5043L61.7296 38.2249C61.5088 38 61.6701 37.6204 61.9852 37.6233C62.762 37.6309 62.8539 37.6347 63.0003 37.6711C63.4074 37.7704 63.702 37.9348 63.9947 38.2291C64.2067 38.4413 64.3287 38.6133 64.4375 38.856C64.4957 38.986 64.5932 39.309 64.5932 39.3701C64.5932 39.3892 64.4094 39.395 63.7339 39.395ZM39.0879 45.5958C39.5833 45.8729 40.0148 46.1252 40.0467 46.1577C40.1612 46.2723 40.1649 46.473 40.058 46.6011C40.0017 46.666 38.2793 47.6408 38.1611 47.6732C38.0279 47.7096 37.8684 47.6331 37.8027 47.5012C37.767 47.4286 37.7652 47.3847 37.7652 46.3794V45.4198C37.7652 45.3623 37.78 45.3057 37.8083 45.2556C37.8646 45.1543 37.9716 45.0931 38.0935 45.0931C38.1836 45.0931 38.2455 45.1237 39.0879 45.5958ZM62.109 41.9502C62.0771 41.9177 61.6456 41.6655 61.1503 41.3883C60.3078 40.9163 60.2459 40.8857 60.1558 40.8857C60.0339 40.8857 59.9269 40.9468 59.8706 41.0481C59.8424 41.0983 59.8275 41.1548 59.8275 41.2124V42.1719C59.8275 43.1772 59.8294 43.2212 59.865 43.2938C59.9307 43.4257 60.0902 43.5021 60.2234 43.4658C60.3416 43.4333 62.064 42.4586 62.1203 42.3936C62.2273 42.2656 62.2235 42.0649 62.109 41.9502Z"/>
<path fill-rule="evenodd" clip-rule="evenodd" d="M38.6056 49.5367L38.6492 49.5367C38.6346 49.5367 38.62 49.5367 38.6056 49.5367Z"/>
<path fill-rule="evenodd" clip-rule="evenodd" d="M60.6679 45.3292H60.7116C60.6969 45.3292 60.6824 45.3292 60.6679 45.3292Z"/>
</mask>
<path fill-rule="evenodd" clip-rule="evenodd" d="M31.4783 26.1991C35.8867 22.7903 40.9266 20.6807 46.4311 19.9656C48.1468 19.7511 52.305 19.7511 54.116 19.9656C58.7627 20.5496 63.1235 22.1467 67.0434 24.7211C74.5495 29.6555 79.5298 37.641 80.626 46.4847C80.8643 48.4274 80.8643 52.1818 80.626 54.1126C80.0541 58.7013 78.4575 63.0993 75.9555 66.9252C70.9871 74.5293 63.0281 79.5233 54.116 80.6317C52.3884 80.8343 48.5043 80.8701 46.9077 80.6794C39.7351 79.8451 33.4323 76.7462 28.4401 71.6212C26.8436 69.9883 25.8189 68.713 24.6513 66.9252C22.0777 62.9682 20.4216 58.308 19.9093 53.5525C19.6948 51.5144 19.8259 47.0448 20.1595 45.1855C21.0888 39.9413 23.2692 35.1262 26.5576 31.05C27.7133 29.6197 30.0843 27.2837 31.4783 26.1991ZM37.8735 38.0627C35.8655 38.2467 33.8574 39.2197 32.401 40.7098C31.3151 41.8231 30.5912 43.0765 30.1086 44.6806C29.8845 45.4081 29.8673 45.5659 29.8673 47.1262C29.8673 48.5637 29.8931 48.8793 30.0569 49.4753C30.3068 50.3957 30.7463 51.4037 31.2203 52.1576C31.473 52.5458 31.9047 52.7799 32.3679 52.7799H45.1364C45.6359 52.7799 46.0998 52.5212 46.3623 52.0962C46.8535 51.3248 47.2413 50.4395 47.5085 49.4666C47.6636 48.888 47.6895 48.555 47.6895 47.17C47.6895 45.7851 47.6636 45.452 47.5085 44.8734C46.6208 41.6565 44.3457 39.2811 41.2518 38.3695C40.5796 38.1679 40.1486 38.1065 39.0369 38.0188C38.8215 38.0013 38.3044 38.0188 37.8735 38.0627ZM34.9939 45.9857C34.9995 47.6388 35.0014 47.7077 35.0389 47.8739C35.2003 48.5906 35.6938 49.1659 36.3542 49.4124L36.3812 49.4225C36.4274 49.4397 36.4669 49.4544 36.5068 49.4668C36.7253 49.5348 36.9637 49.5367 38.47 49.5367L38.6056 49.5367L38.6492 49.5367L38.7877 49.5367C40.7109 49.5367 40.7409 49.5367 40.9173 49.4965C41.3451 49.3991 41.6359 49.2347 41.9493 48.9155C42.2589 48.6002 42.4202 48.3039 42.5178 47.8739C42.5553 47.7077 42.5572 47.6388 42.5628 45.9857C42.567 45.0401 41.8016 44.2713 40.856 44.2713H36.7008C35.7552 44.2713 34.9898 45.0401 34.9939 45.9857ZM36.8646 41.8594C36.8646 41.8517 36.8871 41.8422 36.9171 41.8383C36.9452 41.8345 37.2248 41.8288 37.54 41.8269L37.7379 41.8262C37.9773 41.8254 38.2069 41.9213 38.3746 42.0921L39.0861 42.8169C39.3729 43.1091 39.1659 43.6024 38.7564 43.6024C38.6324 43.6024 38.5137 43.5525 38.4268 43.4641L37.7145 42.7385C37.2473 42.2626 36.8646 41.867 36.8646 41.8594ZM35.9902 42.1365C35.8157 42.2493 35.7088 42.3391 35.5624 42.4939C35.3898 42.6774 35.2678 42.8647 35.1722 43.0902C35.1121 43.2335 35.0258 43.5202 35.0258 43.5814C35.0258 43.5967 35.4029 43.6024 36.3204 43.6024C37.0334 43.6024 37.6151 43.5967 37.6151 43.5871C37.6151 43.5584 36.1403 42.0734 36.114 42.0753C36.099 42.0753 36.0427 42.104 35.9902 42.1365ZM41.6716 43.6024C41.1232 43.6024 40.5979 43.3816 40.2141 42.9899L39.9417 42.7118L39.6673 42.4323C39.4465 42.2074 39.6078 41.8279 39.9229 41.8307C40.6997 41.8383 40.7916 41.8422 40.938 41.8785C41.3451 41.9779 41.6397 42.1422 41.9324 42.4366C42.1444 42.6487 42.2664 42.8207 42.3752 43.0634C42.4334 43.1934 42.5309 43.5164 42.5309 43.5775C42.5309 43.5967 42.347 43.6024 41.6716 43.6024ZM52.214 51.6755C51.8262 50.9129 51.7745 50.4308 52.0502 50.1503C52.2226 49.975 52.3346 49.975 60.8407 49.975C69.3467 49.975 69.4588 49.975 69.6311 50.1503C69.9069 50.4308 69.8552 50.9129 69.4674 51.6755C67.9937 54.5681 65.1411 56.5929 62.03 56.9523C61.7446 56.9873 61.5301 57.2297 61.5301 57.5172V57.8727C61.5301 58.8982 61.4526 59.0209 60.7373 59.1699C60.0995 59.3014 51.9899 60.8442 51.9468 60.8442C51.921 60.8442 51.8606 61.0019 51.8003 61.1948C51.7486 61.3876 51.5849 61.6769 51.4556 61.8347C51.3018 62.0073 51.2558 62.2507 51.336 62.4675L51.8865 63.9559C52.6104 65.9106 52.688 66.3314 52.395 66.6294C52.2312 66.7959 52.1106 66.8047 49.8095 66.8047C47.5085 66.8047 47.3878 66.7959 47.2241 66.6294C47.1207 66.5242 47.0517 66.3401 47.0517 66.1473C47.0517 65.9807 47.362 65.0078 47.7412 63.9822L48.3019 62.4444C48.3755 62.2427 48.3286 62.0167 48.1807 61.861C48.0242 61.7072 47.8022 61.64 47.5867 61.681L43.5097 62.457C41.0708 62.9216 38.9335 63.2985 38.7611 63.2985C38.201 63.2985 38.0889 63.0969 38.0889 62.0889V62.0053C38.0889 61.5597 37.7626 61.1814 37.3219 61.1159C36.3395 60.9756 34.8485 60.4585 33.9953 59.9588C32.5475 59.1174 31.3237 57.899 30.4619 56.4527C29.738 55.243 29.6173 54.5242 30.0741 54.27C30.1775 54.2174 33.3834 54.1824 38.8128 54.1824C47.2844 54.1824 47.3965 54.1824 47.5688 54.3577C47.8446 54.6382 47.7929 55.1203 47.4051 55.8829C45.94 58.7755 43.0788 60.8003 39.9677 61.1597C39.4851 61.2211 39.4678 61.2298 39.4678 61.4753C39.4678 61.6769 39.5023 61.7207 39.6229 61.6856C39.7522 61.6418 47.6033 60.1429 47.6809 60.1429C47.6981 60.1429 47.7584 59.9851 47.8188 59.7835C47.948 59.3365 48.4565 58.758 48.9046 58.5564C49.3355 58.3548 50.2146 58.3372 50.6541 58.5213C50.8265 58.6002 51.1367 58.8193 51.3349 59.0209C51.5561 59.2404 51.8712 59.3367 52.1772 59.2783L55.6871 58.609C57.5672 58.2551 59.2398 57.9332 59.7611 57.8328L59.9186 57.8025C60.1254 57.7587 60.1512 57.7149 60.1512 57.3906C60.1512 57.1794 59.9958 57.0004 59.7867 56.9707L59.4101 56.9172C57.4021 56.6192 55.5061 55.655 54.041 54.1912C53.2826 53.4286 52.7052 52.6397 52.214 51.6755ZM59.9358 33.8552C57.9278 34.0393 55.9198 35.0123 54.4633 36.5024C53.3774 37.6156 52.6535 38.8691 52.1709 40.4732C51.9468 41.2007 51.9296 41.3585 51.9296 42.9187C51.9296 44.3563 51.9554 44.6806 52.1106 45.2591C52.3777 46.2321 52.7655 47.1174 53.2568 47.8888C53.5193 48.3138 53.9831 48.5725 54.4827 48.5725H67.2512C67.7143 48.5725 68.1461 48.3383 68.3988 47.9501C68.8728 47.1963 69.3123 46.1883 69.5622 45.2679C69.7259 44.6806 69.7518 44.3563 69.7518 42.9626C69.7518 41.5776 69.7259 41.2445 69.5708 40.666C68.6832 37.4491 66.408 35.0736 63.3141 34.162C62.6419 33.9604 62.211 33.8991 61.0992 33.8114C60.8838 33.7939 60.3667 33.8114 59.9358 33.8552ZM57.0562 41.7782C57.0619 43.4314 57.0637 43.5002 57.1013 43.6665C57.2626 44.3832 57.7561 44.9585 58.4165 45.205L58.4433 45.215C58.4897 45.2323 58.5291 45.2469 58.5691 45.2594C58.794 45.3293 59.0399 45.3293 60.6679 45.3292H60.7116L60.8501 45.3292C62.7733 45.3292 62.8033 45.3292 62.9796 45.2891C63.4074 45.1916 63.6983 45.0273 64.0116 44.7081C64.3212 44.3927 64.4825 44.0965 64.5801 43.6665C64.6176 43.5002 64.6195 43.4314 64.6251 41.7782C64.6293 40.8326 63.8639 40.0639 62.9183 40.0639H58.7631C57.8175 40.0639 57.0521 40.8326 57.0562 41.7782ZM57.6247 38.2865C57.7711 38.1317 57.878 38.0418 58.0525 37.9291C58.1051 37.8966 58.1614 37.8679 58.1764 37.8679C58.2026 37.866 59.6774 39.351 59.6774 39.3797C59.6774 39.3892 59.0957 39.395 58.3828 39.395C57.4653 39.395 57.0881 39.3892 57.0881 39.3739C57.0881 39.3128 57.1744 39.0261 57.2345 38.8828C57.3302 38.6572 57.4521 38.4699 57.6247 38.2865ZM58.9794 37.6309C58.9494 37.6347 58.9269 37.6443 58.9269 37.6519C58.9269 37.6596 59.3096 38.0552 59.7768 38.5311L60.4891 39.2566C60.576 39.3451 60.6948 39.395 60.8187 39.395C61.2282 39.395 61.4352 38.9016 61.1484 38.6094L60.4369 37.8847C60.2692 37.7139 60.0396 37.618 59.8002 37.6188L59.6023 37.6194C59.2871 37.6214 59.0076 37.6271 58.9794 37.6309ZM63.7339 39.395C63.1855 39.395 62.6602 39.1742 62.2764 38.7824L62.004 38.5043L61.7296 38.2249C61.5088 38 61.6701 37.6204 61.9852 37.6233C62.762 37.6309 62.8539 37.6347 63.0003 37.6711C63.4074 37.7704 63.702 37.9348 63.9947 38.2291C64.2067 38.4413 64.3287 38.6133 64.4375 38.856C64.4957 38.986 64.5932 39.309 64.5932 39.3701C64.5932 39.3892 64.4094 39.395 63.7339 39.395ZM39.0879 45.5958C39.5833 45.8729 40.0148 46.1252 40.0467 46.1577C40.1612 46.2723 40.1649 46.473 40.058 46.6011C40.0017 46.666 38.2793 47.6408 38.1611 47.6732C38.0279 47.7096 37.8684 47.6331 37.8027 47.5012C37.767 47.4286 37.7652 47.3847 37.7652 46.3794V45.4198C37.7652 45.3623 37.78 45.3057 37.8083 45.2556C37.8646 45.1543 37.9716 45.0931 38.0935 45.0931C38.1836 45.0931 38.2455 45.1237 39.0879 45.5958ZM62.109 41.9502C62.0771 41.9177 61.6456 41.6655 61.1503 41.3883C60.3078 40.9163 60.2459 40.8857 60.1558 40.8857C60.0339 40.8857 59.9269 40.9468 59.8706 41.0481C59.8424 41.0983 59.8275 41.1548 59.8275 41.2124V42.1719C59.8275 43.1772 59.8294 43.2212 59.865 43.2938C59.9307 43.4257 60.0902 43.5021 60.2234 43.4658C60.3416 43.4333 62.064 42.4586 62.1203 42.3936C62.2273 42.2656 62.2235 42.0649 62.109 41.9502Z" fill="url(#paint0_linear_636_1769)"/>
<path fill-rule="evenodd" clip-rule="evenodd" d="M38.6056 49.5367L38.6492 49.5367C38.6346 49.5367 38.62 49.5367 38.6056 49.5367Z" fill="url(#paint1_linear_636_1769)"/>
<path fill-rule="evenodd" clip-rule="evenodd" d="M60.6679 45.3292H60.7116C60.6969 45.3292 60.6824 45.3292 60.6679 45.3292Z" fill="url(#paint2_linear_636_1769)"/>
<path d="M38.6056 49.5367L38.6055 48.8765H38.6055L38.6056 49.5367ZM60.6679 45.3292V44.6691H60.6679L60.6679 45.3292ZM38.6056 49.5367L38.6056 50.1968L38.6493 50.1968L38.6492 49.5367L38.6492 48.8765L38.6055 48.8765L38.6056 49.5367ZM60.6679 45.3292V45.9894H60.7116V45.3292V44.6691H60.6679V45.3292ZM60.6679 45.3292L60.6679 44.6691C60.6213 44.6691 60.5759 44.6691 60.5316 44.6691V45.3293V45.9894C60.576 45.9894 60.6215 45.9894 60.6679 45.9894L60.6679 45.3292ZM38.6056 49.5367L38.6055 48.8765C38.559 48.8765 38.5143 48.8765 38.47 48.8765V49.5367V50.1968C38.5144 50.1968 38.5591 50.1968 38.6056 50.1968L38.6056 49.5367ZM31.4783 26.1991L30.6707 25.1546L30.6676 25.157L31.4783 26.1991ZM46.4311 19.9656L46.2673 18.6555L46.261 18.6563L46.4311 19.9656ZM54.116 19.9656L54.2807 18.6556L54.2713 18.6545L54.116 19.9656ZM67.0434 24.7211L67.7686 23.6179L67.7681 23.6176L67.0434 24.7211ZM80.626 46.4847L81.9364 46.3239L81.9362 46.3223L80.626 46.4847ZM80.626 54.1126L81.9361 54.2759L81.9363 54.2743L80.626 54.1126ZM75.9555 66.9252L74.8505 66.2026L74.8502 66.2031L75.9555 66.9252ZM54.116 80.6317L54.2698 81.943L54.279 81.9419L54.116 80.6317ZM46.9077 80.6794L47.0643 79.3684L47.0603 79.368L46.9077 80.6794ZM28.4401 71.6212L29.3859 70.6999L29.3841 70.6982L28.4401 71.6212ZM24.6513 66.9252L23.5445 67.6451L23.5459 67.6472L24.6513 66.9252ZM19.9093 53.5525L18.5962 53.6906L18.5966 53.6939L19.9093 53.5525ZM20.1595 45.1855L21.459 45.4187L21.4595 45.4159L20.1595 45.1855ZM26.5576 31.05L25.5307 30.2202L25.53 30.221L26.5576 31.05ZM37.8735 38.0627L37.994 39.3775L38.0071 39.3762L37.8735 38.0627ZM32.401 40.7098L31.4568 39.787L31.4559 39.7879L32.401 40.7098ZM30.1086 44.6806L31.3704 45.0692L31.3729 45.061L30.1086 44.6806ZM30.0569 49.4753L31.331 49.1293L31.33 49.1256L30.0569 49.4753ZM31.2203 52.1576L30.1026 52.8603L30.1081 52.8691L30.1138 52.8777L31.2203 52.1576ZM46.3623 52.0962L45.2487 51.387L45.2438 51.3947L45.239 51.4024L46.3623 52.0962ZM47.5085 49.4666L48.7817 49.8162L48.7837 49.8085L47.5085 49.4666ZM47.5085 44.8734L48.7838 44.5315L48.7812 44.5223L47.5085 44.8734ZM41.2518 38.3695L40.8725 39.6341L40.8786 39.6359L41.2518 38.3695ZM39.0369 38.0188L38.9298 39.3348L38.9331 39.335L39.0369 38.0188ZM34.9939 45.9857L36.3142 45.9812L36.3142 45.9799L34.9939 45.9857ZM35.0389 47.8739L36.327 47.5839L36.3268 47.5833L35.0389 47.8739ZM36.3542 49.4124L35.8925 50.6493L35.8938 50.6499L36.3542 49.4124ZM36.3812 49.4225L36.8422 48.1853L36.8416 48.1851L36.3812 49.4225ZM36.5068 49.4668L36.1146 50.7275L36.1146 50.7275L36.5068 49.4668ZM38.47 49.5367L38.4701 50.857H38.4701L38.47 49.5367ZM38.6056 49.5367L38.6056 50.857H38.6056L38.6056 49.5367ZM38.6492 49.5367L38.6492 48.2164H38.6492L38.6492 49.5367ZM38.7877 49.5367V48.2164H38.7877L38.7877 49.5367ZM40.9173 49.4965L41.2103 50.7839L41.2106 50.7838L40.9173 49.4965ZM41.9493 48.9155L41.0071 47.9906L41.0071 47.9906L41.9493 48.9155ZM42.5178 47.8739L43.8053 48.1661L43.8057 48.1646L42.5178 47.8739ZM42.5628 45.9857L41.2426 45.9799L41.2426 45.9812L42.5628 45.9857ZM36.9171 41.8383L37.0839 43.1481L37.0948 43.1466L36.9171 41.8383ZM37.54 41.8269L37.5356 40.5066L37.532 40.5066L37.54 41.8269ZM37.7145 42.7385L38.6567 41.8136V41.8136L37.7145 42.7385ZM35.9902 42.1365L35.2958 41.0136L35.2846 41.0205L35.2736 41.0276L35.9902 42.1365ZM35.5624 42.4939L34.603 41.5869L34.6008 41.5892L35.5624 42.4939ZM35.1722 43.0902L33.9568 42.5745L33.9544 42.5801L35.1722 43.0902ZM36.114 42.0753V43.3956H36.162L36.2099 43.3921L36.114 42.0753ZM39.9417 42.7118L40.8848 41.7879L40.8838 41.7868L39.9417 42.7118ZM39.9229 41.8307L39.9359 40.5105L39.9347 40.5105L39.9229 41.8307ZM40.938 41.8785L40.62 43.1599L40.6249 43.1611L40.938 41.8785ZM41.9324 42.4366L40.9962 43.3675L40.9985 43.3699L41.9324 42.4366ZM42.3752 43.0634L43.5803 42.5241L43.5799 42.5233L42.3752 43.0634ZM52.214 51.6755L51.0371 52.2739L51.0376 52.2748L52.214 51.6755ZM52.0502 50.1503L51.1088 49.2246V49.2246L52.0502 50.1503ZM69.6311 50.1503L70.5726 49.2246V49.2246L69.6311 50.1503ZM69.4674 51.6755L70.6438 52.2748L70.6442 52.2739L69.4674 51.6755ZM62.03 56.9523L61.8785 55.6407L61.8691 55.6418L62.03 56.9523ZM60.7373 59.1699L61.0039 60.463L61.0065 60.4625L60.7373 59.1699ZM51.8003 61.1948L50.5403 60.8006L50.5321 60.8266L50.5251 60.8528L51.8003 61.1948ZM51.4556 61.8347L52.4413 62.713L52.4595 62.6925L52.4769 62.6714L51.4556 61.8347ZM51.8865 63.9559L50.6482 64.4139L50.6484 64.4144L51.8865 63.9559ZM52.395 66.6294L51.4535 65.7038L51.4535 65.7038L52.395 66.6294ZM47.2241 66.6294L46.2826 67.555L46.2826 67.555L47.2241 66.6294ZM47.7412 63.9822L48.9795 64.4401L48.9816 64.4345L47.7412 63.9822ZM48.1807 61.861L49.1383 60.952L49.1223 60.9352L49.1058 60.919L48.1807 61.861ZM43.5097 62.457L43.2628 61.16L43.2627 61.1601L43.5097 62.457ZM37.3219 61.1159L37.5159 59.8099L37.5085 59.8089L37.3219 61.1159ZM33.9953 59.9588L34.6625 58.8195L34.6588 58.8174L33.9953 59.9588ZM30.4619 56.4527L31.5961 55.7768L31.5948 55.7747L30.4619 56.4527ZM30.0741 54.27L29.4756 53.0932L29.4536 53.1044L29.4321 53.1164L30.0741 54.27ZM47.5688 54.3577L46.6274 55.2833V55.2833L47.5688 54.3577ZM47.4051 55.8829L46.2282 55.2844L46.2273 55.2863L47.4051 55.8829ZM39.9677 61.1597L39.8162 59.8482L39.8087 59.849L39.8011 59.85L39.9677 61.1597ZM39.6229 61.6856L39.9914 62.9535L40.0193 62.9454L40.0469 62.936L39.6229 61.6856ZM47.8188 59.7835L49.0837 60.162L49.0871 60.1503L47.8188 59.7835ZM48.9046 58.5564L49.4463 59.7604L49.4552 59.7564L49.4641 59.7522L48.9046 58.5564ZM50.6541 58.5213L51.2036 57.3208L51.184 57.3118L51.1641 57.3035L50.6541 58.5213ZM51.3349 59.0209L50.3935 59.9466L50.3992 59.9524L50.405 59.9581L51.3349 59.0209ZM55.6871 58.609L55.4429 57.3115L55.4397 57.3121L55.6871 58.609ZM59.7611 57.8328L59.5118 56.5363L59.5115 56.5363L59.7611 57.8328ZM59.9186 57.8025L60.1678 59.0991L60.1801 59.0967L60.1922 59.0941L59.9186 57.8025ZM59.4101 56.9172L59.2163 58.2232L59.2246 58.2244L59.4101 56.9172ZM54.041 54.1912L53.1049 55.1221L53.1078 55.1251L54.041 54.1912ZM59.9358 33.8552L60.0563 35.1701L60.0694 35.1687L59.9358 33.8552ZM54.4633 36.5024L53.5191 35.5796L53.5182 35.5805L54.4633 36.5024ZM52.1709 40.4732L53.4327 40.8618L53.4352 40.8536L52.1709 40.4732ZM52.1106 45.2591L50.8353 45.6011L50.8374 45.6087L52.1106 45.2591ZM53.2568 47.8888L54.3801 47.195L54.3753 47.1872L54.3704 47.1796L53.2568 47.8888ZM68.3988 47.9501L69.5053 48.6703L69.5109 48.6617L69.5164 48.6529L68.3988 47.9501ZM69.5622 45.2679L68.2904 44.9133L68.2881 44.9219L69.5622 45.2679ZM69.5708 40.666L70.8461 40.3241L70.8435 40.3148L69.5708 40.666ZM63.3141 34.162L62.9348 35.4267L62.9409 35.4285L63.3141 34.162ZM61.0992 33.8114L60.9922 35.1273L60.9955 35.1276L61.0992 33.8114ZM57.0562 41.7782L58.3765 41.7737L58.3765 41.7724L57.0562 41.7782ZM57.1013 43.6665L58.3893 43.3765L58.3891 43.3758L57.1013 43.6665ZM58.4165 45.205L57.9548 46.4419L57.9562 46.4424L58.4165 45.205ZM58.4433 45.215L58.9044 43.9778L58.9037 43.9776L58.4433 45.215ZM58.5691 45.2594L58.1769 46.5201L58.1769 46.5201L58.5691 45.2594ZM60.6679 45.3292L60.668 46.6495V46.6495L60.6679 45.3292ZM60.7116 45.3292L60.7115 44.009H60.7115L60.7116 45.3292ZM60.8501 45.3292V44.009H60.85L60.8501 45.3292ZM62.9796 45.2891L63.2726 46.5765L63.2729 46.5764L62.9796 45.2891ZM64.0116 44.7081L64.9537 45.633V45.633L64.0116 44.7081ZM64.5801 43.6665L65.8677 43.9586L65.868 43.9571L64.5801 43.6665ZM64.6251 41.7782L63.3049 41.7724L63.3049 41.7737L64.6251 41.7782ZM57.6247 38.2865L56.6653 37.3795L56.6632 37.3818L57.6247 38.2865ZM58.0525 37.9291L57.3581 36.8062L57.347 36.8131L57.336 36.8202L58.0525 37.9291ZM58.1764 37.8679V39.1882H58.2243L58.2722 39.1847L58.1764 37.8679ZM57.2345 38.8828L56.0191 38.367L56.0167 38.3727L57.2345 38.8828ZM58.9794 37.6309L59.1462 38.9407L59.1571 38.9392L58.9794 37.6309ZM59.7768 38.5311L60.719 37.6062V37.6062L59.7768 38.5311ZM59.6023 37.6194L59.5979 36.2992L59.5943 36.2992L59.6023 37.6194ZM62.004 38.5043L62.9471 37.5804L62.9461 37.5794L62.004 38.5043ZM61.9852 37.6233L61.9982 36.3031L61.997 36.3031L61.9852 37.6233ZM63.0003 37.6711L62.6823 38.9525L62.6872 38.9537L63.0003 37.6711ZM63.9947 38.2291L63.0586 39.1601L63.0609 39.1624L63.9947 38.2291ZM64.4375 38.856L65.6426 38.3166L65.6422 38.3159L64.4375 38.856ZM39.0879 45.5958L38.4426 46.7475L38.4433 46.748L39.0879 45.5958ZM40.0467 46.1577L39.1046 47.0826L39.1123 47.0903L40.0467 46.1577ZM40.058 46.6011L41.0559 47.4655L41.0637 47.4565L41.0713 47.4474L40.058 46.6011ZM38.1611 47.6732L38.5083 48.947L38.511 48.9463L38.1611 47.6732ZM37.8027 47.5012L36.6175 48.083L36.6209 48.0898L37.8027 47.5012ZM37.8083 45.2556L38.9581 45.9046L38.9624 45.8969L37.8083 45.2556ZM62.109 41.9502L61.1669 42.8752L61.1746 42.8829L62.109 41.9502ZM61.1503 41.3883L60.5049 42.5401L60.5056 42.5405L61.1503 41.3883ZM59.8706 41.0481L61.0204 41.6972L61.0247 41.6895L59.8706 41.0481ZM59.865 43.2938L58.6798 43.8756L58.6832 43.8823L59.865 43.2938ZM60.2234 43.4658L60.5706 44.7396L60.5733 44.7389L60.2234 43.4658ZM62.1203 42.3936L63.1182 43.2581L63.126 43.2491L63.1336 43.24L62.1203 42.3936ZM62.2764 38.7824L61.3333 39.7063L62.2764 38.7824ZM60.4369 37.8847L61.379 36.9598L60.4369 37.8847ZM59.8002 37.6188L59.7958 36.2985L59.8002 37.6188ZM38.4268 43.4641L39.3689 42.5391L38.4268 43.4641ZM60.4891 39.2566L61.4313 38.3317L60.4891 39.2566ZM61.1484 38.6094L60.2062 39.5344L61.1484 38.6094ZM52.1772 59.2783L52.4246 60.5752L52.1772 59.2783ZM48.3019 62.4444L47.0616 61.9921L48.3019 62.4444ZM51.336 62.4675L50.0977 62.9255L51.336 62.4675ZM39.0861 42.8169L38.1439 43.7418L39.0861 42.8169ZM61.7296 38.2249L60.7875 39.1498L61.7296 38.2249ZM59.7867 56.9707L59.9723 55.6635L59.7867 56.9707ZM40.2141 42.9899L41.1572 42.066L40.2141 42.9899ZM37.7379 41.8262L37.7423 43.1465L37.7379 41.8262ZM38.3746 42.0921L37.4324 43.0171L38.3746 42.0921ZM47.5867 61.681L47.3398 60.384L47.5867 61.681ZM31.4783 26.1991L32.2859 27.2435C36.5114 23.9762 41.3319 21.9594 46.6012 21.2749L46.4311 19.9656L46.261 18.6563C40.5213 19.402 35.262 21.6044 30.6707 25.1546L31.4783 26.1991ZM46.4311 19.9656L46.5949 21.2757C48.1991 21.0751 52.2499 21.074 53.9607 21.2767L54.116 19.9656L54.2713 18.6545C52.3601 18.4281 48.0946 18.427 46.2673 18.6555L46.4311 19.9656ZM54.116 19.9656L53.9514 21.2756C58.3997 21.8346 62.5686 23.3618 66.3186 25.8247L67.0434 24.7211L67.7681 23.6176C63.6783 20.9316 59.1257 19.2646 54.2807 18.6556L54.116 19.9656ZM67.0434 24.7211L66.3181 25.8244C73.5033 30.5477 78.2676 38.1907 79.3157 46.6471L80.626 46.4847L81.9362 46.3223C80.7921 37.0913 75.5957 28.7632 67.7686 23.6179L67.0434 24.7211ZM80.626 46.4847L79.3155 46.6454C79.5408 48.4817 79.5406 52.1278 79.3156 53.9509L80.626 54.1126L81.9363 54.2743C82.1879 52.2358 82.1878 48.3731 81.9364 46.3239L80.626 46.4847ZM80.626 54.1126L79.3158 53.9493C78.7683 58.3427 77.2401 62.5486 74.8505 66.2026L75.9555 66.9252L77.0604 67.6478C79.6749 63.65 81.3399 59.06 81.9361 54.2759L80.626 54.1126ZM75.9555 66.9252L74.8502 66.2031C70.0915 73.4863 62.475 78.2616 53.9531 79.3215L54.116 80.6317L54.279 81.9419C63.5813 80.7849 71.8827 75.5724 77.0607 67.6474L75.9555 66.9252ZM54.116 80.6317L53.9622 79.3204C52.3221 79.5128 48.5432 79.5451 47.0643 79.3684L46.9077 80.6794L46.7511 81.9903C48.4653 82.1951 52.4548 82.1559 54.2698 81.943L54.116 80.6317ZM46.9077 80.6794L47.0603 79.368C40.1874 78.5685 34.1652 75.6064 29.3859 70.6999L28.4401 71.6212L27.4944 72.5424C32.6995 77.886 39.2829 81.1216 46.7552 81.9908L46.9077 80.6794ZM28.4401 71.6212L29.3841 70.6982C27.8452 69.1242 26.8752 67.9159 25.7567 66.2033L24.6513 66.9252L23.5459 67.6472C24.7626 69.5102 25.8419 70.8524 27.4961 72.5442L28.4401 71.6212ZM24.6513 66.9252L25.7581 66.2054C23.2987 62.4239 21.7122 57.9622 21.2219 53.411L19.9093 53.5525L18.5966 53.6939C19.1309 58.6539 20.8568 63.5125 23.5445 67.645L24.6513 66.9252ZM19.9093 53.5525L21.2223 53.4143C21.1244 52.4844 21.1014 50.9278 21.1485 49.3411C21.1958 47.7492 21.3102 46.2478 21.459 45.4187L20.1595 45.1855L18.86 44.9524C18.6751 45.9826 18.5572 47.6456 18.5092 49.2628C18.461 50.8852 18.4796 52.5824 18.5962 53.6906L19.9093 53.5525ZM20.1595 45.1855L21.4595 45.4159C22.3506 40.3873 24.4389 35.7789 27.5852 31.879L26.5576 31.05L25.53 30.221C22.0994 34.4734 19.827 39.4953 18.8595 44.9552L20.1595 45.1855ZM26.5576 31.05L27.5845 31.8798C28.6788 30.5256 30.9778 28.2613 32.2891 27.2411L31.4783 26.1991L30.6676 25.157C29.1909 26.306 26.7479 28.7139 25.5307 30.2202L26.5576 31.05ZM37.8735 38.0627L37.7529 36.7479C35.4203 36.9617 33.1238 38.0815 31.4568 39.787L32.401 40.7098L33.3452 41.6327C34.5911 40.358 36.3106 39.5317 37.994 39.3774L37.8735 38.0627ZM32.401 40.7098L31.4559 39.7879C30.2104 41.0648 29.3834 42.5085 28.8443 44.3002L30.1086 44.6806L31.3729 45.061C31.799 43.6446 32.4198 42.5813 33.3461 41.6317L32.401 40.7098ZM30.1086 44.6806L28.8468 44.292C28.7276 44.6791 28.6357 45.0014 28.5901 45.4606C28.5499 45.8651 28.547 46.3676 28.547 47.1262H29.8673H31.1875C31.1875 46.3245 31.1932 45.9679 31.2177 45.7216C31.2367 45.53 31.2655 45.4097 31.3704 45.0692L30.1086 44.6806ZM29.8673 47.1262H28.547C28.547 48.5684 28.5686 49.0418 28.7838 49.8251L30.0569 49.4753L31.33 49.1256C31.2177 48.7168 31.1875 48.5591 31.1875 47.1262H29.8673ZM30.0569 49.4753L28.7827 49.8213C29.0652 50.8617 29.5559 51.9908 30.1026 52.8603L31.2203 52.1576L32.338 51.4548C31.9367 50.8166 31.5483 49.9297 31.331 49.1293L30.0569 49.4753ZM32.3679 52.7799V54.1002H45.1364V52.7799V51.4596H32.3679V52.7799ZM46.3623 52.0962L47.4759 52.8054C48.0436 51.914 48.4825 50.9057 48.7816 49.8161L47.5085 49.4666L46.2354 49.117C46.0002 49.9733 45.6634 50.7357 45.2487 51.387L46.3623 52.0962ZM47.5085 49.4666L48.7837 49.8085C48.9881 49.0464 49.0098 48.5587 49.0098 47.17H47.6895H46.3692C46.3692 48.5512 46.3392 48.7297 46.2333 49.1246L47.5085 49.4666ZM47.6895 47.17H49.0098C49.0098 45.7813 48.9881 45.2936 48.7837 44.5315L47.5085 44.8734L46.2333 45.2154C46.3392 45.6103 46.3692 45.7888 46.3692 47.17H47.6895ZM47.5085 44.8734L48.7812 44.5223C47.7782 40.8874 45.1784 38.15 41.6249 37.103L41.2518 38.3695L40.8786 39.6359C43.513 40.4121 45.4634 42.4256 46.2358 45.2246L47.5085 44.8734ZM41.2518 38.3695L41.631 37.1048C40.8247 36.863 40.2842 36.7928 39.1407 36.7027L39.0369 38.0188L38.9331 39.335C40.0131 39.4202 40.3344 39.4727 40.8725 39.6341L41.2518 38.3695ZM39.0369 38.0188L39.144 36.7029C38.8086 36.6756 38.1976 36.7026 37.7399 36.7492L37.8735 38.0627L38.0071 39.3762C38.1907 39.3575 38.3989 39.3439 38.5842 39.3371C38.6762 39.3338 38.7573 39.3323 38.8227 39.3324C38.8553 39.3324 38.8815 39.3329 38.9015 39.3335C38.9225 39.3342 38.9311 39.3349 38.9298 39.3348L39.0369 38.0188ZM34.9939 45.9857L33.6736 45.9902C33.6764 46.8085 33.6783 47.2571 33.6846 47.519C33.6914 47.8038 33.705 47.9603 33.7511 48.1646L35.0389 47.8739L36.3268 47.5833C36.3245 47.5728 36.329 47.5941 36.3306 47.6104C36.3307 47.6106 36.3304 47.608 36.33 47.602C36.3295 47.5959 36.329 47.5868 36.3283 47.574C36.327 47.5477 36.3257 47.5101 36.3244 47.4557C36.3189 47.2284 36.317 46.816 36.3142 45.9812L34.9939 45.9857ZM35.0389 47.8739L33.7509 48.1639C34.0059 49.2964 34.7964 50.2402 35.8925 50.6493L36.3542 49.4124L36.8159 48.1755C36.5911 48.0916 36.3947 47.8849 36.327 47.5839L35.0389 47.8739ZM36.3542 49.4124L35.8938 50.6499L35.9209 50.6599L36.3812 49.4225L36.8416 48.1851L36.8146 48.175L36.3542 49.4124ZM36.3812 49.4225L35.9202 50.6597C35.9592 50.6742 36.0337 50.7023 36.1146 50.7275L36.5068 49.4668L36.899 48.2061C36.9021 48.2071 36.9006 48.2068 36.891 48.2033C36.88 48.1994 36.867 48.1946 36.8422 48.1853L36.3812 49.4225ZM36.5068 49.4668L36.1146 50.7275C36.3956 50.8149 36.6517 50.8367 36.9624 50.8468C37.2649 50.8567 37.7286 50.857 38.4701 50.857L38.47 49.5367L38.47 48.2164C37.7051 48.2164 37.2965 48.2158 37.0485 48.2077C36.8088 48.1999 36.8364 48.1867 36.8989 48.2061L36.5068 49.4668ZM38.47 49.5367L38.4701 50.857L38.6056 50.857L38.6056 49.5367L38.6055 48.2164L38.47 48.2164L38.47 49.5367ZM38.6492 49.5367L38.6493 50.8569L38.7878 50.8569L38.7877 49.5367L38.7877 48.2164L38.6492 48.2164L38.6492 49.5367ZM38.7877 49.5367V50.8569C39.7405 50.8569 40.2463 50.857 40.5321 50.8517C40.8459 50.8459 40.9979 50.8322 41.2103 50.7839L40.9173 49.4965L40.6244 48.2092C40.6024 48.2142 40.6292 48.208 40.652 48.2057C40.6534 48.2056 40.6435 48.2066 40.6146 48.2079C40.5857 48.2092 40.5441 48.2105 40.4831 48.2116C40.229 48.2163 39.7582 48.2164 38.7877 48.2164V49.5367ZM40.9173 49.4965L41.2106 50.7838C41.8917 50.6286 42.4059 50.335 42.8914 49.8405L41.9493 48.9155L41.0071 47.9906C40.9161 48.0834 40.8617 48.12 40.8281 48.1389C40.7954 48.1573 40.7405 48.1827 40.624 48.2093L40.9173 49.4965ZM41.9493 48.9155L42.8914 49.8405C43.3729 49.35 43.6537 48.8346 43.8053 48.1661L42.5178 47.8739L41.2302 47.5818C41.1868 47.7733 41.1448 47.8503 41.0071 47.9906L41.9493 48.9155ZM42.5178 47.8739L43.8057 48.1646C43.8518 47.9603 43.8653 47.8038 43.8722 47.519C43.8784 47.2571 43.8803 46.8085 43.8831 45.9902L42.5628 45.9857L41.2426 45.9812C41.2397 46.816 41.2378 47.2284 41.2324 47.4557C41.2311 47.5101 41.2297 47.5477 41.2284 47.574C41.2278 47.5868 41.2272 47.5959 41.2268 47.602C41.2263 47.608 41.2261 47.6106 41.2261 47.6104C41.2277 47.5941 41.2323 47.5728 41.2299 47.5833L42.5178 47.8739ZM40.856 44.2713V42.951H36.7008V44.2713V45.5916H40.856V44.2713ZM36.8646 41.8594H38.1848C38.1848 42.1916 38.0617 42.444 37.9604 42.5944C37.8608 42.742 37.7524 42.8379 37.6851 42.8909C37.5528 42.995 37.4317 43.0481 37.3777 43.0701C37.2558 43.1198 37.1521 43.1394 37.0839 43.148L36.9171 41.8383L36.7503 40.5287C36.652 40.5412 36.5221 40.5674 36.3814 40.6247C36.318 40.6506 36.1895 40.7077 36.052 40.8159C35.9791 40.8733 35.5443 41.2176 35.5443 41.8594H36.8646ZM36.9171 41.8383L37.0948 43.1466C37.0506 43.1526 37.0167 43.1547 37.0158 43.1548C37.011 43.1551 37.0075 43.1553 37.0056 43.1554C37.0037 43.1555 37.0026 43.1556 37.0024 43.1556C37.0022 43.1556 37.0038 43.1555 37.0079 43.1554C37.0117 43.1552 37.0169 43.155 37.0235 43.1548C37.051 43.154 37.0924 43.153 37.1461 43.1519C37.2525 43.1499 37.3955 43.1481 37.548 43.1471L37.54 41.8269L37.532 40.5066C37.3693 40.5076 37.2149 40.5096 37.0957 40.5119C37.0366 40.513 36.9832 40.5142 36.9404 40.5156C36.9195 40.5163 36.897 40.5171 36.8756 40.5181C36.8652 40.5186 36.8508 40.5193 36.8347 40.5205C36.8265 40.521 36.7871 40.5236 36.7394 40.5301L36.9171 41.8383ZM37.54 41.8269L37.5444 43.1471L37.7423 43.1465L37.7379 41.8262L37.7335 40.506L37.5356 40.5066L37.54 41.8269ZM38.3746 42.0921L37.4324 43.0171L38.1439 43.7418L39.0861 42.8169L40.0282 41.8919L39.3167 41.1672L38.3746 42.0921ZM38.4268 43.4641L39.3689 42.5391L38.6567 41.8136L37.7145 42.7385L36.7724 43.6635L37.4847 44.389L38.4268 43.4641ZM37.7145 42.7385L38.6567 41.8136C38.4246 41.5772 38.2145 41.3618 38.0634 41.2056C37.9874 41.127 37.9287 41.0658 37.8903 41.0252C37.8702 41.004 37.8603 40.9933 37.8575 40.9902C37.8547 40.9871 37.8628 40.9959 37.8751 41.0104C37.8792 41.0152 37.899 41.0384 37.9229 41.0704C37.9329 41.0837 37.9623 41.1234 37.9951 41.1777C38.0108 41.2037 38.0429 41.2586 38.0751 41.3324C38.0915 41.3701 38.1151 41.4291 38.136 41.5037C38.1552 41.5722 38.1848 41.6984 38.1848 41.8594H36.8646H35.5443C35.5443 42.1424 35.6379 42.3495 35.6542 42.3869C35.6864 42.4609 35.7187 42.516 35.7345 42.5423C35.7677 42.5972 35.7977 42.6377 35.8084 42.652C35.8338 42.686 35.8558 42.7119 35.8628 42.7201C35.881 42.7415 35.8978 42.76 35.9063 42.7694C35.9263 42.7913 35.9499 42.8165 35.973 42.8409C36.021 42.8915 36.0872 42.9604 36.1652 43.0411C36.3223 43.2036 36.5373 43.424 36.7724 43.6635L37.7145 42.7385ZM35.9902 42.1365L35.2736 41.0276C35.0061 41.2005 34.8183 41.3591 34.603 41.5869L35.5624 42.4939L36.5218 43.4009C36.5718 43.3481 36.597 43.3254 36.6128 43.3122C36.6278 43.2996 36.6521 43.2808 36.7068 43.2454L35.9902 42.1365ZM35.5624 42.4939L34.6008 41.5892C34.3223 41.8852 34.114 42.2039 33.9568 42.5745L35.1722 43.0902L36.3875 43.6059C36.4217 43.5254 36.4573 43.4695 36.524 43.3986L35.5624 42.4939ZM35.1722 43.0902L33.9544 42.5801C33.8992 42.7119 33.8474 42.8685 33.8116 42.9883C33.7926 43.0518 33.7727 43.1227 33.7562 43.1916C33.7529 43.2055 33.7055 43.3851 33.7055 43.5814H35.0258H36.3461C36.3461 43.617 36.3446 43.6467 36.3431 43.6679C36.3415 43.6897 36.3396 43.708 36.338 43.7217C36.3349 43.7484 36.3315 43.7685 36.3296 43.7791C36.3276 43.7905 36.326 43.7984 36.3252 43.8019C36.3244 43.8056 36.324 43.8072 36.3242 43.8064C36.3247 43.8044 36.3264 43.7976 36.3296 43.7858C36.3327 43.7744 36.3367 43.7606 36.3414 43.7449C36.3509 43.7129 36.3618 43.679 36.3722 43.6489C36.3773 43.6341 36.3817 43.6218 36.3853 43.6124C36.3889 43.6025 36.3905 43.5988 36.3899 43.6003L35.1722 43.0902ZM35.0258 43.5814H33.7055C33.7055 44.3134 34.254 44.657 34.3318 44.7052C34.4814 44.7979 34.6146 44.838 34.6563 44.8503C34.7595 44.8808 34.8455 44.8922 34.8687 44.8953C34.9345 44.9041 34.9954 44.9077 35.0278 44.9094C35.1039 44.9136 35.2006 44.916 35.3079 44.9177C35.5285 44.9212 35.8616 44.9227 36.3204 44.9227V43.6024V42.2821C35.8618 42.2821 35.5475 42.2807 35.3502 42.2775C35.2485 42.2759 35.1936 42.274 35.1704 42.2728C35.153 42.2718 35.1773 42.2725 35.2189 42.2781C35.23 42.2795 35.307 42.2892 35.4042 42.3179C35.4429 42.3293 35.5739 42.3686 35.722 42.4603C35.798 42.5074 35.9348 42.6023 36.0627 42.7644C36.2002 42.9388 36.3461 43.2183 36.3461 43.5814H35.0258ZM36.3204 43.6024V44.9227C36.6796 44.9227 37.0086 44.9212 37.2499 44.9185C37.3694 44.9172 37.4735 44.9155 37.5509 44.9132C37.5871 44.9122 37.6304 44.9107 37.6703 44.9082C37.6856 44.9073 37.7271 44.9047 37.7758 44.8985C37.7918 44.8964 37.8605 44.8878 37.9449 44.866C37.9765 44.8578 38.0918 44.8278 38.2259 44.7578C38.2909 44.7238 38.4309 44.6448 38.5702 44.4987C38.7149 44.3471 38.9353 44.0375 38.9353 43.5871H37.6151H36.2948C36.2948 43.1369 36.5152 42.8274 36.6598 42.6759C36.7989 42.53 36.9387 42.4511 37.0034 42.4173C37.1369 42.3475 37.2514 42.3179 37.2819 42.31C37.364 42.2887 37.4293 42.2807 37.4409 42.2792C37.4644 42.2762 37.4822 42.2747 37.4897 42.274C37.4985 42.2733 37.5047 42.2729 37.5071 42.2728C37.5124 42.2724 37.5046 42.2729 37.4752 42.2738C37.4213 42.2753 37.3354 42.2768 37.2203 42.2781C36.9926 42.2807 36.6743 42.2821 36.3204 42.2821V43.6024ZM37.6151 43.5871H38.9353C38.9353 43.2968 38.8369 43.0849 38.8205 43.0482C38.7871 42.9733 38.7537 42.9175 38.7373 42.8909C38.7029 42.8352 38.6715 42.7938 38.6597 42.7783C38.6318 42.7419 38.6066 42.7126 38.5955 42.6999C38.5693 42.6696 38.5408 42.6387 38.5177 42.6139C38.4686 42.5611 38.4038 42.4936 38.3328 42.4201C38.1888 42.2715 37.9995 42.079 37.8113 41.8895C37.623 41.6999 37.432 41.5094 37.2847 41.3647C37.212 41.2933 37.145 41.2283 37.0928 41.1789C37.0684 41.1558 37.0377 41.1272 37.0076 41.1007C36.9951 41.0897 36.9655 41.0638 36.9285 41.0352C36.9131 41.0233 36.8698 40.99 36.8112 40.9537C36.7837 40.9367 36.7228 40.9001 36.6405 40.8644C36.6068 40.8498 36.3562 40.734 36.0182 40.7585L36.114 42.0753L36.2099 43.3921C36.1395 43.3954 36.0118 43.3916 35.9546 43.3859C35.9079 43.3794 35.8232 43.3631 35.7854 43.354C35.6987 43.3317 35.631 43.3048 35.5894 43.2867C35.5453 43.2676 35.5096 43.2492 35.4847 43.2357C35.4591 43.2217 35.4376 43.209 35.4214 43.1989C35.3899 43.1794 35.3653 43.1623 35.3504 43.1517C35.3345 43.1403 35.3217 43.1306 35.3128 43.1237C35.283 43.1006 35.2631 43.0829 35.2629 43.0827C35.2573 43.0778 35.261 43.0809 35.2793 43.0982C35.3128 43.1298 35.3654 43.1808 35.4346 43.2487C35.5712 43.3829 35.7538 43.565 35.9376 43.75C36.1213 43.9351 36.3023 44.1191 36.4357 44.2569C36.5033 44.3267 36.554 44.3798 36.5856 44.4137C36.6028 44.4323 36.6061 44.4362 36.6015 44.4308C36.6012 44.4306 36.5843 44.4113 36.562 44.3822C36.5554 44.3735 36.5462 44.3612 36.5353 44.3459C36.5251 44.3315 36.5091 44.3082 36.4907 44.2785C36.475 44.253 36.4422 44.1982 36.4091 44.1241C36.3922 44.0862 36.3677 44.0266 36.3459 43.9508C36.337 43.918 36.3203 43.845 36.3129 43.8049C36.3057 43.7562 36.2962 43.6472 36.2948 43.5871H37.6151ZM36.114 42.0753V40.7551C35.9354 40.7551 35.7985 40.7921 35.7562 40.8037C35.6951 40.8205 35.6463 40.8385 35.6168 40.85C35.5571 40.8732 35.5077 40.8969 35.477 40.9122C35.4122 40.9445 35.3496 40.9803 35.2958 41.0136L35.9902 42.1365L36.6846 43.2594C36.6833 43.2602 36.6752 43.2654 36.6554 43.2752C36.6473 43.2793 36.618 43.2938 36.5747 43.3107C36.5534 43.3189 36.5119 43.3344 36.457 43.3496C36.4288 43.3573 36.3878 43.3675 36.3376 43.3763C36.2904 43.3845 36.212 43.3956 36.114 43.3956V42.0753ZM40.2141 42.9899L41.1572 42.066L40.8848 41.7879L39.9417 42.7118L38.9985 43.6357L39.271 43.9138L40.2141 42.9899ZM39.9417 42.7118L40.8838 41.7868L40.6094 41.5074L39.6673 42.4323L38.7251 43.3572L38.9995 43.6367L39.9417 42.7118ZM39.9229 41.8307L39.9099 43.1509C40.3089 43.1548 40.4971 43.1576 40.6054 43.1627C40.6539 43.1649 40.6614 43.1667 40.6501 43.1652C40.631 43.1626 40.6153 43.1587 40.62 43.1599L40.938 41.8785L41.2559 40.5971C40.9193 40.5135 40.6256 40.5173 39.9359 40.5105L39.9229 41.8307ZM40.938 41.8785L40.6249 43.1611C40.8012 43.2041 40.8787 43.2493 40.9962 43.3675L41.9324 42.4366L42.8685 41.5056C42.4007 41.0351 41.889 40.7516 41.251 40.5959L40.938 41.8785ZM41.9324 42.4366L40.9985 43.3699C41.1129 43.4843 41.1358 43.5263 41.1705 43.6036L42.3752 43.0634L43.5799 42.5233C43.3969 42.1151 43.1759 41.8131 42.8662 41.5033L41.9324 42.4366ZM42.3752 43.0634L41.1701 43.6028C41.1671 43.5961 41.1655 43.5922 41.1652 43.5915C41.1649 43.5907 41.1653 43.5917 41.1665 43.5947C41.1689 43.6009 41.1727 43.6114 41.1779 43.6261C41.1883 43.6559 41.2002 43.6923 41.2112 43.7287C41.2166 43.7464 41.2213 43.7626 41.2251 43.7765C41.2291 43.7907 41.2315 43.8002 41.2327 43.8048C41.2332 43.807 41.2331 43.8067 41.2325 43.8042C41.2321 43.802 41.2306 43.7953 41.2287 43.7849C41.2269 43.7755 41.2234 43.7558 41.22 43.7289C41.2182 43.7151 41.2161 43.696 41.2143 43.6729C41.2126 43.6506 41.2107 43.6177 41.2107 43.5775H42.5309H43.8512C43.8512 43.373 43.7983 43.1805 43.7969 43.1746C43.7796 43.1044 43.7588 43.0308 43.7386 42.9639C43.703 42.8464 43.6447 42.668 43.5803 42.5241L42.3752 43.0634ZM42.5309 43.5775H41.2107C41.2107 42.9764 41.5896 42.6306 41.7557 42.5107C41.9232 42.3897 42.0776 42.3397 42.1275 42.3241C42.244 42.2876 42.3352 42.2785 42.3395 42.278C42.3726 42.2742 42.3776 42.2756 42.3159 42.2774C42.2079 42.2806 42.0122 42.2821 41.6716 42.2821V43.6024V44.9227C42.0064 44.9227 42.2404 44.9213 42.3932 44.9168C42.4619 44.9148 42.555 44.9113 42.6438 44.901C42.6759 44.8972 42.7868 44.8846 42.9159 44.8441C42.9722 44.8265 43.1312 44.7744 43.3017 44.6513C43.4708 44.5291 43.8512 44.1811 43.8512 43.5775H42.5309ZM52.214 51.6755L53.3908 51.077C53.3128 50.9236 53.2626 50.8054 53.2317 50.7174C53.2002 50.6276 53.1958 50.589 53.196 50.5912C53.1964 50.595 53.2033 50.6624 53.1734 50.7659C53.1409 50.8786 53.0776 50.9885 52.9917 51.0759L52.0502 50.1503L51.1088 49.2246C50.6242 49.7175 50.5132 50.3393 50.5705 50.873C50.6227 51.359 50.8156 51.8383 51.0371 52.2739L52.214 51.6755ZM52.0502 50.1503L52.9917 51.0759C52.9695 51.0985 52.859 51.209 52.6841 51.2901C52.5531 51.3508 52.4614 51.3597 52.4924 51.3551C52.5643 51.3446 52.7778 51.3281 53.3463 51.3169C54.4423 51.2953 56.5778 51.2952 60.8407 51.2952V49.975V48.6547C56.5975 48.6547 54.424 48.6546 53.2943 48.6769C52.75 48.6876 52.3716 48.704 52.1082 48.7427C51.9716 48.7628 51.7763 48.8004 51.573 48.8947C51.3258 49.0094 51.1741 49.1582 51.1088 49.2246L52.0502 50.1503ZM60.8407 49.975V51.2952C65.1035 51.2952 67.2391 51.2953 68.3351 51.3169C68.9036 51.3281 69.1171 51.3446 69.189 51.3551C69.22 51.3597 69.1282 51.3508 68.9973 51.2901C68.8224 51.209 68.7119 51.0985 68.6897 51.0759L69.6311 50.1503L70.5726 49.2246C70.5073 49.1582 70.3556 49.0094 70.1084 48.8947C69.9051 48.8004 69.7098 48.7628 69.5732 48.7427C69.3098 48.704 68.9314 48.6876 68.387 48.6769C67.2574 48.6546 65.0839 48.6547 60.8407 48.6547V49.975ZM69.6311 50.1503L68.6897 51.0759C68.6038 50.9885 68.5405 50.8786 68.508 50.7659C68.4781 50.6624 68.485 50.595 68.4854 50.5912C68.4856 50.5891 68.4812 50.6276 68.4497 50.7174C68.4188 50.8054 68.3686 50.9236 68.2906 51.077L69.4674 51.6755L70.6442 52.2739C70.8658 51.8383 71.0587 51.359 71.1109 50.873C71.1681 50.3393 71.0572 49.7175 70.5726 49.2246L69.6311 50.1503ZM69.4674 51.6755L68.291 51.0761C67.0091 53.5923 64.5309 55.3343 61.8785 55.6407L62.03 56.9523L62.1815 58.2638C65.7513 57.8515 68.9783 55.5438 70.6438 52.2748L69.4674 51.6755ZM61.5301 57.5172H60.2099V57.8727H61.5301H62.8504V57.5172H61.5301ZM61.5301 57.8727H60.2099C60.2099 57.9942 60.2087 58.0912 60.2059 58.1711C60.2031 58.2518 60.1991 58.3029 60.1955 58.334C60.1918 58.3657 60.1903 58.3601 60.1985 58.3317C60.2073 58.3008 60.229 58.2372 60.2763 58.16C60.326 58.079 60.3901 58.0054 60.4634 57.9451C60.533 57.8878 60.5928 57.8573 60.6216 57.8444C60.6479 57.8326 60.654 57.8329 60.6231 57.8414C60.5926 57.8499 60.545 57.8614 60.468 57.8774L60.7373 59.1699L61.0065 60.4625C61.2859 60.4043 62.0807 60.2691 62.5276 59.54C62.7272 59.2144 62.7904 58.8786 62.8182 58.6401C62.8464 58.3984 62.8504 58.1303 62.8504 57.8727H61.5301ZM60.7373 59.1699L60.4707 57.8769C60.1647 57.94 57.9933 58.3556 55.8722 58.7594C54.8163 58.9604 53.7792 59.1572 53.0037 59.3037C52.6158 59.377 52.294 59.4376 52.0682 59.4798C51.9551 59.5009 51.8674 59.5172 51.808 59.5281C51.7778 59.5336 51.7574 59.5373 51.7454 59.5394C51.7388 59.5406 51.7387 59.5406 51.7423 59.54C51.7434 59.5398 51.7517 59.5384 51.7634 59.5368C51.7687 59.536 51.7818 59.5342 51.7989 59.5322C51.8075 59.5313 51.8286 59.5292 51.841 59.5281C51.8602 59.5267 51.9131 59.5243 51.9468 59.5239V60.8442V62.1644C51.9807 62.164 52.0339 62.1616 52.0534 62.1601C52.066 62.159 52.0875 62.1569 52.0965 62.1559C52.1144 62.1539 52.1286 62.1519 52.1352 62.151C52.1495 62.149 52.1614 62.147 52.1671 62.1461C52.1798 62.144 52.1926 62.1418 52.2026 62.1401C52.2239 62.1363 52.2515 62.1313 52.2833 62.1255C52.3477 62.1137 52.4393 62.0967 52.5533 62.0754C52.7817 62.0327 53.1056 61.9718 53.494 61.8984C54.271 61.7515 55.3093 61.5545 56.3659 61.3533C58.4698 60.9529 60.6721 60.5314 61.0039 60.463L60.7373 59.1699ZM51.9468 60.8442V59.5239C51.6086 59.5239 51.3597 59.6507 51.2293 59.7344C51.0952 59.8202 51.0049 59.9121 50.9563 59.9658C50.8602 60.0721 50.801 60.1718 50.7768 60.2139C50.722 60.3093 50.6837 60.4 50.6636 60.4496C50.6177 60.5624 50.5749 60.6897 50.5403 60.8006L51.8003 61.1948L53.0604 61.589C53.086 61.507 53.1036 61.459 53.1094 61.4447C53.1151 61.4308 53.1005 61.4699 53.0662 61.5298C53.0522 61.554 53.0025 61.6399 52.9148 61.7368C52.8705 61.7858 52.7842 61.8741 52.6539 61.9576C52.5272 62.0388 52.2818 62.1644 51.9468 62.1644V60.8442ZM51.8003 61.1948L50.5251 60.8528C50.5341 60.8192 50.5398 60.8095 50.5319 60.8277C50.5255 60.8424 50.5144 60.8656 50.4988 60.8941C50.4835 60.9222 50.4674 60.9488 50.4529 60.9708C50.4375 60.9943 50.4304 61.0027 50.4343 60.9979L51.4556 61.8347L52.4769 62.6714C52.6928 62.4078 52.9637 61.954 53.0755 61.5367L51.8003 61.1948ZM51.336 62.4675L50.0977 62.9255L50.6482 64.4139L51.8865 63.9559L53.1248 63.4979L52.5743 62.0095L51.336 62.4675ZM51.8865 63.9559L50.6484 64.4144C51.0203 65.4187 51.1763 65.9029 51.2249 66.1596C51.247 66.2767 51.2211 66.2265 51.2468 66.0992C51.2825 65.9229 51.376 65.7826 51.4535 65.7038L52.395 66.6294L53.3364 67.555C53.5604 67.3272 53.7541 67.0224 53.835 66.6224C53.906 66.2713 53.8704 65.9379 53.8193 65.6682C53.7214 65.1513 53.4766 64.4478 53.1246 63.4974L51.8865 63.9559ZM52.395 66.6294L51.4535 65.7038C51.4997 65.6568 51.6289 65.5431 51.815 65.4789C51.9181 65.4434 51.9615 65.4522 51.8141 65.4623C51.5329 65.4814 50.9868 65.4844 49.8095 65.4844V66.8047V68.125C50.9333 68.125 51.5981 68.1236 51.9933 68.0967C52.1842 68.0837 52.4323 68.0592 52.6759 67.9752C53.0027 67.8625 53.2084 67.6853 53.3364 67.555L52.395 66.6294ZM49.8095 66.8047V65.4844C48.6323 65.4844 48.0862 65.4814 47.8049 65.4623C47.6576 65.4522 47.7009 65.4434 47.804 65.4789C47.9902 65.5431 48.1194 65.6568 48.1656 65.7038L47.2241 66.6294L46.2826 67.555C46.4107 67.6853 46.6164 67.8625 46.9431 67.9752C47.1868 68.0592 47.4349 68.0837 47.6257 68.0967C48.021 68.1236 48.6858 68.125 49.8095 68.125V66.8047ZM47.2241 66.6294L48.1656 65.7038C48.2737 65.8138 48.3205 65.9164 48.3405 65.9715C48.3625 66.0324 48.372 66.0903 48.372 66.1473H47.0517H45.7315C45.7315 66.6047 45.8846 67.1502 46.2826 67.555L47.2241 66.6294ZM47.0517 66.1473H48.372C48.372 66.2734 48.3505 66.3556 48.3587 66.3162C48.3608 66.3059 48.3674 66.277 48.3814 66.2247C48.409 66.1216 48.4529 65.9739 48.5122 65.7876C48.6301 65.4178 48.7956 64.9374 48.9795 64.4401L47.7412 63.9822L46.5029 63.5243C46.3076 64.0525 46.1284 64.5714 45.9963 64.9861C45.9307 65.1921 45.8733 65.3829 45.8309 65.5412C45.8099 65.6195 45.7893 65.702 45.773 65.7808C45.7627 65.8304 45.7315 65.9795 45.7315 66.1473H47.0517ZM47.7412 63.9822L48.9816 64.4345L49.5423 62.8967L48.3019 62.4444L47.0616 61.9921L46.5008 63.5299L47.7412 63.9822ZM47.5867 61.681L47.3398 60.384L43.2628 61.16L43.5097 62.457L43.7566 63.754L47.8335 62.978L47.5867 61.681ZM43.5097 62.457L43.2627 61.1601C42.0477 61.3915 40.9094 61.6008 40.0554 61.7519C39.6278 61.8276 39.2753 61.8879 39.0215 61.9291C38.8939 61.9498 38.7971 61.9646 38.7307 61.974C38.6182 61.9898 38.6697 61.9782 38.7611 61.9782V63.2985V64.6188C38.8957 64.6188 39.0517 64.5954 39.0986 64.5888C39.1915 64.5757 39.309 64.5575 39.4441 64.5356C39.7158 64.4915 40.0824 64.4287 40.5155 64.352C41.3829 64.1986 42.5328 63.9871 43.7568 63.754L43.5097 62.457ZM38.7611 63.2985V61.9782C38.6742 61.9782 38.7575 61.9661 38.8975 62.0204C38.9795 62.0522 39.0759 62.1045 39.1693 62.1858C39.2625 62.2671 39.327 62.3548 39.369 62.4304C39.4416 62.5609 39.4371 62.6383 39.4261 62.546C39.4164 62.4653 39.4092 62.327 39.4092 62.0889H38.0889H36.7687C36.7687 62.3548 36.7754 62.6196 36.8043 62.8602C36.8317 63.0893 36.8903 63.406 37.0609 63.713C37.2601 64.0714 37.5663 64.3362 37.9421 64.4821C38.2606 64.6057 38.568 64.6188 38.7611 64.6188V63.2985ZM38.0889 62.0889H39.4092V62.0053H38.0889H36.7687V62.0889H38.0889ZM37.3219 61.1159L37.5085 59.8089C36.6933 59.6925 35.3659 59.2314 34.6625 58.8195L33.9953 59.9588L33.3282 61.0981C34.3312 61.6855 35.9856 62.2588 37.1353 62.4229L37.3219 61.1159ZM33.9953 59.9588L34.6588 58.8174C33.408 58.0904 32.345 57.0336 31.5961 55.7768L30.4619 56.4527L29.3277 57.1285C30.3025 58.7643 31.687 60.1443 33.3319 61.1003L33.9953 59.9588ZM30.4619 56.4527L31.5948 55.7747C31.4336 55.5053 31.3185 55.2838 31.2406 55.1064C31.1608 54.9245 31.1333 54.8186 31.1257 54.7752C31.1171 54.7261 31.1437 54.8162 31.0898 54.9743C31.0237 55.1683 30.8813 55.3318 30.7161 55.4237L30.0741 54.27L29.4321 53.1164C29.0385 53.3354 28.74 53.684 28.5906 54.1221C28.4535 54.5243 28.4698 54.9173 28.5248 55.231C28.6312 55.8379 28.9448 56.4887 29.329 57.1306L30.4619 56.4527ZM30.0741 54.27L30.6726 55.4469C30.5479 55.5103 30.4426 55.5378 30.4134 55.5454C30.3696 55.5568 30.3353 55.5631 30.3187 55.566C30.3 55.5692 30.286 55.5711 30.2789 55.5721C30.2712 55.5731 30.2664 55.5736 30.2651 55.5737C30.2648 55.5737 30.2831 55.572 30.3296 55.5694C30.4188 55.5645 30.5588 55.5592 30.7549 55.554C31.1439 55.5436 31.7155 55.5343 32.4598 55.5267C33.9464 55.5114 36.1001 55.5027 38.8128 55.5027V54.1824V52.8621C36.0962 52.8621 33.9322 52.8709 32.4327 52.8863C31.6839 52.894 31.0952 52.9034 30.6844 52.9144C30.4805 52.9198 30.3107 52.9259 30.1836 52.9329C30.1219 52.9363 30.0554 52.9408 29.9941 52.9471C29.965 52.9501 29.9189 52.9553 29.867 52.9644C29.8412 52.9688 29.7991 52.9768 29.749 52.9898C29.7135 52.999 29.6036 53.0281 29.4756 53.0932L30.0741 54.27ZM38.8128 54.1824V55.5027C43.0585 55.5027 45.1854 55.5027 46.2769 55.5243C46.8433 55.5355 47.0555 55.552 47.1266 55.5625C47.1571 55.567 47.0652 55.558 46.9342 55.4971C46.7597 55.416 46.6494 55.3057 46.6274 55.2833L47.5688 54.3577L48.5103 53.4321C48.4452 53.3658 48.2937 53.2172 48.047 53.1025C47.8438 53.0081 47.6486 52.9704 47.512 52.9502C47.2489 52.9114 46.8713 52.895 46.3291 52.8843C45.2037 52.862 43.0388 52.8621 38.8128 52.8621V54.1824ZM47.5688 54.3577L46.6274 55.2833C46.5415 55.1959 46.4782 55.086 46.4456 54.9733C46.4158 54.8699 46.4227 54.8025 46.4231 54.7986C46.4233 54.7965 46.4189 54.8351 46.3874 54.9248C46.3565 55.0128 46.3062 55.1311 46.2282 55.2844L47.4051 55.8829L48.5819 56.4814C48.8035 56.0457 48.9964 55.5664 49.0485 55.0804C49.1058 54.5467 48.9948 53.9249 48.5103 53.4321L47.5688 54.3577ZM47.4051 55.8829L46.2273 55.2863C44.955 57.7982 42.4706 59.5415 39.8162 59.8482L39.9677 61.1597L40.1192 62.4713C43.687 62.0591 46.925 59.7528 48.5829 56.4794L47.4051 55.8829ZM39.9677 61.1597L39.8011 59.85C39.692 59.8639 39.5562 59.881 39.438 59.9036C39.3448 59.9214 39.0892 59.9707 38.8353 60.13C38.4855 60.3493 38.2814 60.6771 38.1979 61.0081C38.1414 61.2319 38.1475 61.4486 38.1475 61.4753H39.4678H40.7881C40.7881 61.4462 40.7886 61.4533 40.7875 61.4719C40.7864 61.4899 40.7819 61.5602 40.7582 61.654C40.7326 61.7556 40.682 61.8955 40.5807 62.0403C40.4772 62.1884 40.3536 62.2946 40.2383 62.3669C40.049 62.4857 39.8882 62.5059 39.9339 62.4972C39.9547 62.4932 40.0021 62.4862 40.1342 62.4694L39.9677 61.1597ZM39.4678 61.4753H38.1475C38.1475 61.5518 38.15 61.6732 38.1715 61.8072C38.1902 61.9238 38.2436 62.1928 38.4418 62.4586C38.6878 62.7884 39.0437 62.9668 39.3966 63.0075C39.6775 63.0399 39.9031 62.9791 39.9914 62.9535L39.6229 61.6856L39.2545 60.4178C39.2825 60.4097 39.4585 60.3566 39.699 60.3843C40.0116 60.4204 40.3361 60.5818 40.5585 60.8799C40.7329 61.1138 40.7702 61.3362 40.7787 61.3891C40.79 61.4592 40.7881 61.4996 40.7881 61.4753H39.4678ZM39.6229 61.6856L40.0469 62.936C39.9654 62.9636 39.8903 62.978 39.9421 62.9665C39.9523 62.9643 39.9714 62.9602 40.0017 62.9539C40.0611 62.9416 40.1481 62.9241 40.2606 62.9017C40.4849 62.8571 40.8002 62.7954 41.1773 62.7222C41.931 62.5758 42.9256 62.3846 43.9192 62.1946C44.9128 62.0047 45.9044 61.8162 46.6519 61.6752C47.0259 61.6047 47.3375 61.5463 47.5575 61.5057C47.6678 61.4853 47.7528 61.4698 47.8102 61.4596C47.8395 61.4544 47.8577 61.4513 47.867 61.4497C47.8724 61.4489 47.8694 61.4494 47.8618 61.4505C47.8586 61.451 47.8471 61.4526 47.8315 61.4545C47.8237 61.4554 47.8092 61.457 47.7908 61.4586C47.7783 61.4596 47.7358 61.4632 47.6809 61.4632V60.1429V58.8226C47.6254 58.8226 47.5819 58.8263 47.5684 58.8274C47.5489 58.8291 47.5331 58.8308 47.5238 58.8319C47.505 58.8341 47.4895 58.8363 47.4813 58.8375C47.4638 58.8401 47.4473 58.8427 47.4356 58.8447C47.4107 58.8488 47.3803 58.8541 47.3478 58.8599C47.2816 58.8717 47.1898 58.8884 47.0778 58.9091C46.8531 58.9506 46.5376 59.0097 46.1627 59.0804C45.4122 59.2219 44.4184 59.4108 43.4234 59.6011C42.4284 59.7913 41.4311 59.983 40.674 60.13C40.2957 60.2035 39.9758 60.2661 39.7456 60.3119C39.631 60.3347 39.5359 60.3538 39.4661 60.3683C39.4317 60.3754 39.3994 60.3822 39.3723 60.3882C39.3592 60.3911 39.3423 60.3949 39.3247 60.3992C39.316 60.4013 39.3027 60.4045 39.2873 60.4086C39.2774 60.4113 39.2422 60.4206 39.199 60.4353L39.6229 61.6856ZM47.6809 60.1429V61.4632C48.161 61.4632 48.4672 61.2093 48.5446 61.1429C48.6564 61.0469 48.7272 60.9534 48.7578 60.9113C48.8234 60.8208 48.8648 60.7398 48.8807 60.7083C48.919 60.6321 48.9484 60.5585 48.9665 60.5113C49.0066 60.4066 49.0473 60.2835 49.0836 60.162L47.8188 59.7835L46.5539 59.405C46.5299 59.4852 46.5102 59.5418 46.5008 59.5663C46.4941 59.5838 46.5014 59.5623 46.5217 59.522C46.5285 59.5083 46.562 59.4412 46.6208 59.3602C46.6479 59.3228 46.7156 59.2329 46.8246 59.1393C46.8812 59.0907 46.9737 59.0196 47.1014 58.957C47.2296 58.8942 47.4289 58.8226 47.6809 58.8226V60.1429ZM47.8188 59.7835L49.0871 60.1503C49.0788 60.1789 49.0785 60.1663 49.1092 60.1156C49.1373 60.0692 49.1789 60.0116 49.2318 59.9518C49.2845 59.892 49.3384 59.8413 49.3855 59.8039C49.4355 59.7642 49.458 59.7551 49.4463 59.7604L48.9046 58.5564L48.363 57.3523C47.9131 57.5547 47.5289 57.891 47.2524 58.2041C46.9791 58.5136 46.6885 58.9393 46.5504 59.4168L47.8188 59.7835ZM48.9046 58.5564L49.4641 59.7522C49.4352 59.7657 49.4521 59.7538 49.533 59.7391C49.6061 59.7259 49.6998 59.7163 49.8025 59.7142C49.9053 59.7122 49.9994 59.718 50.0732 59.7283C50.1549 59.7398 50.1728 59.7511 50.1441 59.7391L50.6541 58.5213L51.1641 57.3035C50.7022 57.1101 50.1629 57.0659 49.7497 57.0742C49.3368 57.0825 48.7993 57.148 48.3451 57.3605L48.9046 58.5564ZM50.6541 58.5213L50.1046 59.7218C50.0817 59.7113 50.0833 59.7102 50.1124 59.7281C50.1375 59.7436 50.1712 59.766 50.2097 59.7939C50.2924 59.8538 50.3594 59.9118 50.3935 59.9466L51.3349 59.0209L52.2764 58.0953C51.9862 57.8001 51.547 57.478 51.2036 57.3208L50.6541 58.5213ZM52.1772 59.2783L52.4246 60.5752L55.9344 59.9059L55.6871 58.609L55.4397 57.3121L51.9299 57.9814L52.1772 59.2783ZM55.6871 58.609L55.9313 59.9065C57.8142 59.5521 59.489 59.2297 60.0107 59.1293L59.7611 57.8328L59.5115 56.5363C58.9905 56.6366 57.3202 56.9582 55.4429 57.3115L55.6871 58.609ZM59.7611 57.8328L60.0104 59.1293L60.1678 59.0991L59.9186 57.8025L59.6693 56.506L59.5118 56.5363L59.7611 57.8328ZM59.9186 57.8025L60.1922 59.0941C60.2628 59.0792 60.9064 58.978 61.2609 58.3531C61.4049 58.0991 61.442 57.8573 61.456 57.7328C61.4706 57.6031 61.4715 57.4756 61.4715 57.3906H60.1512H58.831C58.831 57.4677 58.8287 57.4673 58.8319 57.4384C58.8346 57.4147 58.8523 57.2474 58.9641 57.0504C59.0999 56.8109 59.2957 56.6603 59.4643 56.5782C59.5881 56.5179 59.6837 56.5027 59.6449 56.5109L59.9186 57.8025ZM59.7867 56.9707L59.9723 55.6635L59.5956 55.61L59.4101 56.9172L59.2246 58.2244L59.6012 58.2779L59.7867 56.9707ZM59.4101 56.9172L59.6039 55.6113C57.8828 55.3558 56.2441 54.526 54.9742 53.2572L54.041 54.1912L53.1078 55.1251C54.7681 56.784 56.9213 57.8826 59.2163 58.2232L59.4101 56.9172ZM54.041 54.1912L54.9772 53.2602C54.313 52.5923 53.8176 51.9146 53.3904 51.0761L52.214 51.6755L51.0376 52.2748C51.5928 53.3647 52.2523 54.2648 53.1049 55.1221L54.041 54.1912ZM59.9358 33.8552L59.8153 32.5405C57.4826 32.7543 55.1861 33.874 53.5191 35.5796L54.4633 36.5024L55.4075 37.4253C56.6534 36.1505 58.3729 35.3243 60.0563 35.17L59.9358 33.8552ZM54.4633 36.5024L53.5182 35.5805C52.2727 36.8574 51.4457 38.301 50.9066 40.0928L52.1709 40.4732L53.4352 40.8536C53.8613 39.4371 54.4821 38.3739 55.4084 37.4243L54.4633 36.5024ZM52.1709 40.4732L50.9091 40.0846C50.7899 40.4717 50.698 40.794 50.6524 41.2532C50.6122 41.6577 50.6093 42.1602 50.6093 42.9187H51.9296H53.2499C53.2499 42.1171 53.2556 41.7605 53.28 41.5142C53.299 41.3226 53.3278 41.2022 53.4327 40.8618L52.1709 40.4732ZM51.9296 42.9187H50.6093C50.6093 44.3575 50.6307 44.8379 50.8353 45.6011L52.1106 45.2591L53.3858 44.9172C53.2802 44.5233 53.2499 44.3551 53.2499 42.9187H51.9296ZM52.1106 45.2591L50.8374 45.6087C51.1366 46.6983 51.5754 47.7065 52.1431 48.598L53.2568 47.8888L54.3704 47.1796C53.9556 46.5283 53.6188 45.7659 53.3837 44.9095L52.1106 45.2591ZM54.4827 48.5725V49.8928H67.2512V48.5725V47.2522H54.4827V48.5725ZM68.3988 47.9501L69.5164 48.6529C70.0632 47.7834 70.5538 46.6543 70.8363 45.6139L69.5622 45.2679L68.2881 44.9219C68.0707 45.7223 67.6823 46.6092 67.2811 47.2474L68.3988 47.9501ZM69.5622 45.2679L70.834 45.6225C71.0506 44.8454 71.0721 44.3608 71.0721 42.9626H69.7518H68.4315C68.4315 44.3518 68.4013 44.5158 68.2904 44.9133L69.5622 45.2679ZM69.7518 42.9626H71.0721C71.0721 41.5739 71.0504 41.0862 70.846 40.3241L69.5708 40.666L68.2956 41.008C68.4015 41.4029 68.4315 41.5814 68.4315 42.9626H69.7518ZM69.5708 40.666L70.8435 40.3148C69.8405 36.68 67.2407 33.9426 63.6872 32.8956L63.3141 34.162L62.9409 35.4285C65.5753 36.2047 67.5258 38.2182 68.2981 41.0172L69.5708 40.666ZM63.3141 34.162L63.6934 32.8974C62.887 32.6556 62.3465 32.5854 61.203 32.4952L61.0992 33.8114L60.9955 35.1276C62.0754 35.2127 62.3967 35.2653 62.9348 35.4266L63.3141 34.162ZM61.0992 33.8114L61.2063 32.4955C60.8709 32.4682 60.2599 32.4952 59.8022 32.5417L59.9358 33.8552L60.0694 35.1687C60.253 35.1501 60.4613 35.1365 60.6465 35.1297C60.7385 35.1263 60.8196 35.1249 60.885 35.125C60.9176 35.125 60.9438 35.1255 60.9638 35.1261C60.9848 35.1267 60.9934 35.1274 60.9922 35.1273L61.0992 33.8114ZM57.0562 41.7782L55.736 41.7827C55.7388 42.6011 55.7406 43.0496 55.7469 43.3116C55.7537 43.5964 55.7673 43.7529 55.8134 43.9571L57.1013 43.6665L58.3891 43.3758C58.3868 43.3654 58.3913 43.3866 58.393 43.403C58.393 43.4032 58.3927 43.4006 58.3923 43.3946C58.3919 43.3885 58.3913 43.3794 58.3907 43.3665C58.3894 43.3402 58.388 43.3027 58.3867 43.2483C58.3812 43.021 58.3793 42.6085 58.3765 41.7737L57.0562 41.7782ZM57.1013 43.6665L55.8132 43.9565C56.0682 45.089 56.8587 46.0327 57.9548 46.4419L58.4165 45.205L58.8783 43.9681C58.6535 43.8842 58.457 43.6774 58.3893 43.3765L57.1013 43.6665ZM58.4165 45.205L57.9562 46.4424L57.983 46.4524L58.4433 45.215L58.9037 43.9776L58.8769 43.9676L58.4165 45.205ZM58.4433 45.215L57.9823 46.4521C58.0215 46.4667 58.0958 46.4948 58.1769 46.5201L58.5691 45.2594L58.9613 43.9987C58.9643 43.9996 58.9629 43.9993 58.9533 43.9959C58.9423 43.9919 58.9293 43.9871 58.9044 43.9778L58.4433 45.215ZM58.5691 45.2594L58.1769 46.5201C58.4658 46.6099 58.7298 46.6306 59.053 46.6403C59.3713 46.6497 59.8663 46.6496 60.668 46.6495L60.6679 45.3292L60.6678 44.009C59.8416 44.009 59.3996 44.0089 59.1317 44.0009C58.8687 43.9931 58.8972 43.9788 58.9613 43.9987L58.5691 45.2594ZM60.7116 45.3292L60.7116 46.6495L60.8501 46.6495L60.8501 45.3292L60.85 44.009L60.7115 44.009L60.7116 45.3292ZM60.8501 45.3292V46.6495C61.8028 46.6495 62.3086 46.6496 62.5944 46.6443C62.9082 46.6384 63.0602 46.6248 63.2726 46.5765L62.9796 45.2891L62.6867 44.0017C62.6647 44.0067 62.6915 44.0005 62.7143 43.9983C62.7157 43.9982 62.7058 43.9992 62.6769 44.0005C62.648 44.0017 62.6064 44.003 62.5454 44.0042C62.2913 44.0089 61.8205 44.009 60.8501 44.009V45.3292ZM62.9796 45.2891L63.2729 46.5764C63.954 46.4212 64.4682 46.1276 64.9537 45.633L64.0116 44.7081L63.0695 43.7832C62.9784 43.8759 62.924 43.9126 62.8904 43.9315C62.8578 43.9499 62.8028 43.9753 62.6863 44.0018L62.9796 45.2891ZM64.0116 44.7081L64.9537 45.633C65.4352 45.1426 65.716 44.6271 65.8677 43.9586L64.5801 43.6665L63.2926 43.3744C63.2491 43.5659 63.2072 43.6429 63.0695 43.7832L64.0116 44.7081ZM64.5801 43.6665L65.868 43.9571C65.9141 43.7529 65.9277 43.5964 65.9345 43.3116C65.9408 43.0496 65.9426 42.6011 65.9454 41.7827L64.6251 41.7782L63.3049 41.7737C63.302 42.6085 63.3001 43.021 63.2947 43.2483C63.2934 43.3027 63.292 43.3402 63.2907 43.3665C63.2901 43.3794 63.2895 43.3885 63.2891 43.3946C63.2886 43.4006 63.2884 43.4032 63.2884 43.403C63.29 43.3866 63.2946 43.3654 63.2922 43.3758L64.5801 43.6665ZM62.9183 40.0639V38.7436H58.7631V40.0639V41.3841H62.9183V40.0639ZM57.6247 38.2865L58.5842 39.1935C58.6341 39.1407 58.6593 39.118 58.6751 39.1048C58.6902 39.0922 58.7144 39.0733 58.7691 39.038L58.0525 37.9291L57.336 36.8202C57.0684 36.993 56.8807 37.1517 56.6653 37.3795L57.6247 38.2865ZM58.0525 37.9291L58.747 39.052C58.7457 39.0528 58.7375 39.0579 58.7178 39.0678C58.7096 39.0718 58.6803 39.0864 58.637 39.1032C58.6158 39.1115 58.5742 39.127 58.5193 39.1421C58.4911 39.1499 58.4502 39.1601 58.3999 39.1689C58.3527 39.1771 58.2743 39.1882 58.1764 39.1882V37.8679V36.5476C57.9977 36.5476 57.8608 36.5846 57.8185 36.5963C57.7574 36.6131 57.7086 36.6311 57.6791 36.6426C57.6194 36.6658 57.5699 36.6895 57.5393 36.7048C57.4745 36.7371 57.4119 36.7729 57.3581 36.8062L58.0525 37.9291ZM58.1764 37.8679L58.2722 39.1847C58.2018 39.1879 58.0741 39.1842 58.017 39.1785C57.9702 39.172 57.8856 39.1557 57.8477 39.1466C57.761 39.1243 57.6933 39.0974 57.6517 39.0793C57.6076 39.0602 57.572 39.0418 57.547 39.0283C57.5214 39.0143 57.5 39.0015 57.4838 38.9915C57.4522 38.972 57.4276 38.9549 57.4127 38.9442C57.3968 38.9329 57.384 38.9231 57.3751 38.9163C57.3453 38.8932 57.3254 38.8754 57.3252 38.8753C57.3196 38.8703 57.3233 38.8734 57.3416 38.8908C57.3751 38.9224 57.4277 38.9733 57.4969 39.0413C57.6335 39.1754 57.8161 39.3576 57.9999 39.5426C58.1836 39.7277 58.3646 39.9117 58.498 40.0495C58.5656 40.1193 58.6163 40.1724 58.6479 40.2063C58.6652 40.2248 58.6684 40.2288 58.6638 40.2234C58.6636 40.2232 58.6466 40.2038 58.6243 40.1747C58.6177 40.1661 58.6085 40.1537 58.5977 40.1385C58.5875 40.1241 58.5714 40.1008 58.553 40.0711C58.5373 40.0456 58.5045 39.9908 58.4714 39.9167C58.4545 39.8788 58.43 39.8192 58.4083 39.7434C58.3993 39.7106 58.3826 39.6376 58.3752 39.5975C58.368 39.5488 58.3585 39.4398 58.3571 39.3797H59.6774H60.9977C60.9977 39.0894 60.8992 38.8775 60.8828 38.8407C60.8494 38.7659 60.816 38.7101 60.7996 38.6835C60.7652 38.6278 60.7338 38.5864 60.722 38.5709C60.6942 38.5345 60.6689 38.5052 60.6579 38.4925C60.6316 38.4622 60.6031 38.4313 60.58 38.4065C60.5309 38.3537 60.4661 38.2861 60.3951 38.2127C60.2512 38.0641 60.0618 37.8716 59.8736 37.682C59.6854 37.4925 59.4943 37.3019 59.347 37.1573C59.2743 37.0858 59.2074 37.0208 59.1552 36.9715C59.1307 36.9484 59.1 36.9197 59.0699 36.8932C59.0575 36.8823 59.0278 36.8563 58.9908 36.8277C58.9755 36.8158 58.9321 36.7826 58.8735 36.7463C58.846 36.7292 58.7851 36.6927 58.7028 36.657C58.6691 36.6423 58.4185 36.5265 58.0806 36.5511L58.1764 37.8679ZM59.6774 39.3797H58.3571C58.3571 38.9294 58.5775 38.6199 58.7221 38.4685C58.8612 38.3226 59.001 38.2437 59.0658 38.2098C59.1992 38.1401 59.3137 38.1105 59.3442 38.1026C59.4263 38.0813 59.4917 38.0733 59.5033 38.0718C59.5267 38.0688 59.5445 38.0672 59.552 38.0666C59.5608 38.0659 59.567 38.0655 59.5694 38.0653C59.5747 38.065 59.5669 38.0655 59.5376 38.0664C59.4836 38.0679 59.3978 38.0694 59.2827 38.0707C59.0549 38.0733 58.7366 38.0747 58.3828 38.0747V39.395V40.7152C58.7419 40.7152 59.0709 40.7138 59.3122 40.7111C59.4317 40.7097 59.5358 40.708 59.6132 40.7058C59.6495 40.7048 59.6927 40.7033 59.7326 40.7008C59.7479 40.6999 59.7895 40.6972 59.8381 40.691C59.8541 40.689 59.9228 40.6804 60.0072 40.6585C60.0388 40.6503 60.1541 40.6204 60.2882 40.5504C60.3532 40.5164 60.4932 40.4373 60.6325 40.2913C60.7772 40.1397 60.9977 39.83 60.9977 39.3797H59.6774ZM58.3828 39.395V38.0747C57.9241 38.0747 57.6098 38.0732 57.4125 38.0701C57.3109 38.0684 57.256 38.0666 57.2327 38.0653C57.2153 38.0644 57.2396 38.0651 57.2813 38.0706C57.2923 38.0721 57.3693 38.0818 57.4665 38.1105C57.5052 38.1219 57.6362 38.1611 57.7844 38.2529C57.8603 38.2999 57.9971 38.3948 58.125 38.557C58.2626 38.7314 58.4084 39.0109 58.4084 39.3739H57.0881H55.7679C55.7679 40.106 56.3163 40.4496 56.3941 40.4978C56.5438 40.5905 56.677 40.6306 56.7187 40.6429C56.8218 40.6734 56.9078 40.6847 56.931 40.6878C56.9968 40.6966 57.0577 40.7003 57.0901 40.702C57.1662 40.7061 57.2629 40.7086 57.3703 40.7103C57.5909 40.7138 57.9239 40.7152 58.3828 40.7152V39.395ZM57.0881 39.3739H58.4084C58.4084 39.4096 58.4069 39.4392 58.4054 39.4605C58.4038 39.4823 58.4019 39.5005 58.4003 39.5143C58.3972 39.541 58.3938 39.5611 58.3919 39.5716C58.3899 39.5831 58.3883 39.5909 58.3875 39.5944C58.3867 39.5982 58.3863 39.5998 58.3865 39.5989C58.387 39.5969 58.3887 39.5902 58.3919 39.5784C58.395 39.567 58.399 39.5532 58.4037 39.5375C58.4133 39.5055 58.4241 39.4716 58.4345 39.4415C58.4396 39.4266 58.4441 39.4144 58.4476 39.4049C58.4513 39.3951 58.4529 39.3913 58.4522 39.3928L57.2345 38.8828L56.0167 38.3727C55.9615 38.5045 55.9097 38.6611 55.8739 38.7808C55.8549 38.8443 55.8351 38.9153 55.8186 38.9841C55.8152 38.9981 55.7679 39.1776 55.7679 39.3739H57.0881ZM57.2345 38.8828L58.4499 39.3985C58.484 39.318 58.5196 39.2621 58.5863 39.1911L57.6247 38.2865L56.6632 37.3818C56.3847 37.6778 56.1763 37.9965 56.0191 38.367L57.2345 38.8828ZM58.9794 37.6309L58.8126 36.3212C58.7143 36.3337 58.5844 36.36 58.4437 36.4173C58.3803 36.4432 58.2518 36.5003 58.1143 36.6085C58.0414 36.6658 57.6066 37.0101 57.6066 37.6519H58.9269H60.2472C60.2472 37.9842 60.1241 38.2366 60.0227 38.387C59.9231 38.5346 59.8148 38.6304 59.7474 38.6834C59.6151 38.7876 59.4941 38.8407 59.4401 38.8627C59.3181 38.9124 59.2145 38.9319 59.1462 38.9406L58.9794 37.6309ZM58.9269 37.6519H57.6066C57.6066 37.935 57.7002 38.142 57.7165 38.1794C57.7488 38.2534 57.781 38.3086 57.7969 38.3349C57.83 38.3898 57.86 38.4303 57.8708 38.4446C57.8962 38.4786 57.9181 38.5044 57.9252 38.5127C57.9433 38.5341 57.9601 38.5526 57.9687 38.562C57.9886 38.5839 58.0123 38.609 58.0354 38.6334C58.0833 38.6841 58.1495 38.753 58.2276 38.8337C58.3846 38.9962 58.5996 39.2165 58.8347 39.456L59.7768 38.5311L60.719 37.6062C60.4869 37.3698 60.2768 37.1544 60.1258 36.9981C60.0497 36.9195 59.9911 36.8584 59.9526 36.8178C59.9325 36.7966 59.9226 36.7859 59.9198 36.7828C59.917 36.7797 59.9251 36.7884 59.9374 36.803C59.9415 36.8078 59.9613 36.831 59.9852 36.863C59.9952 36.8763 60.0247 36.916 60.0575 36.9703C60.0731 36.9962 60.1052 37.0511 60.1374 37.1249C60.1538 37.1627 60.1775 37.2217 60.1983 37.2963C60.2175 37.3648 60.2472 37.4909 60.2472 37.6519H58.9269ZM59.7768 38.5311L58.8347 39.456L59.547 40.1816L60.4891 39.2566L61.4313 38.3317L60.719 37.6062L59.7768 38.5311ZM61.1484 38.6094L62.0905 37.6845L61.379 36.9598L60.4369 37.8847L59.4948 38.8096L60.2062 39.5344L61.1484 38.6094ZM59.8002 37.6188L59.7958 36.2985L59.5979 36.2992L59.6023 37.6194L59.6068 38.9397L59.8046 38.9391L59.8002 37.6188ZM59.6023 37.6194L59.5943 36.2992C59.4317 36.3002 59.2772 36.3022 59.1581 36.3044C59.0989 36.3056 59.0455 36.3068 59.0027 36.3082C58.9819 36.3088 58.9593 36.3096 58.938 36.3107C58.9275 36.3112 58.9131 36.3119 58.897 36.313C58.8888 36.3136 58.8495 36.3162 58.8017 36.3227L58.9794 37.6309L59.1571 38.9392C59.1129 38.9452 59.079 38.9473 59.0782 38.9473C59.0734 38.9477 59.0698 38.9479 59.068 38.948C59.066 38.9481 59.0649 38.9481 59.0647 38.9482C59.0645 38.9482 59.0662 38.9481 59.0702 38.9479C59.074 38.9478 59.0792 38.9476 59.0858 38.9474C59.1133 38.9465 59.1547 38.9455 59.2084 38.9445C59.3149 38.9425 59.4578 38.9406 59.6103 38.9397L59.6023 37.6194ZM62.2764 38.7824L63.2195 37.8585L62.9471 37.5804L62.004 38.5043L61.0608 39.4282L61.3333 39.7063L62.2764 38.7824ZM62.004 38.5043L62.9461 37.5794L62.6717 37.2999L61.7296 38.2249L60.7875 39.1498L61.0618 39.4293L62.004 38.5043ZM61.9852 37.6233L61.9722 38.9435C62.3712 38.9474 62.5594 38.9502 62.6677 38.9552C62.7162 38.9575 62.7237 38.9593 62.7124 38.9577C62.6933 38.9551 62.6777 38.9513 62.6823 38.9525L63.0003 37.6711L63.3182 36.3896C62.9816 36.3061 62.688 36.3099 61.9982 36.3031L61.9852 37.6233ZM63.0003 37.6711L62.6872 38.9537C62.8635 38.9967 62.941 39.0419 63.0586 39.1601L63.9947 38.2291L64.9309 37.2981C64.463 36.8277 63.9513 36.5442 63.3134 36.3884L63.0003 37.6711ZM63.9947 38.2291L63.0609 39.1624C63.1752 39.2768 63.1982 39.3189 63.2328 39.3961L64.4375 38.856L65.6422 38.3159C65.4592 37.9076 65.2382 37.6057 64.9286 37.2958L63.9947 38.2291ZM64.4375 38.856L63.2324 39.3954C63.2295 39.3887 63.2278 39.3848 63.2276 39.3841C63.2272 39.3833 63.2276 39.3843 63.2288 39.3872C63.2312 39.3935 63.2351 39.4039 63.2402 39.4186C63.2506 39.4484 63.2625 39.4849 63.2735 39.5212C63.2789 39.539 63.2836 39.5552 63.2874 39.5691C63.2914 39.5833 63.2938 39.5927 63.295 39.5974C63.2955 39.5995 63.2954 39.5992 63.2949 39.5968C63.2944 39.5946 63.2929 39.5878 63.291 39.5774C63.2892 39.5681 63.2857 39.5483 63.2823 39.5215C63.2806 39.5077 63.2784 39.4886 63.2766 39.4655C63.2749 39.4432 63.273 39.4103 63.273 39.3701H64.5932H65.9135C65.9135 39.1656 65.8607 38.9731 65.8592 38.9671C65.842 38.897 65.8211 38.8234 65.8009 38.7565C65.7653 38.639 65.707 38.4606 65.6426 38.3166L64.4375 38.856ZM64.5932 39.3701H63.273C63.273 38.769 63.6519 38.4232 63.818 38.3033C63.9855 38.1823 64.1399 38.1322 64.1898 38.1166C64.3063 38.0802 64.3975 38.0711 64.4018 38.0706C64.435 38.0667 64.4399 38.0682 64.3782 38.07C64.2702 38.0732 64.0745 38.0747 63.7339 38.0747V39.395V40.7152C64.0687 40.7152 64.3027 40.7139 64.4556 40.7094C64.5242 40.7074 64.6174 40.7038 64.7061 40.6935C64.7382 40.6898 64.8491 40.6771 64.9783 40.6367C65.0345 40.6191 65.1935 40.567 65.3641 40.4438C65.5331 40.3217 65.9135 39.9736 65.9135 39.3701H64.5932ZM39.0879 45.5958L38.4433 46.748C38.6856 46.8835 38.9095 47.0114 39.074 47.1078C39.1571 47.1564 39.2193 47.1937 39.2592 47.2183C39.28 47.2312 39.2868 47.2357 39.2842 47.234C39.2835 47.2335 39.2717 47.2257 39.2542 47.2128C39.2453 47.2063 39.2292 47.1942 39.209 47.1778C39.193 47.1648 39.1523 47.1312 39.1046 47.0826L40.0467 46.1577L40.9889 45.2327C40.9064 45.1487 40.8277 45.0923 40.8181 45.0852C40.7905 45.065 40.7657 45.0482 40.7491 45.0371C40.715 45.0143 40.6789 44.9916 40.6471 44.972C40.5815 44.9315 40.4989 44.8822 40.4083 44.8292C40.2252 44.7219 39.9857 44.5852 39.7326 44.4436L39.0879 45.5958ZM40.0467 46.1577L39.1123 47.0903C38.8996 46.8772 38.8204 46.618 38.8155 46.4051C38.8105 46.1923 38.8766 45.9559 39.0447 45.7547L40.058 46.6011L41.0713 47.4474C41.5836 46.8341 41.613 45.858 40.9812 45.225L40.0467 46.1577ZM40.058 46.6011L39.06 45.7366C39.1192 45.6683 39.172 45.6222 39.1908 45.6059C39.2157 45.5844 39.2359 45.5687 39.2468 45.5603C39.2684 45.5438 39.2837 45.5335 39.2856 45.5322C39.2908 45.5286 39.2862 45.5319 39.2656 45.5448C39.2269 45.5689 39.1657 45.6059 39.0836 45.6543C38.9216 45.7499 38.7048 45.8746 38.4828 46.0001C38.2609 46.1256 38.0402 46.2484 37.8705 46.3403C37.7848 46.3867 37.7183 46.4219 37.6737 46.4447C37.6506 46.4565 37.6413 46.4609 37.6421 46.4605C37.6422 46.4605 37.6526 46.4556 37.6696 46.4485C37.6754 46.4461 37.7322 46.4219 37.8112 46.4002L38.1611 47.6732L38.511 48.9463C38.6435 48.9099 38.7565 48.8544 38.7604 48.8526C38.7994 48.8344 38.8393 48.8144 38.8747 48.7963C38.9472 48.7593 39.0351 48.7125 39.1283 48.662C39.3166 48.56 39.5522 48.4289 39.7827 48.2986C40.0131 48.1682 40.2449 48.035 40.4253 47.9286C40.5145 47.876 40.598 47.8259 40.6647 47.7842C40.6969 47.7641 40.7351 47.7397 40.7719 47.7147C40.7895 47.7027 40.8176 47.6832 40.8491 47.6592C40.8551 47.6546 40.9565 47.5803 41.0559 47.4655L40.058 46.6011ZM38.1611 47.6732L37.8138 46.3995C38.1015 46.321 38.3547 46.377 38.5277 46.46C38.7029 46.544 38.8746 46.692 38.9845 46.9127L37.8027 47.5012L36.6209 48.0898C36.9406 48.7318 37.7109 49.1644 38.5083 48.947L38.1611 47.6732ZM37.8027 47.5012L38.9879 46.9195C38.9946 46.9331 39.0177 46.9807 39.04 47.0458C39.0625 47.1116 39.0754 47.1691 39.0828 47.212C39.094 47.2768 39.0922 47.3095 39.0901 47.2455C39.0861 47.1281 39.0854 46.8955 39.0854 46.3794H37.7652H36.4449C36.4449 46.8686 36.4452 47.1605 36.451 47.3346C36.457 47.5109 36.4689 47.7803 36.6175 48.083L37.8027 47.5012ZM37.7652 46.3794H39.0854V45.4198H37.7652H36.4449V46.3794H37.7652ZM37.8083 45.2556L38.9624 45.8969C38.7725 46.2386 38.423 46.4134 38.0935 46.4134V45.0931V43.7729C37.5201 43.7729 36.9567 44.07 36.6543 44.6143L37.8083 45.2556ZM38.0935 45.0931V46.4134C38.0646 46.4134 38.0072 46.4121 37.9355 46.4016C37.8644 46.3911 37.8054 46.3755 37.7617 46.3613C37.6926 46.339 37.6609 46.3194 37.7136 46.346C37.7571 46.368 37.8291 46.4063 37.9527 46.4744C38.0737 46.5411 38.2316 46.6294 38.4426 46.7475L39.0879 45.5958L39.7333 44.444C39.3252 44.2153 39.0677 44.0717 38.9035 43.9888C38.7365 43.9045 38.4648 43.7729 38.0935 43.7729V45.0931ZM62.109 41.9502L63.0512 41.0253C62.9687 40.9412 62.89 40.8849 62.8804 40.8778C62.8529 40.8576 62.828 40.8407 62.8115 40.8297C62.7773 40.8069 62.7412 40.7842 62.7094 40.7645C62.6439 40.724 62.5613 40.6748 62.4706 40.6217C62.2875 40.5145 62.048 40.3777 61.7949 40.2361L61.1503 41.3883L60.5056 42.5405C60.7479 42.6761 60.9718 42.804 61.1363 42.9003C61.2194 42.949 61.2816 42.9863 61.3215 43.0109C61.3424 43.0238 61.3491 43.0283 61.3466 43.0266C61.3458 43.0261 61.334 43.0183 61.3165 43.0054C61.3077 42.9989 61.2915 42.9868 61.2714 42.9704C61.2553 42.9574 61.2146 42.9238 61.1669 42.8752L62.109 41.9502ZM61.1503 41.3883L61.7957 40.2366C61.3876 40.0079 61.1301 39.8643 60.9659 39.7814C60.7989 39.6971 60.5271 39.5654 60.1558 39.5654V40.8857V42.206C60.1269 42.206 60.0695 42.2047 59.9978 42.1942C59.9268 42.1837 59.8677 42.1681 59.824 42.1539C59.755 42.1315 59.7232 42.112 59.776 42.1386C59.8194 42.1605 59.8914 42.1989 60.015 42.267C60.136 42.3337 60.2939 42.4219 60.5049 42.5401L61.1503 41.3883ZM60.1558 40.8857V39.5654C59.5825 39.5654 59.0191 39.8625 58.7166 40.4068L59.8706 41.0481L61.0247 41.6895C60.8348 42.0312 60.4853 42.206 60.1558 42.206V40.8857ZM59.8275 41.2124H58.5072V42.1719H59.8275H61.1478V41.2124H59.8275ZM59.8275 42.1719H58.5072C58.5072 42.6611 58.5075 42.9531 58.5134 43.1272C58.5193 43.3035 58.5312 43.5728 58.6798 43.8756L59.865 43.2938L61.0502 42.7121C61.0569 42.7257 61.08 42.7733 61.1023 42.8384C61.1248 42.9042 61.1377 42.9616 61.1451 43.0045C61.1563 43.0694 61.1546 43.1021 61.1524 43.038C61.1484 42.9207 61.1478 42.688 61.1478 42.1719H59.8275ZM59.865 43.2938L58.6832 43.8823C59.0029 44.5244 59.7732 44.957 60.5706 44.7396L60.2234 43.4658L59.8762 42.192C60.1639 42.1136 60.417 42.1695 60.59 42.2525C60.7652 42.3366 60.937 42.4846 61.0469 42.7053L59.865 43.2938ZM60.2234 43.4658L60.5733 44.7389C60.7059 44.7024 60.8188 44.647 60.8227 44.6452C60.8617 44.6269 60.9016 44.607 60.9371 44.5889C61.0095 44.5519 61.0974 44.5051 61.1906 44.4546C61.3789 44.3526 61.6145 44.2215 61.845 44.0911C62.0754 43.9608 62.3072 43.8276 62.4877 43.7211C62.5768 43.6685 62.6603 43.6184 62.727 43.5767C62.7592 43.5566 62.7975 43.5323 62.8342 43.5073C62.8518 43.4953 62.8799 43.4758 62.9114 43.4518C62.9174 43.4472 63.0188 43.3728 63.1182 43.2581L62.1203 42.3936L61.1224 41.5292C61.1815 41.4609 61.2343 41.4147 61.2531 41.3984C61.278 41.377 61.2982 41.3612 61.3091 41.3529C61.3308 41.3364 61.346 41.3261 61.3479 41.3248C61.3531 41.3212 61.3485 41.3245 61.3279 41.3373C61.2893 41.3615 61.228 41.3984 61.1459 41.4469C60.9839 41.5425 60.7671 41.6672 60.5451 41.7927C60.3232 41.9182 60.1025 42.0409 59.9328 42.1329C59.8471 42.1793 59.7806 42.2145 59.736 42.2373C59.7129 42.2491 59.7036 42.2535 59.7044 42.2531C59.7046 42.253 59.7149 42.2482 59.7319 42.2411C59.7377 42.2387 59.7945 42.2145 59.8735 42.1928L60.2234 43.4658ZM62.1203 42.3936L63.1336 43.24C63.6459 42.6266 63.6754 41.6506 63.0435 41.0176L62.109 41.9502L61.1746 42.8829C60.9619 42.6698 60.8827 42.4106 60.8778 42.1977C60.8728 41.9848 60.939 41.7485 61.107 41.5473L62.1203 42.3936ZM38.6056 49.5367L38.6056 50.857C38.6201 50.8569 38.6346 50.8569 38.6493 50.8569L38.6492 49.5367L38.6492 48.2164C38.6345 48.2164 38.62 48.2164 38.6055 48.2164L38.6056 49.5367ZM60.6679 45.3292L60.668 46.6495C60.6831 46.6495 60.696 46.6495 60.7116 46.6495L60.7116 45.3292L60.7115 44.009C60.6978 44.009 60.6816 44.009 60.6678 44.009L60.6679 45.3292ZM62.2764 38.7824L61.3333 39.7063C61.9654 40.3516 62.8306 40.7152 63.7339 40.7152V39.395V38.0747C63.5404 38.0747 63.355 37.9968 63.2195 37.8585L62.2764 38.7824ZM60.4369 37.8847L61.379 36.9598C60.962 36.535 60.3911 36.2965 59.7958 36.2985L59.8002 37.6188L59.8046 38.9391C59.6881 38.9394 59.5764 38.8928 59.4948 38.8096L60.4369 37.8847ZM38.7564 43.6024V42.2821C38.9868 42.2821 39.2075 42.3747 39.3689 42.5391L38.4268 43.4641L37.4847 44.389C37.8198 44.7304 38.2781 44.9227 38.7564 44.9227V43.6024ZM58.7631 40.0639V38.7436C57.0861 38.7436 55.7286 40.107 55.736 41.784L57.0562 41.7782L58.3765 41.7724C58.3755 41.5583 58.5489 41.3841 58.7631 41.3841V40.0639ZM67.2512 48.5725V49.8928C68.1609 49.8928 69.009 49.4328 69.5053 48.6703L68.3988 47.9501L67.2922 47.2299C67.2832 47.2438 67.2677 47.2522 67.2512 47.2522V48.5725ZM53.2568 47.8888L52.1335 48.5826C52.6365 49.397 53.5254 49.8928 54.4827 49.8928V48.5725V47.2522C54.4409 47.2522 54.402 47.2306 54.3801 47.195L53.2568 47.8888ZM39.6673 42.4323L40.6094 41.5074C41.2126 42.1217 40.772 43.1586 39.9111 43.1509L39.9229 41.8307L39.9347 40.5105C38.4436 40.4971 37.6805 42.2931 38.7251 43.3572L39.6673 42.4323ZM60.4891 39.2566L59.547 40.1816C59.8821 40.5229 60.3404 40.7152 60.8187 40.7152V39.395V38.0747C61.0491 38.0747 61.2699 38.1673 61.4313 38.3317L60.4891 39.2566ZM60.8187 39.395V40.7152C62.3986 40.7152 63.1973 38.8119 62.0905 37.6845L61.1484 38.6094L60.2062 39.5344C59.6732 38.9914 60.0578 38.0747 60.8187 38.0747V39.395ZM51.3349 59.0209L50.405 59.9581C50.9352 60.4843 51.6908 60.7151 52.4246 60.5752L52.1772 59.2783L51.9299 57.9814C52.0516 57.9582 52.1769 57.9965 52.2649 58.0838L51.3349 59.0209ZM38.0889 62.0053H39.4092C39.4092 60.9055 38.6038 59.9716 37.5159 59.81L37.3219 61.1159L37.1279 62.4218C36.9215 62.3912 36.7687 62.214 36.7687 62.0053H38.0889ZM59.8706 41.0481L58.7209 40.3991C58.5808 40.6473 58.5072 40.9274 58.5072 41.2124H59.8275H61.1478C61.1478 41.3823 61.1039 41.5492 61.0204 41.6972L59.8706 41.0481ZM48.3019 62.4444L49.5423 62.8967C49.7875 62.2243 49.631 61.4711 49.1383 60.952L48.1807 61.861L47.2232 62.7699C47.0261 62.5623 46.9635 62.2611 47.0616 61.9921L48.3019 62.4444ZM37.7652 45.4198H39.0854C39.0854 45.5897 39.0416 45.7567 38.9581 45.9046L37.8083 45.2556L36.6586 44.6066C36.5185 44.8547 36.4449 45.1349 36.4449 45.4198H37.7652ZM51.4556 61.8347L50.4698 60.9563C49.9913 61.4935 49.8481 62.2508 50.0977 62.9255L51.336 62.4675L52.5743 62.0095C52.6634 62.2505 52.6123 62.5211 52.4413 62.713L51.4556 61.8347ZM39.0861 42.8169L38.1439 43.7418C37.6109 43.1988 37.9955 42.2821 38.7564 42.2821V43.6024V44.9227C40.3363 44.9227 41.135 43.0193 40.0282 41.8919L39.0861 42.8169ZM64.6251 41.7782L65.9454 41.784C65.9527 40.107 64.5953 38.7436 62.9183 38.7436V40.0639V41.3841C63.1325 41.3841 63.3058 41.5583 63.3049 41.7724L64.6251 41.7782ZM62.03 56.9523L61.8691 55.6418C60.9217 55.7581 60.2099 56.5627 60.2099 57.5172H61.5301H62.8504C62.8504 57.8967 62.5674 58.2165 62.1908 58.2627L62.03 56.9523ZM61.7296 38.2249L62.6717 37.2999C63.2749 37.9143 62.8343 38.9512 61.9734 38.9435L61.9852 37.6233L61.997 36.3031C60.5059 36.2897 59.7428 38.0857 60.7875 39.1498L61.7296 38.2249ZM60.1512 57.3906H61.4715C61.4715 56.5219 60.8323 55.7856 59.9723 55.6635L59.7867 56.9707L59.6012 58.2779C59.1594 58.2151 58.831 57.8369 58.831 57.3906H60.1512ZM31.2203 52.1576L30.1138 52.8777C30.61 53.6403 31.4581 54.1002 32.3679 54.1002V52.7799V51.4596C32.3513 51.4596 32.3359 51.4513 32.3269 51.4374L31.2203 52.1576ZM36.7008 44.2713V42.951C35.0237 42.951 33.6663 44.3144 33.6736 45.9914L34.9939 45.9857L36.3142 45.9799C36.3132 45.7657 36.4866 45.5916 36.7008 45.5916V44.2713ZM40.2141 42.9899L39.271 43.9138C39.9031 44.559 40.7683 44.9227 41.6716 44.9227V43.6024V42.2821C41.478 42.2821 41.2927 42.2042 41.1572 42.066L40.2141 42.9899ZM37.7379 41.8262L37.7423 43.1465C37.6258 43.1469 37.5141 43.1002 37.4324 43.0171L38.3746 42.0921L39.3167 41.1672C38.8997 40.7424 38.3288 40.504 37.7335 40.506L37.7379 41.8262ZM48.1807 61.861L49.1058 60.919C48.6404 60.4619 47.9806 60.2621 47.3398 60.384L47.5867 61.681L47.8335 62.978C47.6239 63.0179 47.4079 62.9525 47.2556 62.803L48.1807 61.861ZM42.5628 45.9857L43.8831 45.9914C43.8904 44.3144 42.533 42.951 40.856 42.951V44.2713V45.5916C41.0701 45.5916 41.2435 45.7657 41.2426 45.9799L42.5628 45.9857ZM45.1364 52.7799V54.1002C46.0936 54.1002 46.9826 53.6044 47.4856 52.79L46.3623 52.0962L45.239 51.4024C45.217 51.438 45.1782 51.4596 45.1364 51.4596V52.7799Z" fill="url(#paint3_linear_636_1769)" mask="url(#path-1-inside-1_636_1769)"/>
</g>
<defs>
<filter id="filter0_ddi_636_1769" x="0.000610828" y="0.000610828" width="100.608" height="100.608" filterUnits="userSpaceOnUse" color-interpolation-filters="sRGB">
<feFlood flood-opacity="0" result="BackgroundImageFix"/>
<feColorMatrix in="SourceAlpha" type="matrix" values="0 0 0 0 0 0 0 0 0 0 0 0 0 0 0 0 0 0 127 0" result="hardAlpha"/>
<feOffset dx="6.60136" dy="6.60136"/>
<feGaussianBlur stdDeviation="6.60136"/>
<feComposite in2="hardAlpha" operator="out"/>
<feColorMatrix type="matrix" values="0 0 0 0 0.0509804 0 0 0 0 0.0784314 0 0 0 0 0.192157 0 0 0 0.5 0"/>
<feBlend mode="normal" in2="BackgroundImageFix" result="effect1_dropShadow_636_1769"/>
<feColorMatrix in="SourceAlpha" type="matrix" values="0 0 0 0 0 0 0 0 0 0 0 0 0 0 0 0 0 0 127 0" result="hardAlpha"/>
<feOffset dx="-6.60136" dy="-6.60136"/>
<feGaussianBlur stdDeviation="6.60136"/>
<feComposite in2="hardAlpha" operator="out"/>
<feColorMatrix type="matrix" values="0 0 0 0 1 0 0 0 0 1 0 0 0 0 1 0 0 0 0.5 0"/>
<feBlend mode="overlay" in2="effect1_dropShadow_636_1769" result="effect2_dropShadow_636_1769"/>
<feBlend mode="normal" in="SourceGraphic" in2="effect2_dropShadow_636_1769" result="shape"/>
<feColorMatrix in="SourceAlpha" type="matrix" values="0 0 0 0 0 0 0 0 0 0 0 0 0 0 0 0 0 0 127 0" result="hardAlpha"/>
<feOffset dx="0.660136" dy="0.660136"/>
<feGaussianBlur stdDeviation="0.165034"/>
<feComposite in2="hardAlpha" operator="arithmetic" k2="-1" k3="1"/>
<feColorMatrix type="matrix" values="0 0 0 0 1 0 0 0 0 1 0 0 0 0 1 0 0 0 1 0"/>
<feBlend mode="normal" in2="shape" result="effect3_innerShadow_636_1769"/>
</filter>
<linearGradient id="paint0_linear_636_1769" x1="28.8594" y1="26" x2="61.7422" y2="80.8047" gradientUnits="userSpaceOnUse">
<stop stop-color="#F5F5F9"/>
<stop offset="1" stop-color="#DADFE7"/>
</linearGradient>
<linearGradient id="paint1_linear_636_1769" x1="28.8594" y1="26" x2="61.7422" y2="80.8047" gradientUnits="userSpaceOnUse">
<stop stop-color="#F5F5F9"/>
<stop offset="1" stop-color="#DADFE7"/>
</linearGradient>
<linearGradient id="paint2_linear_636_1769" x1="28.8594" y1="26" x2="61.7422" y2="80.8047" gradientUnits="userSpaceOnUse">
<stop stop-color="#F5F5F9"/>
<stop offset="1" stop-color="#DADFE7"/>
</linearGradient>
<linearGradient id="paint3_linear_636_1769" x1="26.6409" y1="28.2185" x2="69.2357" y2="76.0719" gradientUnits="userSpaceOnUse">
<stop stop-color="white"/>
<stop offset="1" stop-color="#AEAEAE"/>
</linearGradient>
</defs>
</svg>
